<svg xmlns="http://www.w3.org/2000/svg" viewBox="0 0 115.47 114.12"><defs><style>.cls-1{fill:#ff8f54;}.cls-2{fill:#fff;}.cls-3{fill:#e00b6c;}.cls-4{fill:#f6e15e;}.cls-5{fill:#64b9ea;}</style></defs><title>addbonplan</title><g id="Calque_2" data-name="Calque 2"><g id="Calque_1-2" data-name="Calque 1"><path class="cls-1" d="M115.37,54.51a1,1,0,0,0-.63-.53L80.3,44.47a1,1,0,0,0-.7.06L26,70a1,1,0,0,0-.47,1.33l20.06,42.21a1,1,0,0,0,1.33.47l54-25.65a1,1,0,0,0,.49-.51l14-32.53A1,1,0,0,0,115.37,54.51Z"/><circle class="cls-2" cx="96.49" cy="63.49" r="5.13" transform="translate(-17.91 47.56) rotate(-25.42)"/><path class="cls-2" d="M83.27,88.12a1,1,0,0,1-.9-.57L68.65,58.7a1,1,0,1,1,1.81-.86L84.17,86.69a1,1,0,0,1-.9,1.43Z"/><path class="cls-2" d="M73.78,93a1,1,0,0,1-.9-.57L59.16,63.54A1,1,0,1,1,61,62.68L74.68,91.53a1,1,0,0,1-.9,1.43Z"/><path class="cls-2" d="M64.52,97.36a1,1,0,0,1-.9-.57L49.9,67.94a1,1,0,1,1,1.81-.86L65.42,95.94a1,1,0,0,1-.9,1.43Z"/><path class="cls-2" d="M55.25,101.77a1,1,0,0,1-.9-.57L40.64,72.34a1,1,0,1,1,1.81-.86l13.71,28.85a1,1,0,0,1-.9,1.43Z"/><path class="cls-3" d="M92.21,22.24a1,1,0,0,0-.77-.3L55.77,24a1,1,0,0,0-.64.28L12.56,65.63a1,1,0,0,0,0,1.41L45.1,100.57a1,1,0,0,0,1.41,0L89.38,59a1,1,0,0,0,.3-.64L92.49,23A1,1,0,0,0,92.21,22.24Z"/><circle class="cls-2" cx="77.21" cy="36.81" r="5.13" transform="translate(-3.83 64.19) rotate(-44.16)"/><path class="cls-2" d="M72.29,64.44a1,1,0,0,1-.72-.3L49.31,41.23a1,1,0,0,1,1.44-1.39L73,62.75a1,1,0,0,1-.72,1.7Z"/><path class="cls-2" d="M64.85,72.08a1,1,0,0,1-.72-.3L41.88,48.86a1,1,0,0,1,1.44-1.39L65.57,70.38a1,1,0,0,1-.72,1.7Z"/><path class="cls-2" d="M57.5,79.22a1,1,0,0,1-.72-.3L34.52,56A1,1,0,0,1,36,54.61L58.22,77.52a1,1,0,0,1-.72,1.7Z"/><path class="cls-2" d="M50.14,86.37a1,1,0,0,1-.72-.3L27.17,63.15a1,1,0,0,1,1.44-1.39L50.86,84.67a1,1,0,0,1-.72,1.7Z"/><path class="cls-4" d="M72.17,35.5,65.06.8A1,1,0,0,0,63.75.06L30.06,12a1,1,0,0,0-.54.45L.13,64a1,1,0,0,0,.37,1.36l40.6,23.15a1,1,0,0,0,.5.13,1,1,0,0,0,.26,0,1,1,0,0,0,.61-.47L72.06,36.2A1,1,0,0,0,72.17,35.5Z"/><circle class="cls-2" cx="54.21" cy="18.3" r="5.13" transform="translate(11.46 56.33) rotate(-60.31)"/><path class="cls-2" d="M56.89,46.25a1,1,0,0,1-.49-.13L28.65,30.3a1,1,0,1,1,1-1.74L57.39,44.38a1,1,0,0,1-.5,1.87Z"/><path class="cls-2" d="M51.88,55.65a1,1,0,0,1-.49-.13L23.63,39.7a1,1,0,1,1,1-1.74L52.37,53.78a1,1,0,0,1-.5,1.87Z"/><path class="cls-2" d="M46.8,64.56a1,1,0,0,1-.49-.13L18.55,48.6a1,1,0,1,1,1-1.74L47.29,62.69a1,1,0,0,1-.5,1.87Z"/><path class="cls-2" d="M41.72,73.47a1,1,0,0,1-.49-.13L13.47,57.51a1,1,0,1,1,1-1.74L42.22,71.6a1,1,0,0,1-.5,1.87Z"/><path class="cls-5" d="M86.28,83.91A11.33,11.33,0,1,0,97.61,95.24,11.34,11.34,0,0,0,86.28,83.91Z"/><path class="cls-2" d="M91.79,94.74h-5v-5a.5.5,0,0,0-1,0v5h-5a.5.5,0,0,0,0,1h5v5a.5.5,0,0,0,1,0v-5h5a.5.5,0,0,0,0-1Z"/></g></g></svg>