<svg xmlns="http://www.w3.org/2000/svg" viewBox="0 0 232.29 175.64"><defs><style>.cls-1{fill:#0f7782;}.cls-2{fill:#b91c48;}.cls-3{fill:#e00b6c;}.cls-4{fill:none;stroke:#ffb16b;stroke-linecap:round;stroke-linejoin:round;stroke-width:4px;}.cls-5{fill:#fff;}.cls-6{fill:#ffd4ba;}.cls-7{fill:#ff9ca0;}.cls-8{fill:#afd03d;}.cls-9{fill:#ff8f54;}.cls-10{fill:#a3195b;}.cls-11{fill:#55508c;}.cls-12{fill:#ebb16b;}.cls-13{fill:#ffdc7e;}.cls-14{fill:#fff7a4;}.cls-15{fill:#4a806c;}.cls-16{fill:#afd085;}.cls-17{fill:#bac341;}.cls-18{fill:#f9e63a;}.cls-19{fill:#64b9ea;}.cls-20{fill:#26c281;}.cls-21{fill:#ffe3a4;}</style></defs><title>allcategories</title><g id="Calque_2" data-name="Calque 2"><g id="Calque_1-2" data-name="Calque 1"><ellipse class="cls-1" cx="122.62" cy="154.31" rx="109.67" ry="21.33"/><path class="cls-2" d="M197.38,25.28,216.92,36s-8.61,87.37-12.84,90.63H150c-4.24-3.26-13.35-89.55-13.35-89.55l19.54-10.76"/><path class="cls-3" d="M204.08,128.67H150a2,2,0,0,1-1.22-.41c-1.24-1-3.31-2.54-9-47.33-2.78-21.75-5.07-43.38-5.09-43.6a2,2,0,0,1,1-2L155.24,24.6a2,2,0,1,1,1.93,3.5L138.8,38.23c3.3,31,9.3,79.49,12.31,86.44H203c1.77-4.59,6.22-30.81,11.83-87.51L196.42,27a2,2,0,0,1,1.93-3.5l19.54,10.76a2,2,0,0,1,1,1.95c0,.22-2.18,22.12-4.84,44.13-5.46,45.33-7.53,46.93-8.77,47.88A2,2,0,0,1,204.08,128.67Z"/><path class="cls-4" d="M165.11,40.83"/><path class="cls-5" d="M189.1,21.65,177,34.84l-16-14.65s14,8.79,28,0"/><path class="cls-6" d="M177,36.84a2,2,0,0,1-1.35-.53l-16-14.65a2,2,0,0,1,2.42-3.17c.53.33,13.15,8,25.88,0A2,2,0,0,1,191,20.92a2,2,0,0,1-.38,2.08L178.52,36.19a2,2,0,0,1-1.39.65ZM169.9,25.56l7,6.45,6.4-7A28,28,0,0,1,169.9,25.56Z"/><circle class="cls-5" cx="177.77" cy="50.21" r="1.46"/><circle class="cls-5" cx="177.77" cy="62.82" r="1.47"/><circle class="cls-5" cx="177.77" cy="72.84" r="1.47"/><circle class="cls-5" cx="177.77" cy="82.36" r="1.46"/><circle class="cls-5" cx="177.77" cy="93.72" r="1.47"/><circle class="cls-5" cx="177.77" cy="104.83" r="1.47"/><circle class="cls-5" cx="177.77" cy="117.34" r="1.46"/><path class="cls-7" d="M187.45,22.24l-10.38-5.58V11.35a5.8,5.8,0,0,0,5-5.64,5.83,5.83,0,0,0-6-5.71,1,1,0,0,0,0,2,3.81,3.81,0,0,1,4,3.71,3.8,3.8,0,0,1-4,3.71,1,1,0,0,0-1,1,1,1,0,0,0,.05.26,1,1,0,0,0-.05.26v5.71l-10.43,5.58a1,1,0,0,0,.94,1.76l10.49-5.61L186.51,24a1,1,0,0,0,.95-1.76Z"/><path class="cls-3" d="M138.66,37.85a2,2,0,0,0-2-1.75h-.06A2,2,0,0,0,134.67,38l-6.19,100.62a2,2,0,0,0,2,2.12h14.33a2,2,0,0,0,1.94-1.53l2.93-12a2,2,0,0,0,0-.72Z"/><path class="cls-3" d="M218.91,35.9a2,2,0,0,0-4-.14L202.1,126.38a2,2,0,0,0,.17,1.13l6.84,14.66a2,2,0,0,0,1.81,1.15h13.35a2,2,0,0,0,2-2.14Z"/><path class="cls-3" d="M197.15,22.83l-5.53-4.23a2,2,0,0,0-2.69.24L176.87,32.07l-15.79-13.4a2,2,0,0,0-3,.52l-3.58,6.17a2,2,0,0,0,0,2.05l13,21.19a2,2,0,0,0,3.41,0L177,38.66l6.11,9.93a2,2,0,0,0,1.7,1h.1a2,2,0,0,0,1.7-1.13l11.07-23.12A2,2,0,0,0,197.15,22.83Z"/><path class="cls-8" d="M94.58,65.9a10.29,10.29,0,0,0-2.74-.37c-.3,0-.6,0-.88,0a10.31,10.31,0,0,0-.14-3.46.5.5,0,0,0-.58-.37,10.06,10.06,0,0,0-2.12.72,11.57,11.57,0,0,0-.18-2.82.5.5,0,0,0-.64-.37,11.23,11.23,0,0,0-2.06,1,16.64,16.64,0,0,0-2.72-4.43.5.5,0,0,0-.74,0A16.5,16.5,0,0,0,79.17,60c-.29-.19-.48-.3-.51-.31a.5.5,0,0,0-.67.18,10.21,10.21,0,0,0-1.21,3.51A9.2,9.2,0,0,0,75.55,63a.5.5,0,0,0-.58.38c0,.15-.83,3.63.89,6.27a8.69,8.69,0,0,0,5,3.26,13,13,0,0,0,.93,1.18.5.5,0,0,0,.37.16h0a.5.5,0,0,0,.37-.16,15.64,15.64,0,0,0,1.7-2.4.5.5,0,0,0,.29.09h.06a.49.49,0,0,0,.33.34,10.24,10.24,0,0,0,2.75.37,7.21,7.21,0,0,0,3.57-.84c2.74-1.54,3.66-5,3.7-5.14A.5.5,0,0,0,94.58,65.9Z"/><path class="cls-9" d="M89.23,71.41a7.93,7.93,0,0,0-6.52-3.26c-3.75,0-7.56,2.55-7.6,8.23-.08,9.78.76,34.49.77,34.73a1,1,0,0,0,.83,1h.17a1,1,0,0,0,.93-.64c.09-.24,9.2-23.94,12.08-32C91,76.39,90.73,73.54,89.23,71.41Z"/><path class="cls-10" d="M51.46,72.79S48.66,84,49.93,87.58s6.63,4.51,8.16,4.84S64.71,86,65,84.2s-2.4-10.11-4.33-12.3C56.82,67.59,51.46,72.79,51.46,72.79Z"/><path class="cls-11" d="M82.07,83.16S79.27,92,80.54,94.83s6.63,3.56,8.16,3.82,6.63-5.07,6.88-6.49-2.29-8.05-4.33-9.71S82.07,83.16,82.07,83.16Z"/><path class="cls-12" d="M91.81,109.89s7.42,27.44-11.14,7.27c-5.39-7.89-26.86-48-26.86-48S48,46.78,65.68,63.78c3.61,5.38,26.13,46.11,26.13,46.11"/><path class="cls-12" d="M90.65,125.56c-2.46,0-5.87-2.46-10.72-7.73l-.09-.11c-5.36-7.84-26-46.42-26.92-48.06a1,1,0,0,1-.09-.22c-.23-.87-2.16-8.64.22-11.72a3.34,3.34,0,0,1,2.74-1.32c2.45,0,5.91,2.17,10.58,6.65a1,1,0,0,1,.14.16c3.59,5.36,25.25,44.52,26.17,46.18a1,1,0,0,1,.09.22c.31,1.15,3,11.32.36,14.71A3,3,0,0,1,90.65,125.56Zm-9.2-9c5.64,6.11,8.18,7,9.2,7a1,1,0,0,0,.89-.44c1.5-2,.39-8.87-.67-12.86-1.28-2.31-22.34-40.35-26-45.84-5.2-5-7.82-6-9.11-6a1.34,1.34,0,0,0-1.16.54c-1.33,1.72-.65,6.91.1,9.88C56,71.12,76.22,108.84,81.45,116.53Z"/><line class="cls-13" x1="63.35" y1="64.7" x2="61.16" y2="73.99"/><path class="cls-14" d="M61.16,75l-.23,0a1,1,0,0,1-.74-1.2l2.19-9.3a1,1,0,0,1,1.95.46l-2.19,9.3A1,1,0,0,1,61.16,75Z"/><line class="cls-13" x1="67.77" y1="71.43" x2="65.96" y2="79.57"/><path class="cls-14" d="M66,80.57l-.22,0A1,1,0,0,1,65,79.35l1.82-8.14a1,1,0,1,1,2,.44l-1.82,8.14A1,1,0,0,1,66,80.57Z"/><line class="cls-13" x1="71.57" y1="76.67" x2="70.04" y2="84.2"/><path class="cls-14" d="M70,85.2l-.2,0A1,1,0,0,1,69.06,84l1.53-7.54a1,1,0,0,1,2,.4L71,84.4A1,1,0,0,1,70,85.2Z"/><line class="cls-13" x1="75.31" y1="83.27" x2="73.82" y2="91.29"/><path class="cls-14" d="M73.82,92.29l-.18,0a1,1,0,0,1-.8-1.17l1.49-8a1,1,0,1,1,2,.36l-1.49,8A1,1,0,0,1,73.82,92.29Z"/><path class="cls-15" d="M103.34,68.59c.41,2.94-1.76,5.67-1.76,5.67s-2.82-2-3.23-5,1.76-5.67,1.76-5.67S102.94,65.66,103.34,68.59Z"/><path class="cls-15" d="M101.58,74.76a.5.5,0,0,1-.29-.09c-.12-.09-3-2.2-3.43-5.32s1.77-5.93,1.87-6a.5.5,0,0,1,.68-.09c.12.09,3,2.2,3.43,5.32s-1.77,5.93-1.87,6A.5.5,0,0,1,101.58,74.76Zm-1.37-10.42a7.66,7.66,0,0,0-1.37,4.87,7.64,7.64,0,0,0,2.63,4.33,7.65,7.65,0,0,0,1.37-4.88A7.64,7.64,0,0,0,100.21,64.34Z"/><path class="cls-15" d="M107.33,70.88a10.43,10.43,0,0,1-5.77,3.38,10.39,10.39,0,0,1,1.77-6.45,10.41,10.41,0,0,1,5.77-3.37A10.4,10.4,0,0,1,107.33,70.88Z"/><path class="cls-15" d="M101.57,74.76a.5.5,0,0,1-.5-.46,10.8,10.8,0,0,1,1.88-6.79A10.82,10.82,0,0,1,109,63.94a.5.5,0,0,1,.59.45,10.81,10.81,0,0,1-1.87,6.79,10.84,10.84,0,0,1-6.08,3.57Zm7.06-9.69a9.58,9.58,0,0,0-4.89,3,9.55,9.55,0,0,0-1.68,5.51,9.59,9.59,0,0,0,4.89-3.05A9.55,9.55,0,0,0,108.62,65.07Z"/><path class="cls-15" d="M110.1,73c-1.91,2.27-5.39,2.49-5.39,2.49s-.37-3.46,1.54-5.73,5.39-2.48,5.39-2.48S112,70.74,110.1,73Z"/><path class="cls-15" d="M104.71,76a.5.5,0,0,1-.5-.45c0-.15-.37-3.7,1.66-6.11s5.59-2.65,5.74-2.66a.49.49,0,0,1,.53.45c0,.15.37,3.71-1.66,6.11S104.89,76,104.74,76Zm6.46-8.16a7.66,7.66,0,0,0-4.54,2.25,7.62,7.62,0,0,0-1.45,4.85,7.64,7.64,0,0,0,4.54-2.25A7.62,7.62,0,0,0,111.17,67.83Z"/><path class="cls-15" d="M106.74,69.35c-.63,4.83-4.69,8.28-4.69,8.28s-3-4.37-2.42-9.2,4.69-8.27,4.69-8.27S107.37,64.53,106.74,69.35Z"/><path class="cls-15" d="M102.05,78.13H102a.5.5,0,0,1-.35-.21c-.13-.19-3.15-4.59-2.5-9.55s4.69-8.44,4.86-8.58a.49.49,0,0,1,.39-.11.5.5,0,0,1,.35.21c.13.19,3.15,4.58,2.51,9.54s-4.69,8.45-4.86,8.59A.5.5,0,0,1,102.05,78.13Zm2.17-17.19a14,14,0,0,0-4.09,7.55,14,14,0,0,0,2,8.36,14,14,0,0,0,4.09-7.56A13.94,13.94,0,0,0,104.22,60.94Z"/><path class="cls-15" d="M101.33,70.34c1.28,2.68.05,5.94.05,5.94s-3.31-1.08-4.6-3.76-.05-5.94-.05-5.94S100,67.67,101.33,70.34Z"/><path class="cls-15" d="M101.38,76.78l-.16,0c-.14,0-3.53-1.18-4.9-4s-.12-6.19-.07-6.33a.5.5,0,0,1,.62-.3c.14,0,3.53,1.18,4.89,4s.13,6.19.07,6.33A.5.5,0,0,1,101.38,76.78ZM97,67.25a7.67,7.67,0,0,0,.19,5.06,7.67,7.67,0,0,0,3.83,3.31,7.67,7.67,0,0,0-.19-5.06A7.67,7.67,0,0,0,97,67.25Z"/><path class="cls-15" d="M111.12,76.25c-2.76,1.11-5.93-.34-5.93-.34s1.3-3.23,4.06-4.33,5.92.34,5.92.34S113.87,75.15,111.12,76.25Z"/><path class="cls-15" d="M108.81,77.17a10.2,10.2,0,0,1-3.83-.8.5.5,0,0,1-.26-.64c.06-.14,1.41-3.44,4.34-4.61a6.68,6.68,0,0,1,2.49-.45,10.2,10.2,0,0,1,3.83.8.5.5,0,0,1,.26.64c-.06.14-1.41,3.44-4.33,4.61A6.67,6.67,0,0,1,108.81,77.17Zm-2.94-1.53a9.25,9.25,0,0,0,2.94.53,5.68,5.68,0,0,0,2.12-.38,7.65,7.65,0,0,0,3.56-3.6,9.26,9.26,0,0,0-2.94-.53,5.68,5.68,0,0,0-2.12.38A7.63,7.63,0,0,0,105.87,75.64Z"/><path class="cls-9" d="M109.12,75.82a8.16,8.16,0,0,0-6.87-3.74c-3,0-6.8,1.9-7.55,7.24C93.35,89,91,113.61,91,113.86a1,1,0,0,0,1.87.57c.12-.22,12.23-22.55,16.14-30.18C110.53,81.21,110.58,78.21,109.12,75.82Z"/><path class="cls-15" d="M37.83,70.46c2,2.15,1.87,5.63,1.87,5.63s-3.48,0-5.53-2.17-1.87-5.63-1.87-5.63S35.79,68.3,37.83,70.46Z"/><path class="cls-15" d="M39.71,76.59h0c-.15,0-3.72,0-5.89-2.32s-2-5.85-2-6a.5.5,0,0,1,.5-.48h0c.15,0,3.73,0,5.89,2.32s2,5.85,2,6A.5.5,0,0,1,39.71,76.59Zm-6.89-7.77a7.68,7.68,0,0,0,1.73,4.76,7.63,7.63,0,0,0,4.66,2,7.64,7.64,0,0,0-1.73-4.76A7.61,7.61,0,0,0,32.81,68.82Z"/><path class="cls-15" d="M42.41,70a10.41,10.41,0,0,1-2.72,6.11,10.41,10.41,0,0,1-2.32-6.27,10.4,10.4,0,0,1,2.72-6.1A10.39,10.39,0,0,1,42.41,70Z"/><path class="cls-15" d="M39.69,76.59h0a.5.5,0,0,1-.36-.18,10.82,10.82,0,0,1-2.44-6.61,10.81,10.81,0,0,1,2.86-6.44.47.47,0,0,1,.38-.15.5.5,0,0,1,.37.18A10.8,10.8,0,0,1,42.91,70a10.81,10.81,0,0,1-2.86,6.44A.5.5,0,0,1,39.69,76.59Zm.38-12.08a9.57,9.57,0,0,0-2.19,5.32,9.58,9.58,0,0,0,1.84,5.46A9.58,9.58,0,0,0,41.91,70,9.56,9.56,0,0,0,40.07,64.51Z"/><path class="cls-15" d="M45.9,70.1c-.23,3-2.93,5.16-2.93,5.16s-2.32-2.6-2.09-5.56,2.93-5.16,2.93-5.16S46.13,67.14,45.9,70.1Z"/><path class="cls-15" d="M43,75.76a.5.5,0,0,1-.37-.17c-.1-.11-2.46-2.79-2.21-5.93s3-5.41,3.11-5.51a.5.5,0,0,1,.69.05c.1.11,2.47,2.79,2.22,5.93s-3,5.42-3.12,5.51A.5.5,0,0,1,43,75.76Zm.78-10.49a7.65,7.65,0,0,0-2.37,4.47A7.65,7.65,0,0,0,43,74.53a7.67,7.67,0,0,0,2.38-4.47A7.66,7.66,0,0,0,43.75,65.28Z"/><path class="cls-15" d="M41,69.09c2.3,4.29,1,9.46,1,9.46s-5-1.78-7.33-6.06-1-9.45-1-9.45S38.74,64.81,41,69.09Z"/><path class="cls-15" d="M42.06,79l-.17,0c-.21-.08-5.24-1.89-7.61-6.3s-1.11-9.59-1.05-9.81a.5.5,0,0,1,.65-.35c.21.08,5.23,1.89,7.6,6.29s1.12,9.6,1.06,9.82a.5.5,0,0,1-.49.38Zm-8-15.32a14,14,0,0,0,1.08,8.52,14,14,0,0,0,6.52,5.61,14,14,0,0,0-1.09-8.53A14,14,0,0,0,34.09,63.73Z"/><path class="cls-15" d="M37.21,73.05c2.61,1.42,3.51,4.79,3.51,4.79s-3.32,1.05-5.93-.37-3.5-4.79-3.5-4.79S34.61,71.63,37.21,73.05Z"/><path class="cls-15" d="M38,78.72a7.17,7.17,0,0,1-3.48-.81c-2.76-1.51-3.71-5-3.75-5.1a.5.5,0,0,1,.33-.61,10.29,10.29,0,0,1,2.84-.4,7.14,7.14,0,0,1,3.47.81c2.76,1.51,3.71,5,3.75,5.1a.5.5,0,0,1-.33.61A10.27,10.27,0,0,1,38,78.72ZM31.94,73A7.65,7.65,0,0,0,35,77a6.19,6.19,0,0,0,3,.69,9.72,9.72,0,0,0,2-.23,7.64,7.64,0,0,0-3.1-4,6.15,6.15,0,0,0-3-.69A9.68,9.68,0,0,0,31.94,73Z"/><path class="cls-15" d="M48.62,72.15c-1.6,2.5-5,3.17-5,3.17s-.83-3.38.77-5.89,5-3.17,5-3.17S50.21,69.65,48.62,72.15Z"/><path class="cls-15" d="M43.6,75.82a.5.5,0,0,1-.49-.38c0-.15-.86-3.62.83-6.27s5.19-3.37,5.34-3.4a.5.5,0,0,1,.58.37c0,.15.86,3.62-.83,6.27s-5.19,3.37-5.34,3.4ZM49,66.88a7.64,7.64,0,0,0-4.2,2.82,7.63,7.63,0,0,0-.8,5,7.64,7.64,0,0,0,4.2-2.83A7.63,7.63,0,0,0,49,66.88Z"/><path class="cls-9" d="M38,83.74C42.55,92.49,55,114,55,114s-3.18-25.34-4.47-33.91C48.78,68.28,32.67,73.69,38,83.74Z"/><path class="cls-9" d="M55,115a1,1,0,0,1-.86-.5c-.12-.21-12.54-21.59-17.09-30.25-1.51-2.87-1.56-5.74-.16-8.07a8.14,8.14,0,0,1,6.89-3.77c3.19,0,6.9,2,7.74,7.53C52.81,88.38,56,113.58,56,113.83A1,1,0,0,1,55,115ZM43.8,74.37a6.11,6.11,0,0,0-5.17,2.8c-.73,1.21-1.29,3.25.21,6.1,3.28,6.25,10.69,19.16,14.57,25.89-1-7.81-2.92-22.81-3.85-29C49,76.55,46.86,74.37,43.8,74.37Z"/><path class="cls-8" d="M74.25,79.24l-.32-.36-.37.3c-.22.18-5.32,4.41-5.78,10.2s3.93,10.78,4.12,11l.32.36.37-.3c.22-.18,5.33-4.41,5.78-10.21S74.43,79.45,74.25,79.24Z"/><path class="cls-15" d="M72.27,89.21c3.12,4.74,1.62,11.23,1.62,11.23s-6.55-1.2-9.66-5.94-1.62-11.22-1.62-11.22S69.16,84.47,72.27,89.21Z"/><path class="cls-15" d="M74.27,101l-.47-.09c-.28-.05-6.79-1.29-10-6.16s-1.75-11.33-1.68-11.61l.11-.46.47.09c.28.05,6.79,1.29,10,6.15s1.75,11.34,1.69,11.61ZM63,83.88c-.26,1.57-.84,6.58,1.64,10.34s7.31,5.23,8.85,5.61c.26-1.57.84-6.58-1.64-10.35S64.55,84.26,63,83.88Z"/><path class="cls-15" d="M84.33,82l-.2-.43-.44.18c-.26.11-6.39,2.64-8.53,8s.58,11.45.7,11.71l.2.43.44-.18c.26-.11,6.39-2.64,8.53-8.05S84.44,82.24,84.33,82Z"/><path class="cls-15" d="M61,88.25c-2.39-5.86-9.1-8.56-9.39-8.67l-.45-.17-.19.44c-.12.28-3,6.9-.63,12.76s9.1,8.57,9.39,8.68l.44.17.2-.44C60.51,100.73,63.42,94.11,61,88.25Z"/><path class="cls-8" d="M68.23,88.85C67.67,82.54,62,78,61.81,77.8l-.37-.3-.31.36c-.2.23-4.92,5.7-4.36,12s6.18,10.87,6.41,11.06l.37.3.31-.36C64.06,100.64,68.79,95.17,68.23,88.85Z"/><path class="cls-8" d="M62.19,100.29c-.07-.3-1.83-7.31-7.33-10.48A14.62,14.62,0,0,0,47.47,88a20.83,20.83,0,0,0-5.34.68l-.46.13.11.46c.07.3,1.84,7.31,7.32,10.47a14.65,14.65,0,0,0,7.41,1.78,20.78,20.78,0,0,0,5.33-.68l.46-.13Z"/><path class="cls-16" d="M63.42,100.28,61.56,79.37l.31-.39-.75-.66c-.2.23-4.92,5.7-4.36,12s6.18,10.86,6.41,11.05l.62-.78Z"/><line class="cls-13" x1="58.54" y1="61.2" x2="56.82" y2="66.16"/><path class="cls-14" d="M56.82,67.16a1,1,0,0,1-.94-1.33l1.72-5a1,1,0,1,1,1.89.66l-1.72,5A1,1,0,0,1,56.82,67.16Z"/><path class="cls-16" d="M84.26,81.58a.5.5,0,0,0-.54-.09c-.28.12-6.87,3.1-9,9.06s1,12.46,1.17,12.73a.5.5,0,0,0,.45.28h0a.5.5,0,0,0,.44-.33l7.61-21.11A.5.5,0,0,0,84.26,81.58Z"/><path class="cls-17" d="M110.08,91.08a1,1,0,0,0-1.28-.74C99,93.42,87.64,95,74.89,95a182.79,182.79,0,0,1-40.24-4.67,1,1,0,0,0-1.24.81l-9.17,56.33a1,1,0,0,0,1,1.16h96.1a1,1,0,0,0,1-1.21Z"/><path class="cls-5" d="M73.29,119.08A25.66,25.66,0,0,1,47.66,93.45a1,1,0,0,1,2,0,23.63,23.63,0,1,0,47.26,0,1,1,0,0,1,2,0A25.66,25.66,0,0,1,73.29,119.08Z"/><polygon class="cls-5" points="33.35 121.42 30.27 143.98 82.83 144.87 33.35 121.42"/><path class="cls-5" d="M82.83,146.37h0l-52.56-.9a1.5,1.5,0,0,1-1.46-1.7l3.08-22.55A1.5,1.5,0,0,1,34,120.07l49.48,23.45a1.5,1.5,0,0,1-.64,2.86ZM32,142.51l43.93.75-41.35-19.6Z"/><path class="cls-18" d="M167.74,131.21a1,1,0,0,1-.95-.68A23.2,23.2,0,0,1,166,121a1,1,0,0,1,0-.19l1.75-4.94c1.58-4.45-2.27-11.19-2.31-11.26a1,1,0,0,1,1.73-1c.18.31,4.35,7.62,2.46,12.93l-1.71,4.83a21.42,21.42,0,0,0,.74,8.52,1,1,0,0,1-.63,1.27A1,1,0,0,1,167.74,131.21Z"/><path class="cls-18" d="M176.58,136.61a1,1,0,0,1-.95-.68,23.25,23.25,0,0,1-.82-9.53,1,1,0,0,1,0-.19l1.75-4.94c1.57-4.43-2.28-11.19-2.31-11.26a1,1,0,0,1,1.73-1c.18.31,4.35,7.62,2.47,12.93l-1.72,4.84a21.45,21.45,0,0,0,.74,8.52,1,1,0,0,1-.95,1.32Z"/><path class="cls-18" d="M186.15,131.21a1,1,0,0,1-.95-.68,23.24,23.24,0,0,1-.82-9.53,1,1,0,0,1,0-.19l1.75-4.94c1.57-4.43-2.27-11.19-2.31-11.26a1,1,0,0,1,1.73-1c.18.31,4.35,7.62,2.46,12.93l-1.71,4.83a21.44,21.44,0,0,0,.74,8.52,1,1,0,0,1-.95,1.32Z"/><path class="cls-19" d="M164.43,157.43c-8.34,0-9.58-4.4-9.58-7,0-4.35,3.2-7.89,7.14-7.89a1,1,0,0,1,0,2c-2.84,0-5.14,2.64-5.14,5.89s2.55,5,7.58,5a1,1,0,0,1,0,2Z"/><path class="cls-19" d="M193.3,140.05a1,1,0,0,0-1-1H162.4a1,1,0,0,0-1,1.07c.25,3.46,1.79,20.73,7.9,21.09,1.66.1,4.08.15,7.2.15,5.3,0,10.87-.15,10.93-.15a1,1,0,0,0,.48-.13C188.15,161,194,157.39,193.3,140.05Z"/><path class="cls-5" d="M180.9,159.21a9.19,9.19,0,0,1-1.63-.13,1,1,0,0,1,.4-2c.32.06,7.63,1.39,9.52-7.36a1,1,0,1,1,2,.42C189.42,158.18,183.73,159.21,180.9,159.21Z"/><path class="cls-9" d="M149.21,146.18c.27-1.61-4.22-20.36-4.27-20.55-.22-.9-3.09-15-3.29-16l.23-7.27a.5.5,0,0,0-.55-.51l-26,2.6a.5.5,0,0,0-.45.45c-.08.9-1.89,22.1-1.42,25.66.24,1.77-.29,7.15-.75,11.9-.49,5-.91,9.27-.66,10.6a21.73,21.73,0,0,1-.11,4.78c-.2,2.24-.38,4.36.08,5.49.2.49.47,1.15,10.21,1.15h0c10.63,0,26.38-.83,26.54-.84a.5.5,0,0,0,.47-.51C149.15,158.79,149,147.3,149.21,146.18Z"/><path class="cls-20" d="M119.15,113.74a1,1,0,0,1-1-.7L116,106a1,1,0,0,1,.85-1.3l24.45-2.45a1,1,0,0,1,.93.44l4,6a1,1,0,0,1-.7,1.55l-26.26,3.51Zm-.89-7.14,1.59,5,23.83-3.18-2.79-4.12Z"/><polygon class="cls-9" points="116.93 104.77 119.15 111.79 145.41 108.28 141.38 102.33 116.93 104.77"/><path class="cls-9" d="M119.15,112.29a.5.5,0,0,1-.48-.35l-2.22-7a.5.5,0,0,1,.43-.65l24.45-2.44a.5.5,0,0,1,.46.22l4,6a.5.5,0,0,1-.35.78l-26.26,3.51Zm-1.56-7.08,1.91,6,25-3.35-3.41-5Z"/><path class="cls-5" d="M141.41,122.05a1,1,0,0,0-1.12-.72l-18,2.88a1,1,0,0,0-.84,1v20.31a1,1,0,0,0,1,1h.15c7.46,0,20.26-.21,22.15-1.64C146.44,143.61,145.31,135.94,141.41,122.05Z"/><path class="cls-20" d="M132.47,128.47a.5.5,0,0,1-.11-1l6.91-1.56a.5.5,0,0,1,.22,1l-6.91,1.56Z"/><path class="cls-20" d="M134.4,136.7a.5.5,0,0,1-.11-1l6.91-1.56a.5.5,0,0,1,.22,1l-6.91,1.56Z"/><path class="cls-20" d="M130.47,133.38a.5.5,0,0,1-.11-1l10-2.21a.5.5,0,0,1,.22,1l-10,2.21Z"/><path class="cls-21" d="M2.86,147.4s14.63,10.75,27,15.17c5,1.78,19.79,2.35,26.44-1s8.79-12,6.22-15-20-7.88-26.18-8.88-11.07-7.79-18.73-6.89S9,132.87,5.26,134.93c-7.33,4-3.19,8.55-2.4,12.47"/><path class="cls-21" d="M41.88,165h0c-4.94,0-9.77-.58-12.31-1.49-12.41-4.42-26.7-14.86-27.3-15.3a1,1,0,0,1-.39-.61,17,17,0,0,0-.79-2.48C-.09,141.95-1.72,137.6,4.78,134l1.47-.83c2.73-1.57,4.53-2.6,11.28-3.4a13,13,0,0,1,1.51-.09c4.13,0,7.4,2,10.57,3.87,2.35,1.41,4.56,2.74,6.93,3.12,5.62.91,23.8,5.76,26.78,9.21,1.22,1.41,1.6,3.76,1.07,6.45a14.74,14.74,0,0,1-7.59,10.11C52.42,164.67,45.58,165,41.88,165ZM3.76,146.81c2.15,1.54,15.33,10.84,26.49,14.81,2.34.83,6.91,1.37,11.64,1.37h0c6,0,11.09-.84,14-2.3A12.69,12.69,0,0,0,62.42,152c.4-2,.17-3.84-.62-4.75-2.21-2.55-18.94-7.47-25.59-8.54-2.75-.45-5.23-1.94-7.64-3.38-2.93-1.76-6-3.58-9.54-3.58a11,11,0,0,0-1.27.07c-6.34.75-7.91,1.65-10.52,3.14l-1.51.85c-5,2.72-4,5.32-2.78,8.62A22.09,22.09,0,0,1,3.76,146.81Z"/><path class="cls-14" d="M31,136.94s-11.73,4.89-14.86,8.23-3.79,6.4-3.5,7.17,4.14,1,6.77.11,5.26-1.92,6.83-3.58,9.5-7.39,11.22-9.51l-6.14-2.4"/><path class="cls-14" d="M15.47,154c-1.79,0-3.42-.36-3.79-1.32-.47-1.23.39-4.69,3.7-8.22s14.71-8.26,15.2-8.46a1,1,0,0,1,.57-.06,1,1,0,0,1,.51.06l6.14,2.4a1,1,0,0,1,.41,1.56,60,60,0,0,1-6.84,5.88c-2,1.55-3.81,3-4.43,3.68-1.71,1.82-4.49,2.93-7.24,3.85A14.4,14.4,0,0,1,15.47,154Zm-1.92-2.21a11.29,11.29,0,0,0,5.51-.31c2.5-.84,5-1.82,6.41-3.32a59.6,59.6,0,0,1,4.65-3.88c1.9-1.51,4.16-3.3,5.54-4.57L31.14,138c-1.62.69-11.57,5-14.29,7.89C14.28,148.58,13.59,151,13.56,151.81Z"/><path class="cls-14" d="M43.6,141s-15,13.3-15.92,14.51,3.21,1.28,6.76.11,7.92-4.8,9-5.24,7.75-3.88,9-6.16Z"/><path class="cls-14" d="M29.53,157.42h0c-1.59,0-2.5-.33-2.85-1.05a1.39,1.39,0,0,1,.21-1.51c1-1.25,14.5-13.28,16-14.65a1,1,0,0,1,1-.19l8.87,3.21a1,1,0,0,1,.53,1.42c-1.51,2.73-8.74,6.29-9.51,6.61a18.64,18.64,0,0,0-1.8,1.17,32.47,32.47,0,0,1-7.27,4.1A17.7,17.7,0,0,1,29.53,157.42Zm-.4-2h.4a15.84,15.84,0,0,0,4.61-.79,31,31,0,0,0,6.77-3.85,14.9,14.9,0,0,1,2.18-1.37,36.39,36.39,0,0,0,7.72-4.78l-7-2.53C38.79,146.57,31.4,153.21,29.12,155.41Z"/><path class="cls-14" d="M58,146.21s-6.39,5.13-8.43,8-2.22,4-2.23,4.89.1,3.23,4,1,6.2-3.13,8.08-5.56,3.34-6.56,3.19-6.87Z"/><path class="cls-14" d="M48.75,162.05h0a2.21,2.21,0,0,1-1.63-.64,3.14,3.14,0,0,1-.73-2.32c0-1.31.42-2.63,2.41-5.45,2.1-3,8.36-8,8.62-8.22a1,1,0,0,1,.93-.17l4.59,1.46a1,1,0,0,1,.59.51c.54,1.09-1.75,5.94-3.29,7.93s-3.47,3.09-6.05,4.51c-.71.39-1.48.81-2.32,1.3A6.59,6.59,0,0,1,48.75,162.05Zm9.52-14.73c-1.43,1.18-6.18,5.15-7.83,7.48-2,2.86-2,3.74-2,4.32s.11.84.15.88.73.15,2.33-.78c.86-.5,1.64-.93,2.36-1.32,2.46-1.36,4.09-2.25,5.44-4a21.14,21.14,0,0,0,2.82-5.58Z"/><path class="cls-14" d="M19,130s-7.19,3.72-9.72,6.17a8.77,8.77,0,0,0-2.42,6.19c0,.25,18.88-6.37,18.89-8.5S19,130,19,130Z"/><path class="cls-14" d="M6.83,143.42h0a1,1,0,0,1-.73-.3,1,1,0,0,1-.29-.72,9.63,9.63,0,0,1,2.73-6.9c2.61-2.53,9.66-6.19,10-6.34a1,1,0,0,1,.71-.08c2.26.58,7.53,2.21,7.5,4.84,0,.8,0,2-9.82,6C13.42,141.27,7.55,143.42,6.83,143.42Zm12.25-12.31c-1.44.76-7.05,3.79-9.15,5.82a7.25,7.25,0,0,0-2,4.15c4-1.29,15.4-5.7,16.77-7.31C24.39,133.15,22,131.9,19.07,131.11Z"/><path class="cls-7" d="M118.31,132.3c-1.44-1.8-8.85-2.27-12.57-2.27-4.05,0-9.15.41-10.4,2.35-1.93,3-5.29,27.76-2.93,31.47,1,1.63,4.5,2.46,10.31,2.46h0c5.75,0,13.64-.94,17-2.67,1.12-.59,1.87-1.85,2.3-3.88C123.6,152,119.87,134.25,118.31,132.3Z"/><path class="cls-7" d="M111.17,123.09a1,1,0,0,0-.74-.27l-8.88.43a1,1,0,0,0-.94,1.12c.35,2.81.73,6,.73,6.39,0,1.25,1.51,1.25,3.11,1.25,2.42,0,5.95-.24,6.1-.25a1,1,0,0,0,.93-1v-6.94A1,1,0,0,0,111.17,123.09Z"/><circle class="cls-5" cx="106.04" cy="126.06" r="1.23"/><path class="cls-5" d="M115,137.57c-1.26-1.57-7.76-1.62-8.5-1.62-4,0-6.37.57-7.1,1.7-1.4,2.18-3.52,18.44-1.92,21,.28.44,1.12,1.77,7,1.77,3.8,0,9-.63,11.26-1.79a3.74,3.74,0,0,0,1.68-2.78C118.47,150.91,116.24,139.16,115,137.57Z"/></g></g></svg>