<svg xmlns="http://www.w3.org/2000/svg" viewBox="0 0 179.91 241.1"><defs><style>.cls-1{fill:#55bcc3;}.cls-2{fill:#ffd4ba;}.cls-3{fill:#913d88;}.cls-4{fill:#64b9ea;}.cls-5{fill:#fff;}.cls-6,.cls-8{fill:#2d2e83;}.cls-6{stroke:#2d2e83;stroke-width:2px;}.cls-6,.cls-7{stroke-linecap:round;stroke-linejoin:round;}.cls-7{fill:none;stroke:#be1622;}.cls-9{fill:#a48a7b;}</style></defs><title>ambassadeur</title><g id="Calque_2" data-name="Calque 2"><g id="Calque_1-2" data-name="Calque 1"><path class="cls-1" d="M160.32,84.71c-1.86-16.62-10.68-19.4-11.06-19.5l-.22-.06-4.45,7.35L160.4,85.43Z"/><path class="cls-1" d="M153.11,91.58c-.4-4-1.77-6.53-4.07-7.6-4-1.89-9.55,1.45-10.54,2.09-16.8-8.48-30.05-16.35-30.18-16.43l-.07,0h-.08a76.49,76.49,0,0,0-16.64,1.67,10,10,0,0,0-1.79.36,12.62,12.62,0,0,0-1.17-6.73,3.8,3.8,0,0,0-3.34-2.23,4.89,4.89,0,0,0-1.89.42A34.39,34.39,0,0,0,72.44,73.49a.3.3,0,0,0,0,.28.29.29,0,0,0,.22.17,96,96,0,0,0,10.13,1.19c-11,7.27-24.24,22.26-24.95,23.07-13.3,13.78-25.08,19.54-35,17.1C9.38,112,4.06,94.32,4,94.14L4,94,3.84,94a.58.58,0,0,0-.52,0C1.86,94.81.38,104.47.1,106.42c-1.45,20,14.21,41.24,14.38,41.47,8.29,9.54,26.12,18.67,26.27,18.74,7.4,5.17,7.08,19.76,7.08,19.9-.81,14.57,6.57,17.67,8.68,18.25l0,0c8,4.38,24.37,3.23,25.1,3.17,15.84-2.84,26.48-2,27.25-2,4.07,1.73,3.24,7.4,2.74,10.79-.26,1.79-.33,2.42,0,2.68a.44.44,0,0,0,.25.08.66.66,0,0,0,.31-.09c1.85-1,13.82-19.23,14.74-21.07s15.29-19.66,15.92-20.45a19.64,19.64,0,0,0,4-4.82,33.71,33.71,0,0,0,4.68-15.63,15.63,15.63,0,0,1,1.61-3.47c2.93-5.5,8.4-15.73,5.25-25.62C153,111.58,153.11,91.81,153.11,91.58Z"/><path class="cls-2" d="M142.41,94l-10-26.59a.29.29,0,0,0-.27-.19L105,66.46a.31.31,0,0,0-.3.25l-3.52,23.61a.29.29,0,0,0,.26.33l40.66,3.76h0a.29.29,0,0,0,.27-.4Z"/><path class="cls-3" d="M164.79,91.54c-4.63-8.56-10.18-16.36-12.12-17a.29.29,0,0,0-.2,0L122.39,86.38,82.82,70.2a.27.27,0,0,0-.12,0c-.29,0-7.16.23-14.53,7-12.25,11.34-15.92,31.92-16.84,47.19a.3.3,0,0,0,0,.17,43.33,43.33,0,0,0,8.71,9.24,59,59,0,0,0,28,12.29c.69.92,6,7.77,13.38,7.77a11.79,11.79,0,0,0,1.2-.06c-.45.63-.93,1.27-1.45,1.9-11.06,13.5-5.84,32.19-5.36,33.79-.52,1.2-5.39,12.64-4.28,21.17,1.28,9.84.54,17.82-1.85,19.88l-.05.05c-.15.21-3.56,5.16-2.12,7.91.6,1.14,1.92,1.72,3.93,1.72A24.48,24.48,0,0,0,98.2,239c.41,0,2.6-.47,3.36-7,.66-.6,4.37-4.36,1.36-11.1,0-.06-2.18-6,.91-11,.15-.2,3.7-5,3.8-16.44l-.09-3.51c.86-1,9.19-11.27,12.32-20.47-.29,5.13-.55,15.68,1.83,19-1.36,1.17-7.67,7.62-3.13,24a37.57,37.57,0,0,1-1.9,10.28,4.25,4.25,0,0,0,.15,3.72c1.23,1.89,4.49,2.38,9.63,1.45a21.5,21.5,0,0,0,9.06,2.54,7.67,7.67,0,0,0,6-2.43.29.29,0,0,0,.05-.31c-.05-.13-1.39-3.12-7.58-5.29-5.5-1.93-6.87-3-7.16-3.25l6.3-25.61,2.35-5.59c.35-1.07,8.55-26.21,4.52-37.55l.4-2.31a17.67,17.67,0,0,0,1.9.17c.07,0,7.42-.37,9.51-7,.73-2.34,4-3.8,7.74-5.49,6.36-2.86,14.28-6.42,14.47-16.29C174.17,110.29,168.3,98,164.79,91.54Zm-62,42c-2.75,0-6.72.28-9.27,1.9-1.61-2.08-13.18-17-17.18-20.42,2.35-.26,6.93-1.4,8.49-4.59,1.74,3.33,10.57,19.73,17.7,22.87Zm40.16-.05c.44-.82,5.49-10.37,5.39-17.42l2-1.11,2.63,1.36a58.18,58.18,0,0,0-4.61,14.24,17.64,17.64,0,0,1-5.46,3.5Z"/><path class="cls-4" d="M140.74,148.21a.29.29,0,0,0-.26-.17l-36.8-.88a.34.34,0,0,0-.22.09.29.29,0,0,0-.08.22l.15,4.25a.29.29,0,0,0,.17.26c.12.06,12.26,5.63,16.28,14.52a.29.29,0,0,0,.12.13,4.51,4.51,0,0,0,2.12.49c1.37,0,3.44-.55,5.59-3.2,3.77-4.64,12.81-15.28,12.9-15.39A.29.29,0,0,0,140.74,148.21Z"/><path class="cls-5" d="M140.71,142.2a.59.59,0,0,0-.51-.32.57.57,0,0,0-.49.25c-.25.17-1.67.67-9.7.67h0c-10.89,0-26.87-.9-27-.91a.57.57,0,0,0-.44.16.58.58,0,0,0-.18.43v6.6a.59.59,0,0,0,.5.58c.18,0,18.46,2.67,28.94,2.67,3.71,0,6-.33,7.09-1C142.72,148.89,141.75,144.29,140.71,142.2Z"/><path class="cls-6" d="M94.53,134"/><path class="cls-7" d="M119.95,188.21"/><path class="cls-5" d="M134.54,122.79h0m-.05-.29h0m4.08-2.7h0m-22.14-19.17h0M121.72,99h0m6,30.1c-.09,0-.12-.06,0-.16,0,0,0,.09.1.1h.13l.18-.05a.79.79,0,0,1-.37.11h0m-3.89-.42c.2-.07.29,0,.32,0H124a.37.37,0,0,1-.16,0m2.69-.25h0Zm1.8-.25.14,0-.07,0-.25.13a1.43,1.43,0,0,1-.41.12s0,0,0,.08a.59.59,0,0,1-.46-.08l1-.25m2.77-1.32c.15.18-.65.09-.79.44,0,0,0,0,0,0a3.84,3.84,0,0,1,.67-.17,4.37,4.37,0,0,0,.62-.16l.13-.05a1.59,1.59,0,0,0-.41.39h0l0,0c0,.06-.27.21-.27.2a2,2,0,0,1-.42.26,2,2,0,0,0-.66.47.57.57,0,0,0-.27,0,.5.5,0,0,1-.28,0c0,.15,0,.21-.23.39a2.23,2.23,0,0,0-.35.1l-.4.12c-.26.07-.48.09-.49,0s.16-.15.28-.15.22,0,.2-.17-.15,0-.27.06-.37.13-.19-.05c.36-.17.73-.28,1.08-.42a2.22,2.22,0,0,0,.92-.61,5.78,5.78,0,0,1-.64.3,7.79,7.79,0,0,1-.91.29l.05,0,.12-.07.22-.12.19-.09c.12,0,.21,0,.27,0l.1-.25h.19a.66.66,0,0,0,.44-.11c.18-.2-.09-.11,0-.21h0c.21,0,.7-.41,1.06-.44m1.75-.5.32-.28.06-.05s0,.08,0,.1.13.09-.19.29Zm.63-.56-.1.09-.1.09-.06.05a.82.82,0,0,1,.25-.24m-1.47,1,.25-.13-.2-.07.26,0c-.07-.17.05-.26.23-.36a1.27,1.27,0,0,0,.51-.45l-.14.3-.14.31h-.3c-.16.17,0,.21.13.16l-.34.15h0l-.16.12-.16.09-.18.08.25-.16m2.17-1.22,0,0s.05,0,0,0m-2.36.27a.81.81,0,0,0,.35-.1,2.29,2.29,0,0,0,.34-.24,7.85,7.85,0,0,1,.67-.54v-.16a1,1,0,0,1,.35-.27,1.17,1.17,0,0,0,.18-.12.3.3,0,0,0,.1-.15.25.25,0,0,1,0,.21.39.39,0,0,1-.16.09.82.82,0,0,0-.22.11.62.62,0,0,0-.11.11.84.84,0,0,0-.1.17.49.49,0,0,0,.2-.17,1.4,1.4,0,0,1-.35.43l-.22.22a1.05,1.05,0,0,0-.18.23.23.23,0,0,1-.13,0,.24.24,0,0,0-.2,0s0,.07,0,.12a.37.37,0,0,0-.06.15.49.49,0,0,1-.22.09c-.12,0-.08-.18-.19-.23m2.27-.81.08-.07h0a.67.67,0,0,1,.26-.23l.17-.17.13-.16.14-.21,0,.28a1,1,0,0,1-.14.15l-.1.08a.21.21,0,0,1-.14,0h-.1l-.07.07-.12.11-.05.05c.45.11-.14.28,0,.56-.09,0-.3.17-.37.13a.15.15,0,0,1,0-.13l.13-.14c.1-.1.2-.21.2-.32l-.38.32a3.09,3.09,0,0,1,.3-.35m-22.13-.57c.08,0,0-.14-.12-.3.16.13.28.32.19.32l-.08,0m22.55-.94.11-.13.15-.2.16-.09-.23.24-.16.16-.08.07,0-.06m1.38-.62s-.07.27-.17.46-.23.34-.19.28.06-.17,0-.14-.17.07,0-.15h0c.17,0,.24-.38.34-.46m-.69-.43a.5.5,0,0,0,.09-.11l0-.11a.33.33,0,0,1,.17-.2.7.7,0,0,0-.06.7l-.15-.07-.08.19Zm.62,1a.87.87,0,0,1,.25-.29l0,0c-.1,0-.13-.08-.13-.16a.87.87,0,0,1,.13-.3,2.84,2.84,0,0,0,.37-.79,1.91,1.91,0,0,1,0,.28c0,.09,0,.18-.05.27s-.07.28-.07.28l0-.05a.69.69,0,0,1-.06.2c0,.08-.09.17-.15.27h0l0,0h0l-.22.35-.23.33c.08-.16.14-.29.2-.4m.47-2.26s0,0-.05-.07,0,0,.05.07m-.64.74a.91.91,0,0,1,0-.14l.05-.16A7,7,0,0,1,136,121c.12-.09.14,0,.17.14s-.06,0-.1.08-.15.2-.2.24,0,.22,0,.33-.07.24-.27.39a.34.34,0,0,1,0-.23m-26.33-1.71,0,0a.61.61,0,0,1-.12-.24l0,.09.08.15a0,0,0,0,0,.07,0s.08-.07.18.19l-.06.14-.16-.28m-.65-1.26a2.83,2.83,0,0,0-.2-.51l.18.09c.13.33,0,.32,0,.42l.09.25c.11-.16.14-.06.2.05s.08.13.16.13,0,0,0,0h0s0,.05,0,.08,0,.18,0,.21-.1-.1-.15-.2-.09-.21-.16-.24l.06.18,0,.13,0,.05a2.3,2.3,0,0,1-.19-.4h0a.61.61,0,0,1-.09-.26m-.27-1.7v0c.05.19.12.41.18.59a1,1,0,0,1-.18-.59h0m-.16.41c.11-.08-.08-.34-.08-.46s.11.18.16.34.11.3.08.25-.07-.13-.09-.06,0,.07,0,.07,0,0-.05-.14m-.08-.65c0-.05,0-.11,0-.16l0-.17a1.67,1.67,0,0,0-.1-.32,3.47,3.47,0,0,1,.21.37l.07.14,0,.05,0,0a1.16,1.16,0,0,1,.14.36l-.07,0c-.08,0-.12-.12-.17-.27m-.28-.85v0l0,0m5.39-13.13h0l0,0m.29-.24.12-.06-.11.08v0m.35-.34h0m.26-.32.14,0c0,.09-.13.12-.24.15l.11-.12m.19,0a1,1,0,0,0,.25-.23l0,0a.15.15,0,0,0-.08.07h.05l0,0c0,.09-.25.06-.16.15l0,0h-.06s0,0,0,0m1.32-.76h0l0,0,.05,0m0-.13c-.07,0,0,0-.06,0h0s.07,0,.07,0m.06-.12-.11,0h.07l-.18,0c.07-.08.19-.09.22-.05m0,0h0l.09,0,.09,0-.08,0-.08,0,0,0Zm.37-.1a.35.35,0,0,1,.2,0l-.07,0a.08.08,0,0,1-.05-.06c-.08,0,0,0-.08.07Zm2.25-1s.07,0,.09,0h0s0,0-.06,0h-.07m.16-.1c.07,0,.24-.12.21,0s-.09,0-.14,0l-.07,0h0m.09-.15.05,0-.07,0Zm1.09,0h-.06c-.06,0-.12,0-.08,0l0,0h-.06c.09-.08.19,0,.24,0m.72-.08a.05.05,0,0,1,.06,0l-.11,0h0m.14-.13a0,0,0,0,0,0,0l0,0s.07,0,.08,0-.15,0-.11,0-.06-.05,0-.09l-.05,0s.06,0,.08,0m2.08-.15a.09.09,0,0,1,.1,0h-.1m-1.23-.21s.07,0,.11,0h0c0,.05,0,0-.06.07s0,0-.1,0Zm-.15,0c-.07,0-.16,0-.17.06s.13-.11.17-.06m.92-.08s.05,0,.1,0h.08s0,0,0,0Zm1.21,0s-.07-.08-.09-.1.07.06.13,0,0,0,0,0h.08c.08.06,0,.07-.08.09l0,0s0,0,0,0l0,0v0a0,0,0,0,1,0,0h.06m1-.13c-.11,0-.08-.06-.18,0l0,0s0,0,0,0,0,0,0,0-.14,0-.16,0,0,.07-.07.07-.21,0-.29-.07l0,0a.28.28,0,0,1-.23,0v0a.28.28,0,0,0-.12,0,.13.13,0,0,1-.18-.05v0c-.06,0-.14,0-.19,0a0,0,0,0,1,0,0s-.09,0-.17,0,0,.08.09.1-.1,0-.13,0a.1.1,0,0,0-.09,0c-.06,0,.06,0,.07.06a.35.35,0,0,0-.19,0c-.09,0-.17.07-.23,0l0,0,0,0c-.06,0-.1,0-.09,0s0,0,0,0a.33.33,0,0,1-.24,0,.42.42,0,0,0-.25,0s0,0,0,0-.06,0-.09,0a.11.11,0,0,0-.14,0l0,0a.07.07,0,0,1-.08,0c0,.1-.3,0-.38.18a.42.42,0,0,0-.34,0c-.08.08.08.06.07.13H121a.22.22,0,0,0-.13,0c0-.06.18-.15,0-.16l0,0,.07,0c.06,0,0,0,0,.06h-.21c0-.06.1-.07.11-.09-.16,0-.34.17-.49.16l0,0c-.09,0-.11,0-.13,0s0,.07-.13,0,0,.06-.08.09,0,0,0,0c-.15,0,0,.07-.2.05l0,.06c-.17,0-.37-.08-.5,0l0,0h0s.09,0,.13,0c-.21,0-.45.12-.63.13,0-.06-.11-.07,0-.14s.08,0,.15,0-.17,0-.25,0-.16.1-.2,0v.06s-.11,0-.07,0l-.17.1c.08,0,.25.05.27,0s-.06.06,0,.11c-.15,0-.06.06-.2.09,0-.09-.16,0-.17-.09a.31.31,0,0,1-.19,0,2.49,2.49,0,0,1-.35.17c.05,0,.14,0,.15.05s-.13,0-.12.08c.24,0,0-.15.23-.16a.28.28,0,0,0,.23,0c0,.05,0,.06,0,.11-.17-.08-.31.11-.49.11s-.06-.11-.22-.06l.11-.09c-.08.05-.08,0-.09,0s0,0-.08,0l.06,0a.17.17,0,0,1-.15,0l.09,0s-.1.06-.12,0a.08.08,0,0,0,0,0s0,0-.08,0,0,0,.05,0c-.17.06,0,.08-.11.12s0,0,0,.07-.12-.06-.2,0a.33.33,0,0,1-.13,0h-.16s0,0,0,.07h0s.1.08,0,.12h-.08s0,0,0,0h-.08c-.06.14-.23.05-.33.17s.09,0,.08,0a.1.1,0,0,1-.09,0h0l-.13,0-.13,0h.07s.08,0,.06,0-.11.05-.15.08.06-.09,0-.06-.06.09,0,.09a1.54,1.54,0,0,1-.32.07s0,0,0,0h0s0,0,.08,0-.12.1-.2.16h.16c-.15.24-.52.3-.73.45,0-.07.11-.08.06-.13a1.8,1.8,0,0,0-.26.13h0c0,.07-.18.08-.18.17s0,0,.05,0,0,0,.07,0l-.17.11c.08,0,.17-.11.23-.14s0,0,0,0-.07,0-.08,0a.38.38,0,0,1,.33-.07c.08,0,0,.09-.06.11a.6.6,0,0,0-.44.2l0,.11a.15.15,0,0,1-.09,0l.13-.16-.1.06a4.74,4.74,0,0,0-.74.52h.16l0,0-.12.07s0,0,.05,0-.18.17-.28.25l-.35.27-.05,0h0l-.06,0-.24.17-.22.19-.18.16h0a.7.7,0,0,1-.1.12l0,0-.1.11,0-.08a.29.29,0,0,0-.15.18l0,.06a.8.8,0,0,1,.19-.37c-.22.14-.5.31-.57.55.2-.24.15-.07.15,0a6.93,6.93,0,0,1-.45.58l-.25.33c-.08.12-.16.25-.24.37s0,0,0,0l0,.09-.09.19-.09.19,0,.09a1.39,1.39,0,0,1-.44.4c0,.1-.16.33,0,.28a.49.49,0,0,0,.08-.13.35.35,0,0,1-.09.26.57.57,0,0,0-.14.29c0-.19-.06-.15-.14-.1s-.11.06-.14,0c-.09.29,0,.25.1.21s.09,0,.1,0-.13.2-.19.28l-.15.2c0,.07-.09.13-.14.21s-.09.18-.14.3.18-.35.28-.36a.71.71,0,0,0-.11.35l.08-.15.06-.1,0,0a4.47,4.47,0,0,0-.57,1.64l0,0,0,.19,0,.19-.11-.17c0,.22-.18.42-.09.55l0-.08v.27l-.08-.3a1.47,1.47,0,0,0,0,.61c0,.12,0,.24,0,.37a2.16,2.16,0,0,1,0,.4c-.1,0-.09-.19-.08-.46s0-.56-.08-.61a1.19,1.19,0,0,0-.11.61c.06,0,.09-.15.11-.28a4.18,4.18,0,0,1-.07.84,2.86,2.86,0,0,0,0,.4.66.66,0,0,0,.07.31l0-.18,0-.12,0-.06a1.58,1.58,0,0,1-.12.52c0,.12-.08.21,0,.28l-.2-.32a2.45,2.45,0,0,1,0,.35c0,.12,0,.25,0,.37a3.78,3.78,0,0,0,.08.69s.05,0,.05-.09,0-.13,0-.2a1.79,1.79,0,0,1,0-.27l.09.19,0,.19a.62.62,0,0,1,0,.12c0,.06,0,.09,0,.12a2.17,2.17,0,0,0-.07.53h.09c-.12.27.21.92-.06.69l0-.21-.11,0s0,.06,0,.14,0,.09,0,.14l0,.16.1.43s-.05.05-.06.14,0,.16-.07.12l.16.3c-.12.18-.3-.56-.41-.58s0,.18,0,.25a.73.73,0,0,1,0-.5,1.64,1.64,0,0,0,.07-.51l-.11-.19h.14a.73.73,0,0,0-.21-.35,1.12,1.12,0,0,0,0-.64c0-.06,0-.11,0-.18s0-.12,0-.19a2.71,2.71,0,0,1,0-.42c0,.3.08.13.11,0s0-.23.06-.19a4.62,4.62,0,0,0-.06-.61.8.8,0,0,1,.08-.57c0-.07,0,0,.06,0s0,.14.07-.07,0-.42-.12-.27a10.57,10.57,0,0,1,.29-1.77l.06.16a1.48,1.48,0,0,0,.08-.26,1.23,1.23,0,0,0,0-.25,1.81,1.81,0,0,0,0-.42c.05,0,0-.08.07,0a.91.91,0,0,0,.14-.57,1.81,1.81,0,0,1,0-.34,1.5,1.5,0,0,1,.14-.46c-.07,0-.14.07-.2.19a1.2,1.2,0,0,0-.11.39l-.12-.11a7.26,7.26,0,0,0-.43,2l-.05-.27c-.15.21-.12.31-.09.4s.06.18-.1.38c0,.17,0,.11.06,0s.07-.14.08,0-.09.1-.14.09-.14,0-.18.21,0,.15,0,.22c.1-.16.12-.11.13-.06s0,.12.14-.17a.55.55,0,0,1-.13.43l-.08.14a3.52,3.52,0,0,1,0,.54s0,0,.07,0l0-.2,0-.14a.3.3,0,0,1,0-.06c0,.16,0,.32-.06.49s0,.33,0,.48,0,.29,0,.42,0,.15,0,.22h0c0,.11,0,.21,0,.32l.06-.35s0,.27,0,.53,0,.26,0,.36,0,.17,0,.17l-.08-.31c0-.08,0-.16,0-.21v0c0,.18,0,.37,0,.56v.1c0,.11,0,.22,0,.32a2.89,2.89,0,0,1,.06-.38c0,.12,0,.23,0,.34s0,.07,0,.11c0-.19,0-.32.08-.36a8.85,8.85,0,0,0,.08,1.32l0,.36,0,.18,0,.17c0,.23.09.45.14.67l.27,1.18a2.19,2.19,0,0,1,.07.75c.07,0,.05-.18,0-.34a1,1,0,0,1,0-.42c.1.29.17.56.24.82l.1.39.05.19,0,.09,0,.08a2.92,2.92,0,0,0,.71,1.26c-.09,0-.12,0-.12,0s0,.13,0,.24l.45.72.1.15a.61.61,0,0,1-.06-.2c.06,0,.08.08.12.24a1.43,1.43,0,0,0,.05.16l.13.21.06,0,0,0,0-.1a2.82,2.82,0,0,1-.13-.43,4.67,4.67,0,0,0-.14-.49l0-.12a2.84,2.84,0,0,1-.2-.4l-.05.14,0-.2c-.12,0-.19-.08-.24-.23a1.28,1.28,0,0,0-.27-.47l.06.05.14.11.19.17,0,.22c.07.09.11.09.12.05a.29.29,0,0,0,0-.13,2.07,2.07,0,0,0,.1.28h0a2.79,2.79,0,0,1,.15.27l.05.13h0a1.48,1.48,0,0,0,.3.37v0l0,0s.06,0,.09.1l.06.12.06.08a2.82,2.82,0,0,1,.16.25,1.47,1.47,0,0,0,.4.5c0,.1.11.31.09.41h0c.08,0,.13,0,.28.14a1.56,1.56,0,0,0,.14.24l.19.26c.12.18.21.32.15.36s-.15-.08-.18-.15-.07-.18-.19-.14.45.5.15.34a3.45,3.45,0,0,1-.33-.37l-.07-.1-.07-.1-.13-.2a3.3,3.3,0,0,0-.6-.7c.11.17.22.33.32.5l.25.4.12.2.06.1.21.21a1.89,1.89,0,0,1,.23.3s0,0,0,0a.59.59,0,0,1,.14.35h0a1.87,1.87,0,0,1,.31.24l.2.24.08.06a.48.48,0,0,0,.24.25.54.54,0,0,0,.21,0s0,0,0,0h0a3,3,0,0,0-.33-.36c-.13-.13-.26-.2-.34-.13l-.09-.18-.06-.12,0-.06c-.11-.09,0-.25,0-.31.17.2.52.23.33-.06.25.21.13.26,0,.3s-.25.07,0,.25l.14-.05s0,.1.09.19a1,1,0,0,0,.31.26l0-.08A12.9,12.9,0,0,0,115,127a17.64,17.64,0,0,0,2.48,1.22.57.57,0,0,0,.16.21h0a2.37,2.37,0,0,1,.58-.17c.23,0,.5-.07.82-.09.06.06-.08.05-.2.05s-.22,0-.07.16a4.17,4.17,0,0,0,2,.51c.78,0,1.61,0,2.34.08a2.93,2.93,0,0,0,.44.09l.41,0a.17.17,0,0,0,0-.11c.2,0,.45-.06.71-.1a3.89,3.89,0,0,1,.72-.06c.1-.06.15-.22,0-.15a1.15,1.15,0,0,1,.39-.09,2.06,2.06,0,0,1,.36,0h.31a.48.48,0,0,0,.25-.08c-.15,0-.09-.06,0-.11s0,0,0-.06,0,0-.12,0l.19,0h.16a.8.8,0,0,1,.26.11l.09,0a6.29,6.29,0,0,0-.86.27.47.47,0,0,0-.38,0,.55.55,0,0,0-.18.19h0l-.06,0,0,0a2.25,2.25,0,0,0,.57,0c.2,0,.36-.14.32-.3h.07l.16,0,.23,0c.14-.06.25.25.34.27a.56.56,0,0,0-.21.1.47.47,0,0,0-.12.16.13.13,0,0,0,.07.18c.28,0,.5-.11.52-.2a16.48,16.48,0,0,0,2-.62l.45-.18.22-.1.22-.11a8.16,8.16,0,0,0,.84-.49.63.63,0,0,0,.34-.09l.24-.13.27-.17c.37-.25.77-.57,1.06-.77s.56-.22.94-.51a5.86,5.86,0,0,0,.66-.62l.74-.81.34-.37.26-.33c.15-.21.29-.39.41-.58l.39-.6.45-.73c.07,0-.17.38-.06.38.21-.39.09-.47.25-.83a.94.94,0,0,0,.2-.28c.07-.12.13-.26.19-.39s.21-.43.25-.24c.23-.5.07-.57.13-.9h0a3.13,3.13,0,0,0-.1.46c0-.08,0-.06-.08-.05l-.13.29a.26.26,0,0,0,0,.16c-.06.18-.15.16-.22.23l-.09.2a.5.5,0,0,1,0-.14l0-.06.17-.4a.71.71,0,0,1,.09-.28h0l.18-.41h0v0l-.43-.14-.08.15-.15.28.13.06a1.45,1.45,0,0,0-.3.67c-.07.22-.11.36-.21.13l.19-.23-.17,0-.05.18c0,.11-.08.25-.13.39l-.21.56c0-.08-.1,0-.17.1s-.15.16-.19.06l-.08.46c-.15,0-.12-.18-.06-.42s.06-.24.08-.34,0-.18,0-.21-.18.15-.21.24,0,0,0,0,0,0,0,0a.81.81,0,0,1,.12-.32,1.09,1.09,0,0,1,.21-.23,1.38,1.38,0,0,0,.43-.51l0-.29.19.09a.9.9,0,0,0-.07-.53.86.86,0,0,0,.24-.33l0-.1-.37-.12-.07.15-.1.19-.18.38-.18.4-.09.22,0,.11,0,.12c0-.18,0-.27,0-.3s-.07,0-.11,0-.2.11-.2-.18c.15.08.22-.1.27-.3s0-.2.07-.28.06-.13.11-.13l0,.2c0,.1,0,.2,0,.2a1.07,1.07,0,0,0,.24-.52,1.81,1.81,0,0,1,.13-.38l-.47-.14a.61.61,0,0,1-.15.44c0-.08.07-.2,0-.26,0,.11-.2.28-.13.38h0c0,.21-.13.23,0,.4-.15,0,0-.14-.12-.23l0,.08,0,.08s0-.15-.12-.06.27.09.16.35a.74.74,0,0,0-.37.22l.05.17,0,0s0,0,.06,0,.06,0,0,.05c-.08-.11-.19,0-.27.12s.11.11,0,.18c0,0,.06-.1,0-.09a.8.8,0,0,1-.22.37c-.09.11-.17.22-.14.32l0-.06,0-.06c0,.07.26.06.09.21a.11.11,0,0,1-.1,0s-.09-.06-.16,0c.07-.09,0-.15,0-.24-.12.24-.09.49-.28.7h.08c-.13,0-.12.3-.25.32,0,0,0,.15.1.18l0-.14c.07,0,0,.29-.09.25s0,0,.06,0,0,.17-.12.16c.08-.11-.05-.12-.14,0,.09-.08.16-.19.11-.23-.06.11-.08-.05-.12-.08s0,.15,0,.23h0c0,.06-.1.14-.13.23v0s-.15.18-.18.07c-.11.09-.05.14,0,.21l0,0s-.05.12,0,.13.1-.07.15-.08.1.16-.11.19l0-.14c-.08.1-.12.08-.18.07a.12.12,0,0,0-.12,0,.14.14,0,0,0,0,.06l-.24,0a.7.7,0,0,0,.08-.17c0,.06.08,0,.14,0-.09-.09.07-.33.11-.51h.06a.08.08,0,0,0,.11,0c0-.06,0-.06,0-.06s0,0-.05,0,.13-.06.16-.1,0,0,0,0,0-.23.09-.35.24-.25.23-.4c.07,0-.07.24.06.26s0-.1.08-.16.05-.1,0-.12c.11-.22.2-.52.42-.55-.16-.08.12-.29.14-.47.13.12.1-.13.17-.19l0,.1a5.18,5.18,0,0,1,.56-1c0,.07.06.09.12,0s-.08-.06-.12-.1l.13-.06c-.17,0,.05-.15,0-.22s.25-.14.27-.27v0c.06,0,.07-.07.13-.12s0,0-.07,0v0a20.8,20.8,0,0,0-4.4-.53,10.12,10.12,0,0,0-3.95,1.2,17.73,17.73,0,0,1-5.31.87c-1-.11-1-.49-1.16-1s0-.47-.39-.69a1.54,1.54,0,0,1-1-1.16c-.08-.64.22-.73-.34-1s-.43-.56-.26-1.16.17-.43,0-.86a5.13,5.13,0,0,1-.39-1.29c-.13-.69,1-1,1.89-1.24a5.19,5.19,0,0,0,2-1c.3-.26-.17-.52-1-1.2a3.46,3.46,0,0,1-1.07-2.83A1.34,1.34,0,0,1,122.2,106c.26.09,0,.64.56,1.46a7.15,7.15,0,0,0,2.92,2.4,8.11,8.11,0,0,1,2.66,2.19c.64.69,2,.34,4.46.17a10.68,10.68,0,0,0,2.7-.72c-.07-.13-.14-.26,0-.37-.16,0-.12-.19-.22-.29.16,0,0-.1,0-.17l.08,0A2.71,2.71,0,0,1,135,110s.1,0,.08-.05-.09,0-.14,0l.05-.09c-.1.09-.07-.09-.15-.1s.06-.18,0-.26h0c.06,0,0-.07,0-.11s0,0,0,0a1.44,1.44,0,0,1-.27-.46,2.52,2.52,0,0,0-.11-.24.92.92,0,0,0-.15-.22s.06-.12.08-.14.16,0,.11.13l-.08-.05s0,.11,0,.17l.1-.05c0,.2.29.22.25.45l-.08,0c0,.08.06.07.1.07a.11.11,0,0,1,.13.08c-.08,0-.07.08-.07.13a.38.38,0,0,1,.28.31s-.09-.12-.15-.13.05.22.16.24h0c.14.09.06.17.23.21a.1.1,0,0,1-.13,0,.17.17,0,0,0-.1,0l0,.06,0,.05h0s-.06,0-.08,0,.09,0,.15,0,.13,0,.18.06a.37.37,0,0,0-.09.27l.14.05v0s0,0,.06,0,0,0,0,0-.12.1-.1.18.15,0,.09.11,0-.08-.06,0a.4.4,0,0,1,.1.28c0,.1,0,.18.13.21l0,0,0,0a.16.16,0,0,0,.09,0c.06,0,.13,0,.12.06s-.17,0-.18.12c0-.07-.13-.05-.18-.1a.91.91,0,0,0,.16.21l.5-.2c0-.16,0-.31-.06-.46s0-.16,0-.25,0-.16,0-.24a.84.84,0,0,1,0-.09v0h0v0l0,.06,0,.12.08.24c0,.15.09.29.13.4-.06-.29-.09-.47-.13-.68l0-.16s0,0,0-.06l0-.05c0-.07,0-.16-.08-.26l0,0h0l-.1-.09c0-.07,0-.05,0,0s0,0,0,0-.07-.06-.11-.15a3,3,0,0,1-.12-.34c-.09-.28-.2-.65-.35-1l-.07-.16h0l-.17-.38-.13-.26-.13-.24-.12-.21a2,2,0,0,0-.11-.17,1.11,1.11,0,0,0-.17-.21c0,.05.05.1,0,.09a11.68,11.68,0,0,0-1.09-1.36c-.15-.16-.3-.31-.46-.46h0l0,0,0-.05a2.7,2.7,0,0,0-.23-.27l-.3-.29-.08-.07-.1-.09-.21-.18-.43-.36-.44-.34L131,103l0,0h0l0,0h0l-.63-.43-.1-.08-.19-.14a1.85,1.85,0,0,1-.27-.24l-.51-.24-.19-.08-.16-.06a6.4,6.4,0,0,0-.63-.23c.13,0,.08-.1-.25-.27l-.16,0-.17,0-.36-.1-.79-.24-.19-.05-.17,0-.32-.07a.77.77,0,0,0-.42,0,1,1,0,0,0-.49-.15,3.9,3.9,0,0,1-.49,0s.07,0,.14,0,.14,0,.13,0a.46.46,0,0,0-.25-.09l-.22,0H124c-.28,0-.53,0-.46.07a1.38,1.38,0,0,0-.36-.07h-.35l-.37.06-.18,0-.17,0a1.79,1.79,0,0,0-.39,0h-.27l-.26,0a2.93,2.93,0,0,0-.48.1.54.54,0,0,0-.26.15c-.1,0-.15,0-.17-.07l-.2.06-.09,0-.09,0-.32.12a6,6,0,0,1-.71.19c.38-.25.84-.26,1-.51-.05,0-.14,0-.15,0a.74.74,0,0,1-.37.09.94.94,0,0,1-.6.27c-.05.17-.31.22-.41.39,0-.12-.18,0-.32.06a3.25,3.25,0,0,1,.48-.35,6.09,6.09,0,0,1,.55-.28l.29-.12.28-.11.54-.21h.27l.13,0a.11.11,0,0,0,.07-.08.73.73,0,0,1,.23,0,.82.82,0,0,0,.21,0c-.1,0,0-.06.19-.15h.07l0,0a.15.15,0,0,0,.13,0c.29,0,.06-.15.36-.16,0,0,.08,0,.17,0l.1,0,.14,0,.32,0h.78l.43,0,.21,0h.21c.28,0,.53.06.71.07l.31.08.35.08.75.16.1,0,.11,0,.22.06.47.14.49.18.56.25.5.18.27.11.07,0,.07,0,.13.07a2.72,2.72,0,0,1,.75.49l.34.16.08,0h0l.63.44h0a.05.05,0,0,0,0,0h0l-.64-.44h0l0,0,0,0s0,0,0,0l0,0,0,0h0l.64.44h0s0,0,0,0h.07c.3.23.62.48.93.75l.47.43.12.12.09.09.38.39.09.09.07.08.14.16.14.16.07.08.06.07.21.27.1.13.09.11.17.22c-.09.05-.1,0-.18-.13s0,0-.08,0,0,.1.07.08,0,.06,0,.05-.06,0,0,0a.79.79,0,0,1,.44.42c.11.19.18.4.3.58,0,0,0-.07,0-.09s.19.19.29.29l.13.17.13.18a2.84,2.84,0,0,1,.21.38l.06.17,0,.08a.47.47,0,0,1,0,.08c0,.1.08.1.11.09s.07,0,.12.12c-.09-.08-.07,0,0,.08s.06.2,0,.19l0,0,0,0,.06.1a1.52,1.52,0,0,1,.09.21.88.88,0,0,1,0,.2.63.63,0,0,1,0,.08.16.16,0,0,1,0,0h0v0a.24.24,0,0,1,0-.06.19.19,0,0,1,0,0l0,0c-.09-.14-.1-.09-.08,0l0,.08,0,.14.05.21a2.84,2.84,0,0,1,.29.6h0v.06l0,.08,0,.16.09.34s0,.09,0,.14l1-.44c-.05-.33-.11-.65-.19-1,0,0,0,.07,0,.17a1.54,1.54,0,0,1-.16-.4c0-.09-.06-.2-.09-.32l0-.09,0-.09-.06-.2a12,12,0,0,0-.67-1.85l-.24-.46c-.08-.15-.16-.3-.25-.44l-.25-.4c-.09-.12-.16-.24-.24-.34l-.23-.28a1.87,1.87,0,0,0-.21-.2c-.12-.11-.23-.15-.3-.12,0-.13.27.05,0-.25-.05,0-.16,0-.16.08a4.19,4.19,0,0,0-1-1.36c-.44-.42-.93-.83-1.33-1.3,0,0-.09,0-.16,0s-.14,0-.17,0a1.33,1.33,0,0,0-.54-.54,2.62,2.62,0,0,1-.6-.44l0,.16-.16-.11-.35-.22-.36-.21-.16-.09s.09.1.17.16a.35.35,0,0,1-.21-.15.2.2,0,0,1,0-.12l-.06-.05h-.51l-.29-.21-.1,0-.3-.11-.32-.12-.16-.05-.21-.06a4.45,4.45,0,0,0-.79-.16.18.18,0,0,0,0-.07h-.24a.28.28,0,0,0,0,0,.37.37,0,0,1,0,0l-.25,0-.37,0-.37,0-.36-.06c-.31-.05-.62-.12-.92-.19l-.08,0-.06,0s.06.05,0,.07"/><path class="cls-1" d="M102.06,69.18c-2.65-3-10.13-6.63-15.44-6.63-2.09,0-3.61.56-4.5,1.68S81,67,81.46,69.1c0,.17,1.2,17.18,21.7,17.19h0c1.19,0,2.44-.06,3.71-.17l.3,0,0-.3C107.07,85.26,105.38,72.94,102.06,69.18Z"/><path class="cls-1" d="M151.41,67c-1.15-1.57-3-2.37-5.64-2.37a18.89,18.89,0,0,0-6.12,1.18c-10.55,5.25-2.87,21.82-2.79,22l.08.18h.19c11.5-.52,14.17-9,14.19-9.11C153.1,73.27,153.12,69.29,151.41,67Z"/><circle class="cls-8" cx="123.47" cy="147.01" r="7.92"/><path class="cls-8" d="M94.65,133.28,76.58,114.15a.59.59,0,0,0-.65-.14L46.12,126.13a.59.59,0,0,0-.12,1c1.27.9,30.6,21.68,41.68,19.83l.08.11c5.44,6.32,10.64,7.53,13.84,7.53a9.77,9.77,0,0,0,3.23-.48.59.59,0,0,0,.24-.17c8.17-9.5.76-18.61-1.71-21.17S96.1,132.53,94.65,133.28Z"/><path class="cls-8" d="M107.45,198.88a15.16,15.16,0,0,1-7.27,2h0a11.73,11.73,0,0,1-7.68-2.81.59.59,0,0,0-1,.29,41.42,41.42,0,0,0-.82,10.38c.38,5,.64,15.73,0,18.27-.75,1.18-5.3,8.52-4.54,11.27a1.62,1.62,0,0,0,.77,1,9.31,9.31,0,0,0,5.94,1.77h0a15.94,15.94,0,0,0,3.52-.42l.08,0a14,14,0,0,0,4.93-3.7c2.16-2.46,4.62-6.88,4.07-14,0-.08-1.28-8,.43-14.49s2.36-8.86,2.37-8.88a.59.59,0,0,0-.85-.68Z"/><path class="cls-8" d="M179.84,121.8a.58.58,0,0,0-.38-.29l-28.22-6.3a.58.58,0,0,0-.47.1.59.59,0,0,0-.24.42c0,.08-.83,8.34-2.37,11.84a9.71,9.71,0,0,1-3.76,4.09c-1,0-6.6.33-8.73,3.93-1.41,2.38-1,5.63,1.19,9.65l0,.05c.13.18,3.18,4.5,7.3,4.5,3.62,0,6.77-3.27,9.36-9.71,2.59-1.11,23.76-10.34,26.35-17.8A.59.59,0,0,0,179.84,121.8Z"/><path class="cls-8" d="M142.46,225.75a127.42,127.42,0,0,0-14.68-7c.82-2.81,3.63-14,4.91-19.09a.59.59,0,0,0-.67-.72,17.56,17.56,0,0,1-3.08.28,14.1,14.1,0,0,1-10.65-4.61.59.59,0,0,0-1,.16c-2.06,5.75,0,16.75,0,17.22,0,0,.92,5.07-1.21,9.1-2.27,4.29-.21,6.41.19,6.77,1,1.23,3,1.85,6.07,1.85a29.06,29.06,0,0,0,4.66-.41,43,43,0,0,0,11.07,2.05c2.48,0,4.09-.61,4.79-1.82a3.9,3.9,0,0,0-.22-3.55A.58.58,0,0,0,142.46,225.75Z"/><circle class="cls-8" cx="105.68" cy="85.53" r="4.25"/><circle class="cls-8" cx="137.35" cy="86.41" r="4.25"/><path class="cls-5" d="M132.7,190.11l-.8.88c-.24.25-.51.53-.8.81l-.46.41c-.17.12-.31.28-.49.38a4.62,4.62,0,0,1-.51.35,5.14,5.14,0,0,1-.52.3,4.53,4.53,0,0,1-.52.25,3.56,3.56,0,0,1-.49.2c-.16,0-.3.13-.44.16l-.36.1-.32.12.32.12a2.88,2.88,0,0,0,.89.17,2.38,2.38,0,0,0,.62,0,3.11,3.11,0,0,0,.68-.13,3.36,3.36,0,0,0,.7-.27,3.62,3.62,0,0,0,.66-.4,4.66,4.66,0,0,0,1-1.07,4.54,4.54,0,0,0,.59-1.14A3.3,3.3,0,0,0,132.7,190.11Z"/><path class="cls-5" d="M102,193.9c-.13,0-.27,0-.42,0a3.85,3.85,0,0,1-.48,0c-.16,0-.34,0-.51-.08s-.35-.06-.52-.12a3.91,3.91,0,0,1-.52-.17,5.35,5.35,0,0,1-.51-.21l-.49-.25c-.31-.18-.61-.36-.87-.52l-.89-.6a2.73,2.73,0,0,0,.41,1.06,3.85,3.85,0,0,0,1.94,1.62,3.65,3.65,0,0,0,1.38.23,3.11,3.11,0,0,0,.63-.08,2.29,2.29,0,0,0,.54-.17,2.05,2.05,0,0,0,.42-.2l.3-.21.24-.2-.31,0Z"/><path class="cls-9" d="M134.37,67.72a.29.29,0,0,0-.27-.19h0L104.47,68a.29.29,0,0,0-.19.51c.06.06,6.33,5.67,14.95,5.67h0c5.28,0,10.35-2.07,15.06-6.15A.29.29,0,0,0,134.37,67.72Z"/><path class="cls-2" d="M140.45,24.42c-.33-.78-8.21-19.09-20.57-19.09-7.36,0-14.69,6.58-21.81,19.6-.08.25-8.12,25,1.39,38.74,3.94,5.69,10.34,8.74,19,9.07l1.43,0h0c7.83,0,13.78-2.6,17.68-7.74C147.83,51.54,140.54,24.72,140.45,24.42Z"/><path class="cls-8" d="M150,26.1c0-.06-1-6.23-6.89-7.2a.58.58,0,0,0-.35.06l-.09-.19a.57.57,0,0,0,.24-.21,10.68,10.68,0,0,0,.83-8.67c-1.39-3.78-5.17-6.7-11.22-8.68-12.12-4-29.62,2.31-37.16,10.58-3.77,4.13-4.94,8.42-3.39,12.42-1.32,1.37-6.12,7.35-1.68,18.37,2.72,6.77,3.71,7.8,4.43,7.8a1,1,0,0,0,.23,0c.62-.15.86-.91.74-2.23,0-.19-1.09-19,5.54-23.25a85.27,85.27,0,0,0,14.47,5.5c10.45,2.84,18.16,2.29,22.92-1.63a29.32,29.32,0,0,1,3.81,18.13.59.59,0,0,0,.74.63c.28-.08,6.75-2.13,6.84-21.32A.6.6,0,0,0,150,26.1Z"/><path class="cls-5" d="M131.83,57.72a.68.68,0,0,0-.74-.57,6.13,6.13,0,0,0-2.62,1.13c-5.82,3.6-13.51,4-16.55,4-.74,0-1.17,0-1.17,0a.27.27,0,0,0-.27.14.29.29,0,0,0,0,.31c1,1.51,9.05,4.14,12.75,4.14a4.31,4.31,0,0,0,1.49-.21C126.72,65.87,132.14,59.45,131.83,57.72Z"/><path class="cls-5" d="M133.21,57.36a.29.29,0,0,1-.29-.23C132.69,56,131.08,56,131.06,56a.29.29,0,0,1,0-.59h0c.09,0,2.1,0,2.44,1.6a.29.29,0,0,1-.22.35Z"/><path class="cls-9" d="M116.88,54.05s.11.08.32.2a7.67,7.67,0,0,0,.86.45,6.84,6.84,0,0,0,1.27.44,5.15,5.15,0,0,0,.74.12,4.54,4.54,0,0,0,.77,0c.26,0,.51,0,.76-.07l.73-.16.67-.23c.21-.08.4-.18.59-.26a3.91,3.91,0,0,0,.49-.24l.38-.2.34-.17-.27.26a4.88,4.88,0,0,1-.77.64,6.49,6.49,0,0,1-.57.36l-.69.32c-.25.08-.52.16-.79.23s-.56.09-.85.09a5.06,5.06,0,0,1-.85-.05,4.31,4.31,0,0,1-.8-.19,5,5,0,0,1-.71-.29,4.58,4.58,0,0,1-.59-.35,4.41,4.41,0,0,1-.77-.66A2.43,2.43,0,0,1,116.88,54.05Z"/><ellipse class="cls-5" cx="110.98" cy="45.32" rx="3.52" ry="5.5"/><ellipse class="cls-5" cx="128.79" cy="45.17" rx="3.52" ry="5.5"/><path class="cls-8" d="M111.05,41.36c-1.48,0-2.63,1.71-2.63,3.89s1.16,3.88,2.63,3.88,2.63-1.71,2.63-3.88S112.53,41.36,111.05,41.36Z"/><path class="cls-8" d="M128.87,41.27c-1.45,0-2.59,1.68-2.59,3.82s1.14,3.82,2.59,3.82,2.59-1.68,2.59-3.82S130.32,41.27,128.87,41.27Z"/><path class="cls-9" d="M115.43,39a.58.58,0,0,1-.33-.1c-5-3.44-7.73-.3-7.84-.16a.59.59,0,0,1-.91-.74s3.46-4.14,9.41-.07a.59.59,0,0,1-.33,1.07Z"/><path class="cls-9" d="M133.41,39.38a.58.58,0,0,1-.3-.08c-5.2-3.08-7.35-.35-7.44-.23a.59.59,0,0,1-.95-.7A4.55,4.55,0,0,1,127,36.91c1.33-.41,3.58-.5,6.74,1.38a.59.59,0,0,1-.3,1.09Z"/></g></g></svg>