<svg xmlns="http://www.w3.org/2000/svg" viewBox="0 0 137.24 152.38"><defs><style>.cls-1{fill:#c65daf;}.cls-2{fill:#e00b6c;}.cls-3{fill:#f9e63a;}</style></defs><title>association</title><g id="Calque_2" data-name="Calque 2"><g id="Calque_1-2" data-name="Calque 1"><path class="cls-1" d="M53.16,70.34C47.4,66.22,30.69,43.59,30,41s1.27-5,4.83-2.95c5.5,3.13,5.6,8.17,9.3,7,2.42-1.85-3.67-32.8-4.23-37.83S45.76,1.11,46.84,6,50.37,33.22,51,34.07s1.59.08,1.7-.49-3.08-27-3.48-29.49c-.71-4.29,5.1-4.71,5.94-2.36.76,2.15,4.61,29.63,4.71,30.44.17,1.29,1.69,1.32,1.51-.19S59.14,9.86,58.74,7.08c-.69-4.82,5.57-7.31,6.69-.28,0,0,2.91,24.8,3.5,25.16,0,0,1.33,1.31,1.1-.94s-.95-11.67-1.6-16.12c-.94-6.4,6.29-8.6,6.79,0,0,0,9,42.45,1.55,51.64S58.92,74.46,53.16,70.34Z"/><path class="cls-1" d="M63.05,73.78A17.68,17.68,0,0,1,53,70.6c-6-4.32-22.6-27-23.24-29.49A3.59,3.59,0,0,1,30.25,38c1-1.24,2.8-1.36,4.78-.23a16.34,16.34,0,0,1,5.07,4.75c1.07,1.39,1.84,2.4,3.07,2.4a3,3,0,0,0,.85-.14c1.59-1.54-1.63-20.67-3.18-29.91-.6-3.56-1.07-6.36-1.21-7.61a4.35,4.35,0,0,1,1-3.52,3.72,3.72,0,0,1,2.77-1.24,3.92,3.92,0,0,1,3.76,3.35c.51,2.31,1.33,8.54,2.12,14.56s1.69,12.87,2,13.43a.55.55,0,0,0,.42.24.86.86,0,0,0,.71-.61c.06-.94-3.1-27-3.48-29.37a3.44,3.44,0,0,1,.68-2.88,3.9,3.9,0,0,1,3-1.26,2.91,2.91,0,0,1,2.9,1.63c.8,2.26,4.7,30.24,4.73,30.5.08.62.54.83.75.58a.86.86,0,0,0,.13-.69c-.06-.47-.29-2.72-.61-5.83-.71-6.83-1.77-17.16-2-19.07a4.71,4.71,0,0,1,1-3.77A3.38,3.38,0,0,1,62,2.12c1.91,0,3.32,1.73,3.78,4.63,1.12,9.53,2.94,24,3.42,25a1,1,0,0,0,.47.28s.17-.14.08-1c-.07-.63-.17-1.82-.3-3.3-.33-3.83-.83-9.61-1.3-12.81a6,6,0,0,1,1.13-4.82,3.22,3.22,0,0,1,2.43-1.2c1.62,0,3.6,1.55,3.86,5.92.36,1.69,8.92,42.65,1.48,51.86C72.28,72.55,66.81,73.78,63.05,73.78ZM32.44,37.64a2.06,2.06,0,0,0-1.7.78,3,3,0,0,0-.4,2.53c.61,2.41,17.25,25,23,29.14a17,17,0,0,0,9.71,3.06c3.62,0,8.89-1.19,13.47-6.85,7.25-9-1.52-51-1.61-51.38-.24-4-1.89-5.37-3.24-5.37a2.6,2.6,0,0,0-2,1,5.39,5.39,0,0,0-1,4.31c.47,3.22,1,9,1.31,12.85.13,1.48.23,2.66.3,3.29a1.9,1.9,0,0,1-.23,1.46.63.63,0,0,1-.48.21,1.56,1.56,0,0,1-.92-.47h0c-.51-.79-1.72-9.3-3.6-25.34C64.72,4.29,63.54,2.75,62,2.75a2.76,2.76,0,0,0-2,1A4.08,4.08,0,0,0,59.05,7C59.33,9,60.4,19.29,61.11,26.13c.31,3,.55,5.36.61,5.82a1.45,1.45,0,0,1-.28,1.19.9.9,0,0,1-.68.31,1.26,1.26,0,0,1-1.16-1.23c-.15-1.19-4-28.28-4.7-30.37A2.31,2.31,0,0,0,52.58.63a3.27,3.27,0,0,0-2.49,1A2.81,2.81,0,0,0,49.55,4c.28,1.67,3.63,28.9,3.48,29.6a1.46,1.46,0,0,1-1.33,1.12,1.16,1.16,0,0,1-.93-.5c-.36-.46-.93-4.54-2.14-13.73C47.86,14.52,47,8.31,46.53,6a3.26,3.26,0,0,0-3.15-2.86,3.1,3.1,0,0,0-2.3,1,3.75,3.75,0,0,0-.83,3c.14,1.23.61,4,1.2,7.58C44,30.11,46.19,44,44.36,45.35l-.1.05a3.66,3.66,0,0,1-1.1.18c-1.53,0-2.43-1.17-3.56-2.65a15.81,15.81,0,0,0-4.88-4.58A4.72,4.72,0,0,0,32.44,37.64Z"/><path class="cls-2" d="M84,137.84c-2-6.78-1.47-34.91-.42-37.33s4-3.16,5.63.61c2.45,5.84-.55,9.89,3.08,11.23,3,0,17.11-28.23,19.74-32.55s8.37-1.32,6.27,3.18-13.85,23.75-13.84,24.82,1.21,1,1.64.65,14-23.27,15.24-25.48c2.06-3.83,6.91-.62,6.14,1.76-.71,2.17-14.43,26.29-14.84,27-.66,1.13.53,2.08,1.31.77S125.61,93.58,127,91.13c2.4-4.24,8.88-2.39,5.47,3.86,0,0-12.83,21.42-12.58,22.06,0,0,.25,1.85,1.44-.08s6.37-9.82,8.57-13.75c3.16-5.65,10.23-3,5.4,4.11,0,0-18.79,39.11-30.29,41.85S86,144.62,84,137.84Z"/><path class="cls-2" d="M100.17,150.1a17.13,17.13,0,0,1-16.51-12.17c-2.15-7.12-1.44-35.16-.41-37.55a3.37,3.37,0,0,1,2.93-2.21c.78,0,2.24.37,3.27,2.82a16.35,16.35,0,0,1,1.12,6.85c0,2.19,0,3.52,1.72,4.19,2.2-.25,11.33-17.37,15.74-25.64,1.7-3.18,3-5.69,3.69-6.76a4.28,4.28,0,0,1,3.62-2.25,3.72,3.72,0,0,1,3.12,1.7,4.08,4.08,0,0,1,.09,4c-1,2.14-4.16,7.58-7.21,12.84s-6.51,11.21-6.59,11.86a.52.52,0,0,0,.59.57.86.86,0,0,0,.53-.17c.61-.7,14-23.29,15.17-25.4a3.33,3.33,0,0,1,3-1.94,4.27,4.27,0,0,1,3.28,1.72,2.47,2.47,0,0,1,.47,2.22c-.73,2.25-14.73,26.82-14.87,27.05a.78.78,0,0,0-.08.76.3.3,0,0,0,.26.16c.19,0,.41-.18.59-.48s1.43-2.33,3.07-5c3.61-5.84,9.07-14.67,10-16.35a4.57,4.57,0,0,1,3.87-2.45,3.08,3.08,0,0,1,2.7,1.46c.76,1.28.57,3.12-.55,5.17-4.93,8.24-12.3,20.79-12.55,21.89a.91.91,0,0,0,.21.51s.21,0,.65-.73c.33-.54,1-1.54,1.78-2.79,2.07-3.23,5.21-8.12,6.79-10.94a5.57,5.57,0,0,1,4.61-3.21,2.87,2.87,0,0,1,2.64,1.51c.8,1.51.32,3.74-1.31,6.14-.75,1.56-19,39.23-30.48,42A21.18,21.18,0,0,1,100.17,150.1Zm-14-51.3a2.75,2.75,0,0,0-2.36,1.83c-1,2.28-1.61,30.36.43,37.11a16.5,16.5,0,0,0,15.91,11.73,20.55,20.55,0,0,0,4.76-.58c11.22-2.68,29.89-41.29,30.08-41.68,1.52-2.23,2-4.24,1.3-5.53a2.26,2.26,0,0,0-2.09-1.18c-1.18,0-2.87.76-4.06,2.89-1.59,2.84-4.73,7.74-6.81,11-.8,1.25-1.44,2.24-1.77,2.78-.43.7-.81,1-1.19,1s-.77-.58-.83-1.07h0c.08-.93,4.32-8.42,12.61-22.26,1-1.84,1.2-3.45.56-4.53a2.43,2.43,0,0,0-2.16-1.15,3.94,3.94,0,0,0-3.32,2.13c-1,1.69-6.42,10.53-10,16.38-1.58,2.56-2.83,4.58-3.07,5a1.34,1.34,0,0,1-1.13.78.93.93,0,0,1-.81-.48,1.39,1.39,0,0,1,.09-1.39c.59-1,14.14-24.84,14.82-26.93a1.86,1.86,0,0,0-.39-1.66A3.61,3.61,0,0,0,124,81.51a2.67,2.67,0,0,0-2.41,1.61c-.8,1.49-14.77,25.11-15.31,25.57a1.47,1.47,0,0,1-.95.32,1.14,1.14,0,0,1-1.22-1.21c0-.59,2-4.16,6.68-12.16,3-5.25,6.2-10.68,7.19-12.79a3.47,3.47,0,0,0,0-3.42A3.09,3.09,0,0,0,115.32,78,3.62,3.62,0,0,0,112.25,80c-.64,1.05-2,3.56-3.67,6.73-7.3,13.69-14,26-16.34,26l-.11,0c-2.2-.81-2.19-2.57-2.19-4.8a15.82,15.82,0,0,0-1.07-6.61C88.21,99.67,87.25,98.8,86.18,98.8Z"/><path class="cls-3" d="M56.74,138.4c1.27-7-2.47-34.85-3.78-37.14s-4.37-2.69-5.52,1.24c-1.77,6.08,1.66,9.77-1.8,11.51-3,.36-20.18-26.12-23.28-30.12s-8.46-.37-5.87,3.86,16.43,22,16.54,23.11-1.08,1.16-1.56.83-16.58-21.54-18-23.61c-2.47-3.58-6.94.17-5.91,2.44.94,2.07,17.3,24.5,17.79,25.15.78,1-.29,2.12-1.21.91S10.37,99.11,8.72,96.83c-2.86-3.95-9.09-1.38-5,4.46,0,0,15.16,19.84,15,20.51,0,0,0,1.87-1.44.08s-7.44-9-10.06-12.69c-3.78-5.25-10.5-1.8-4.91,4.69,0,0,23.07,36.74,34.81,38.18S55.46,145.37,56.74,138.4Z"/><path class="cls-3" d="M39.77,152.38h0a22.33,22.33,0,0,1-2.69-.17c-4.91-.6-12.28-7.22-21.91-19.69-7.16-9.26-13-18.47-13-18.56C.26,111.75-.44,109.59.27,108a2.82,2.82,0,0,1,2.67-1.58,5.62,5.62,0,0,1,4.39,2.63c1.89,2.63,5.56,7.14,8,10.12.94,1.16,1.68,2.07,2.07,2.57s.74.71.85.71.31-.55.31-.7c-.12-.77-9-12.62-15-20.41-1.84-2.62-1.45-4.3-1-5.06a3,3,0,0,1,2.74-1.54,4.44,4.44,0,0,1,3.57,2c1.14,1.58,7.61,9.8,11.89,15.24l3.53,4.5A1,1,0,0,0,25,117a.45.45,0,0,0,.41-.26.9.9,0,0,0-.17-.93c-.16-.22-16.82-23-17.8-25.18a2.41,2.41,0,0,1,.32-2.29,4,4,0,0,1,3.19-1.85A3.18,3.18,0,0,1,13.6,88C15,90,31,111.05,31.57,111.56a1,1,0,0,0,.52.14.85.85,0,0,0,.63-.24.72.72,0,0,0,.15-.58c-.07-.53-4.24-6.15-7.92-11.11s-7.37-9.92-8.6-11.93a3.92,3.92,0,0,1-.27-4A3.55,3.55,0,0,1,19.18,82a4.21,4.21,0,0,1,3.3,1.79c.77,1,2.38,3.33,4.42,6.3,5.71,8.31,16.35,23.76,18.67,23.76h0c1.77-.91,1.6-2.35,1.35-4.53a16.2,16.2,0,0,1,.34-6.87c.57-2,1.69-3.08,3.07-3.08a3.3,3.3,0,0,1,2.74,1.8c1.25,2.17,5.08,30.25,3.8,37.25A17,17,0,0,1,39.77,152.38ZM2.94,106.78a2.51,2.51,0,0,0-2.38,1.4c-.65,1.42,0,3.46,1.86,5.6.24.39,23.18,36.71,34.71,38.12a22,22,0,0,0,2.65.16,16.73,16.73,0,0,0,16.81-13.69c1.27-7-2.52-34.87-3.76-37a3,3,0,0,0-2.46-1.64c-1.23,0-2.24,1-2.77,2.85a15.94,15.94,0,0,0-.33,6.75c.26,2.24.44,3.85-1.55,4.86l-.05,0h-.08c-2.29,0-10.61-11.81-18.93-23.9-2-3-3.65-5.31-4.41-6.29a3.9,3.9,0,0,0-3.06-1.67A3.23,3.23,0,0,0,16.36,84a3.61,3.61,0,0,0,.26,3.71c1.22,2,5,7,8.58,11.91,4.93,6.63,7.92,10.7,8,11.27a1,1,0,0,1-.23.83,1.16,1.16,0,0,1-.87.35,1.27,1.27,0,0,1-.71-.2c-.58-.4-17.08-22.26-18-23.65a2.91,2.91,0,0,0-2.41-1.41A3.67,3.67,0,0,0,8,88.46a2.1,2.1,0,0,0-.3,2c.92,2,17,24.15,17.77,25.12a1.21,1.21,0,0,1,.2,1.26.76.76,0,0,1-.69.43,1.3,1.3,0,0,1-1-.6c-.28-.37-1.71-2.19-3.52-4.49C16.21,106.74,9.74,98.51,8.6,96.93A4.13,4.13,0,0,0,5.28,95.1a2.68,2.68,0,0,0-2.46,1.37c-.63,1.21-.27,2.89,1,4.73,4.57,6,15.18,20,15,20.63,0,.34-.15,1-.62,1-.3,0-.66-.27-1.1-.83s-1.13-1.41-2.07-2.56c-2.43-3-6.1-7.5-8-10.14A5.39,5.39,0,0,0,2.94,106.78Z"/></g></g></svg>