<svg xmlns="http://www.w3.org/2000/svg" viewBox="0 0 171.72 118.98"><defs><style>.cls-1{fill:#bac341;}.cls-2{fill:#f9e63a;}.cls-3{fill:#f6f105;}.cls-4{fill:#fff;}.cls-5{fill:#e00b6c;}</style></defs><title>autourdemoi</title><g id="Calque_2" data-name="Calque 2"><g id="Calque_1-2" data-name="Calque 1"><polygon class="cls-1" points="1 107.63 28.64 64.91 56.27 69.97 86.29 64.91 115.8 69.62 144.86 64.91 170.72 107.63 128.91 117.98 85.86 107.63 42.81 117.98 1 107.63"/><path class="cls-2" d="M128.91,119l-.23,0-42.81-10.3L43,119a1,1,0,0,1-.47,0L.76,108.6a1,1,0,0,1-.6-1.51L27.8,64.37a1,1,0,0,1,1-.44l27.46,5,29.84-5a1,1,0,0,1,.32,0L115.8,68.6l28.89-4.68a1,1,0,0,1,1,.47l25.87,42.71a1,1,0,0,1-.62,1.49L129.15,119ZM2.6,107l40.21,10,42.81-10.3a1,1,0,0,1,.47,0L128.91,117l40.26-10L144.35,66,116,70.6a1,1,0,0,1-.32,0L86.29,65.92,56.44,71a1,1,0,0,1-.35,0L29.11,66Z"/><path class="cls-3" d="M128.91,118.94a1,1,0,0,1-.92-.71L114.88,69.87a1,1,0,1,1,1.85-.5l13.11,48.37a1,1,0,0,1-.67,1.17A.94.94,0,0,1,128.91,118.94Z"/><path class="cls-3" d="M86.29,108.68a1,1,0,0,1-1-1V64.91a1,1,0,1,1,1.91,0v42.82A1,1,0,0,1,86.29,108.68Z"/><path class="cls-3" d="M42.81,118.94a1,1,0,0,1-.92-1.21l13.46-48a1,1,0,1,1,1.84.52l-13.46,48A1,1,0,0,1,42.81,118.94Z"/><path class="cls-4" d="M26.51,105.73a1,1,0,0,1-.4-1.83s1-.45,2.7-1.11a1,1,0,1,1,.69,1.78c-1.64.64-2.6,1.07-2.6,1.07A.94.94,0,0,1,26.51,105.73Z"/><path class="cls-4" d="M34.57,102.75a1,1,0,0,1-.29-1.87c1.84-.59,3.71-1.12,5.56-1.59a1,1,0,1,1,.47,1.85c-1.81.46-3.65,1-5.45,1.56A.94.94,0,0,1,34.57,102.75Zm11.1-2.82a1,1,0,0,1-.18-1.9c1.93-.37,3.86-.66,5.73-.88a1,1,0,0,1,.22,1.9c-1.82.21-3.7.5-5.59.86Zm28.49-.1h0a57.89,57.89,0,0,1-5.81-.42,1,1,0,0,1,.24-1.9,55.77,55.77,0,0,0,5.61.41,1,1,0,0,1,0,1.91Zm5.72-.08a1,1,0,0,1,0-1.91c1.83-.09,3.73-.25,5.65-.48a1,1,0,0,1,.22,1.9c-2,.22-3.9.39-5.77.48Zm-17.12-1h-.07c-1.22-.08-2.48-.14-3.77-.13-.62,0-1.24,0-1.85,0A1,1,0,1,1,57,96.71c.65,0,1.31,0,2,0,1.31,0,2.61,0,3.86.13a1,1,0,0,1-.06,1.91Zm28.5-.28a1,1,0,0,1-.16-1.9c1.85-.32,3.73-.68,5.57-1.1a1,1,0,0,1,.42,1.87c-1.88.42-3.79.8-5.67,1.12Zm11.18-2.5a1,1,0,0,1-.26-1.88c1.85-.52,3.68-1.08,5.42-1.68a1,1,0,1,1,.62,1.81c-1.78.61-3.64,1.18-5.53,1.71A1,1,0,0,1,102.43,95.94Zm10.83-3.72a1,1,0,0,1-.37-1.84c1.85-.78,3.56-1.59,5.09-2.42a1,1,0,1,1,.91,1.68c-1.58.86-3.35,1.69-5.26,2.5A.94.94,0,0,1,113.26,92.22Z"/><path class="cls-4" d="M123.26,86.67a1,1,0,0,1-.59-1.71,17,17,0,0,0,2-1.83,1,1,0,0,1,1.41,1.29,18.31,18.31,0,0,1-2.23,2A1,1,0,0,1,123.26,86.67Z"/><path class="cls-4" d="M27.19,76a1,1,0,0,1-.8-1.48l3.72-5.67a1,1,0,0,1,1-.41L38.56,70a1,1,0,1,1-.4,1.87l-6.8-1.46L28,75.58A1,1,0,0,1,27.19,76Z"/><ellipse class="cls-4" cx="85.71" cy="82.74" rx="24.09" ry="5.37"/><path class="cls-5" d="M86.83,0C71.16,0,58.45,13.75,58.45,30.72S86.83,82.21,86.83,82.21s28.38-34.52,28.38-51.49S102.51,0,86.83,0Zm0,40.54a14.48,14.48,0,1,1,14.48-14.48A14.48,14.48,0,0,1,86.83,40.54Z"/></g></g></svg>