<svg xmlns="http://www.w3.org/2000/svg" viewBox="0 0 225.33 202.87"><defs><style>.cls-1{fill:#ededed;}.cls-2{fill:#dadada;}.cls-3{fill:#eeb5d6;}.cls-4{fill:#eeafe4;}.cls-5{fill:#fff;}.cls-6{fill:#0f7782;}.cls-7{fill:#ffd4ba;}.cls-8{fill:#afe1e1;}.cls-9{fill:#b91c48;}.cls-10{fill:#afd03d;}.cls-11{fill:#ff777e;}.cls-12{fill:#ce4381;}</style></defs><title>beauteetbienetre</title><g id="Calque_2" data-name="Calque 2"><g id="Calque_1-2" data-name="Calque 1"><ellipse class="cls-1" cx="109.13" cy="181.56" rx="73.79" ry="20.31"/><path class="cls-1" d="M109.13,202.87c-36.76,0-74.79-8-74.79-21.31s38-21.31,74.79-21.31,74.79,8,74.79,21.31S145.9,202.87,109.13,202.87Zm0-40.62c-39.46,0-72.79,8.84-72.79,19.31s33.33,19.31,72.79,19.31,72.79-8.84,72.79-19.31S148.59,162.25,109.13,162.25Z"/><ellipse class="cls-2" cx="106.42" cy="176.82" rx="32.49" ry="8.94"/><path class="cls-3" d="M106.42,177.82a1,1,0,0,1-1-1v-40.5a1,1,0,0,1,2,0v40.5A1,1,0,0,1,106.42,177.82Z"/><path class="cls-4" d="M106.42,145.27c-39.93,0-70-35-70-81.45a1,1,0,0,1,2,0c0,45.29,29.25,79.45,68,79.45,39,0,70.76-36.69,70.76-81.79a1,1,0,0,1,2,0C179.19,107.68,146.54,145.27,106.42,145.27Z"/><ellipse class="cls-4" cx="106.42" cy="68.16" rx="61.94" ry="68.16"/><path class="cls-5" d="M83.07,85.41a1.5,1.5,0,0,1-1.14-2.48l42.14-49.25a1.5,1.5,0,0,1,2.28,2L84.21,84.89A1.5,1.5,0,0,1,83.07,85.41Z"/><path class="cls-5" d="M90.09,110A1.5,1.5,0,0,1,89,107.56L131.1,58.31a1.5,1.5,0,0,1,2.28,2L91.23,109.51A1.5,1.5,0,0,1,90.09,110Z"/><circle class="cls-4" cx="178.19" cy="61.48" r="6.68"/><circle class="cls-4" cx="37.38" cy="63.07" r="6.68"/><path class="cls-6" d="M7.94,131c-3.88,6-10.34,55.77-6,62.57s43.09,4.25,53.43-1.16,0-57.1-3.45-61.41S11.82,124.92,7.94,131Z"/><path class="cls-6" d="M21.39,198.13h0c-6.41,0-17.51-.56-19.9-4.33-4.5-7.1,2.29-57.28,6-63.11,2.4-3.73,14.85-4.13,20.09-4.13,10.37,0,22.54,1.43,24.66,4.09,3,3.79,10.42,40,7.23,55.23-.76,3.64-2.09,6-3.94,6.94C49.87,195.79,34.86,198.13,21.39,198.13Zm6.23-70.58c-10.42,0-17.79,1.41-19.25,3.67-4,6.26-9.95,55.85-6,62,1.54,2.42,8.66,3.87,19.06,3.87,13.33,0,28.14-2.28,33.72-5.2,1.57-.82,2.72-2.93,3.42-6.26,3.31-15.77-4.5-51.24-7-54.4C49.89,129.25,38.95,127.55,27.61,127.55Z"/><path class="cls-6" d="M19.1,113.08s1.52,12.24,1.52,13.41,16.75,0,16.75,0V112.2Z"/><path class="cls-6" d="M25,127.51h0c-4.14,0-4.84-.31-4.84-1,0-.9-1-9.12-1.52-13.35a.5.5,0,0,1,.47-.56l18.28-.88a.43.43,0,0,1,.37.14.5.5,0,0,1,.16.36v14.29a.5.5,0,0,1-.46.5C37.33,127,29.89,127.51,25,127.51Zm-3.85-1.25a16.32,16.32,0,0,0,3.85.25c4.18,0,10.2-.37,11.91-.49V112.73l-17.21.83C19.94,115.83,21,124.48,21.11,126.26Z"/><circle class="cls-5" cx="28.23" cy="116.81" r="2.54"/><path class="cls-7" d="M16.24,141.79c-2.54,3.95-6.77,36.51-3.95,41s28.21,2.78,35-.76,0-37.39-2.26-40.21S18.77,137.84,16.24,141.79Z"/><path class="cls-7" d="M25,185.94h0c-4.23,0-11.56-.38-13.17-2.92-3-4.67,1.49-37.67,4-41.5,1.62-2.51,9.84-2.79,13.3-2.79,6.83,0,14.86,1,16.28,2.74,2,2.55,6.92,26,4.76,36.3-.51,2.44-1.41,4-2.66,4.66C43.31,184.63,32.79,185.94,25,185.94Zm4.07-46.2c-6.66,0-11.55.91-12.46,2.33-2.62,4.08-6.5,36.4-3.95,40.43,1,1.53,5.58,2.45,12.33,2.45h0c8.7,0,18.36-1.49,22-3.38,1-.51,1.7-1.85,2.15-4,2.16-10.29-2.92-33.42-4.57-35.47C43.59,140.82,36.49,139.74,29.11,139.74Z"/><polygon class="cls-8" points="190.18 63.06 190.82 48.78 204.41 48.09 203.77 62.1 190.18 63.06"/><path class="cls-8" d="M190.18,64.07a1,1,0,0,1-1-1l.64-14.28a1,1,0,0,1,.95-1l13.58-.69a1,1,0,0,1,1,1l-.63,14a1,1,0,0,1-.93,1l-13.59,1Zm1.6-14.33L191.23,62l11.59-.82.54-12Z"/><path class="cls-5" d="M199.09,51.88a1.63,1.63,0,1,1-1.56-1.7A1.64,1.64,0,0,1,199.09,51.88Z"/><path class="cls-9" d="M183.55,71c-2.43,9.89-9.48,86.61-4.4,97.28S215,178.59,222,170.2s-2.83-95.42-5.74-101.43S186,61.08,183.55,71Z"/><path class="cls-9" d="M201,177.39h0c-9,0-19.71-2.29-22.76-8.7s-1.75-33.7-.71-49.43c1.48-22.53,3.85-43.66,5-48.52s7.75-7.84,17.51-7.84c6.93,0,15.22,1.7,17,5.43,3.35,6.94,12.75,93.87,5.61,102.5C219.43,174.82,210.91,177.39,201,177.39ZM200.09,64.9c-6.47,0-14.43,1.65-15.57,6.31s-3.55,26.39-5,48.17c-1.74,26.43-1.55,44.09.52,48.44,2.19,4.59,10.41,7.56,21,7.56,9.18,0,17.29-2.34,20.17-5.83,2.72-3.3,2.94-22.32.59-50.89-2-24.1-5.16-46.77-6.46-49.47C214.17,66.83,207.34,64.9,200.09,64.9Z"/><path class="cls-7" d="M210.07,82.84,212.91,150s-17,6.63-20.05,3.88.62-69.82.62-69.82Z"/><path class="cls-7" d="M195.5,155.53a4.86,4.86,0,0,1-3.32-.92c-.73-.66-2.26-2-1.17-36.72.53-16.93,1.45-33.74,1.46-33.9a1,1,0,0,1,.93-.94L210,81.84a1,1,0,0,1,1.07,1l2.84,67.15a1,1,0,0,1-.64,1C212.79,151.11,201.37,155.53,195.5,155.53ZM194.42,85c-1.37,25.23-2.78,65.33-.85,68.2a3.38,3.38,0,0,0,1.93.36c4.72,0,13.84-3.28,16.37-4.23l-2.76-65.4Z"/><path class="cls-7" d="M198.49,163.86a32.67,32.67,0,0,0,20.48-6"/><path class="cls-7" d="M200.2,164.92c-1.07,0-1.72-.06-1.82-.08a1,1,0,0,1,.21-2,32,32,0,0,0,19.8-5.81,1,1,0,0,1,1.15,1.63A34.13,34.13,0,0,1,200.2,164.92Z"/><polygon class="cls-10" points="172.37 96.85 172.87 85.73 183.45 85.19 182.96 96.1 172.37 96.85"/><path class="cls-10" d="M172.37,97.85a1,1,0,0,1-1-1l.5-11.12a1,1,0,0,1,.95-1l10.57-.54a1,1,0,0,1,.76.29,1,1,0,0,1,.29.75L184,96.14a1,1,0,0,1-.93,1l-10.59.75Zm1.46-11.17-.41,9.09,8.58-.61.4-8.92Z"/><circle class="cls-5" cx="178.04" cy="88.08" r="1.27" transform="translate(82.03 261.98) rotate(-87.42)"/><path class="cls-11" d="M167.21,103c-1.89,7.7-7.38,67.43-3.42,75.74s27.92,8,33.32,1.51-2.21-74.29-4.47-79S169.1,95.31,167.21,103Z"/><path class="cls-11" d="M180.8,186.08h0c-7.08,0-15.5-1.81-17.92-6.9-4.11-8.64,1.35-68.26,3.35-76.41,1-3.93,6.14-6.27,13.85-6.27,5.47,0,12,1.36,13.45,4.35,1.25,2.59,3.73,21.25,5.2,39.14,1.36,16.53,2.32,37.05-.86,40.9S186.7,186.08,180.8,186.08Zm-.72-87.58c-5,0-11,1.24-11.91,4.75-2.09,8.53-7.1,67.49-3.49,75.07,1.67,3.5,8,5.76,16.11,5.76h0c7.09,0,13.33-1.79,15.53-4.46,4.6-5.57-1.9-72.31-4.6-77.9C191,100.17,186.32,98.5,180.09,98.5Z"/><path class="cls-8" d="M187.85,112.24l2.21,52.28s-13.23,5.16-15.61,3,.48-54.36.48-54.36Z"/><path class="cls-8" d="M176.52,169.06a4,4,0,0,1-2.73-.78c-.64-.58-1.83-1.65-1-28.76.41-13.18,1.13-26.27,1.14-26.4a1,1,0,0,1,.93-.94l12.92-.94a1,1,0,0,1,1.07,1l2.21,52.28a1,1,0,0,1-.64,1C190,165.6,181.12,169.06,176.52,169.06Zm-1.35-2.23a2.68,2.68,0,0,0,1.35.23c3.55,0,10.37-2.42,12.52-3.22l-2.14-50.53-11,.8C174.84,133.46,173.76,164,175.17,166.84Z"/><path class="cls-8" d="M174.1,175.32s13.65,3,18.79-2"/><path class="cls-8" d="M182.58,177.21a44.92,44.92,0,0,1-8.7-.91,1,1,0,0,1,.43-2c.13,0,13.18,2.81,17.88-1.77a1,1,0,0,1,1.4,1.43C191,176.53,186.58,177.21,182.58,177.21Z"/><path class="cls-9" d="M66.59,131.21l.19,19.12-7.62.08S62.4,130.67,66.59,131.21Z"/><path class="cls-9" d="M59.16,150.9a.5.5,0,0,1-.49-.58c.55-3.33,3.56-20.17,8-19.61a.5.5,0,0,1,.44.49l.19,19.12a.5.5,0,0,1-.5.5l-7.62.08Zm6.93-19.15c-2.52.85-5.15,11.17-6.34,18.14l6.52-.07Z"/><path class="cls-4" d="M58.8,162.45s.53-10.22,1-12.74c0,0,4.16-.72,5.61.1s1.21,13.42,1.21,13.42Z"/><path class="cls-4" d="M66.6,164.23h-.1l-7.8-.78a1,1,0,0,1-.9-1c0-.42.54-10.31,1-12.87a1,1,0,0,1,.81-.81,23.08,23.08,0,0,1,3.45-.31,5.82,5.82,0,0,1,2.82.53c.49.28,2,1.12,1.72,14.3a1,1,0,0,1-1,1Zm-6.75-2.68,5.77.57c0-5-.24-10.46-.82-11.49a4.75,4.75,0,0,0-1.73-.22,19.57,19.57,0,0,0-2.4.17C60.33,153.19,60,159.21,59.85,161.55Z"/><path class="cls-9" d="M55.54,164.18s-3.7,30.55.33,32.61c6.67,3.4,11.51-.11,11.51-.11s3.87-25-.33-32.61Z"/><path class="cls-9" d="M61.7,199.28h0a13.78,13.78,0,0,1-6.29-1.59c-4.32-2.2-1.75-26.29-.86-33.62a1,1,0,0,1,1-.88L67,163.07a1.13,1.13,0,0,1,.89.52c4.31,7.83.6,32.21.44,33.25a1,1,0,0,1-.4.66A11.3,11.3,0,0,1,61.7,199.28Zm-5.27-34.1c-2,17.41-1.73,29.9-.11,30.73a11.82,11.82,0,0,0,5.38,1.37h0a9.72,9.72,0,0,0,4.75-1.2c.48-3.29,3.26-23.78,0-31Z"/><path class="cls-12" d="M58.17,165.74l6-.06L63.43,194s-4.84.77-6.5.07.58-28.27.58-28.27"/><path class="cls-12" d="M59.23,194.82a7,7,0,0,1-2.49-.34c-1.65-.7-.76-16,.28-28.77a.51.51,0,0,1,.54-.46.5.5,0,0,1,.28.12.5.5,0,0,1,.32-.12l6-.06h0a.5.5,0,0,1,.5.51L63.93,194a.5.5,0,0,1-.42.48A31,31,0,0,1,59.23,194.82Zm-2-1.23c1.19.44,4.23.15,5.75-.06l.76-27.33-5.53.06a.57.57,0,0,1-.19,0C57,178.6,56.38,192.21,57.2,193.58Z"/></g></g></svg>