<svg xmlns="http://www.w3.org/2000/svg" viewBox="0 0 123.85 122.39"><defs><style>.cls-1{fill:#e00b6c;}.cls-2{fill:#fff;}.cls-3{fill:#f6e15e;}.cls-4{fill:#ff8f54;}</style></defs><title>bonplan</title><g id="Calque_2" data-name="Calque 2"><g id="Calque_1-2" data-name="Calque 1"><path class="cls-1" d="M123.75,58.49a1,1,0,0,0-.63-.53l-37-10.21a1,1,0,0,0-.7.06L27.88,75.16a1,1,0,0,0-.47,1.33l21.54,45.33a1,1,0,0,0,1.33.47l57.95-27.54a1,1,0,0,0,.49-.51l15-34.93A1,1,0,0,0,123.75,58.49Z"/><circle class="cls-2" cx="103.53" cy="68.1" r="5.51" transform="translate(-19.21 51.02) rotate(-25.42)"/><path class="cls-2" d="M89.34,94.48a1,1,0,0,1-.9-.57l-14.72-31a1,1,0,1,1,1.81-.86L90.24,93a1,1,0,0,1-.9,1.43Z"/><path class="cls-2" d="M79.15,99.67a1,1,0,0,1-.9-.57l-14.72-31a1,1,0,1,1,1.81-.86L80,98.25a1,1,0,0,1-.9,1.43Z"/><path class="cls-2" d="M69.2,104.4a1,1,0,0,1-.9-.57l-14.72-31A1,1,0,1,1,55.38,72L70.1,103a1,1,0,0,1-.9,1.43Z"/><path class="cls-2" d="M59.26,109.13a1,1,0,0,1-.9-.57l-14.72-31a1,1,0,1,1,1.81-.86l14.72,31a1,1,0,0,1-.9,1.43Z"/><path class="cls-3" d="M98.89,23.86a1,1,0,0,0-.77-.3l-38.3,2.21a1,1,0,0,0-.64.28L13.46,70.45a1,1,0,0,0,0,1.41l35,36a1,1,0,0,0,1.41,0l46-44.7a1,1,0,0,0,.3-.64l3-37.91A1,1,0,0,0,98.89,23.86Z"/><circle class="cls-2" cx="82.83" cy="39.45" r="5.51" transform="translate(-4.08 68.84) rotate(-44.15)"/><path class="cls-2" d="M77.55,69.05a1,1,0,0,1-.72-.3L52.93,44.14a1,1,0,0,1,1.44-1.39l23.9,24.61a1,1,0,0,1-.72,1.7Z"/><path class="cls-2" d="M69.57,77.25a1,1,0,0,1-.72-.3L44.95,52.34a1,1,0,0,1,1.44-1.39l23.9,24.61a1,1,0,0,1-.72,1.7Z"/><path class="cls-2" d="M61.67,84.92a1,1,0,0,1-.72-.3L37.05,60a1,1,0,0,1,1.44-1.39l23.9,24.61a1,1,0,0,1-.72,1.7Z"/><path class="cls-2" d="M53.77,92.59a1,1,0,0,1-.72-.3L29.15,67.68a1,1,0,0,1,1.44-1.39l23.9,24.61a1,1,0,0,1-.72,1.7Z"/><path class="cls-4" d="M77.35,38.06,69.71.8A1,1,0,0,0,68.4.06L32.23,12.84a1,1,0,0,0-.54.45L.13,68.65A1,1,0,0,0,.5,70L44.1,94.86a1,1,0,0,0,1.36-.37L77.24,38.75A1,1,0,0,0,77.35,38.06Z"/><circle class="cls-2" cx="58.14" cy="19.58" r="5.5" transform="translate(12.34 60.39) rotate(-60.31)"/><path class="cls-2" d="M61,49.52a1,1,0,0,1-.49-.13l-29.8-17a1,1,0,1,1,1-1.74l29.8,17a1,1,0,0,1-.5,1.87Z"/><path class="cls-2" d="M55.63,59.61a1,1,0,0,1-.49-.13l-29.8-17a1,1,0,1,1,1-1.74l29.8,17a1,1,0,0,1-.5,1.87Z"/><path class="cls-2" d="M50.18,69.17a1,1,0,0,1-.49-.13l-29.8-17a1,1,0,1,1,1-1.74l29.8,17a1,1,0,0,1-.5,1.87Z"/><path class="cls-2" d="M44.73,78.74a1,1,0,0,1-.49-.13l-29.8-17a1,1,0,1,1,1-1.74l29.8,17a1,1,0,0,1-.5,1.87Z"/></g></g></svg>