<svg xmlns="http://www.w3.org/2000/svg" viewBox="0 0 91.83 163.96"><defs><style>.cls-1{fill:#ffd9b8;}.cls-2{fill:#754142;}.cls-3{fill:#fff7a4;}.cls-4{fill:#fff;}.cls-5{fill:#eeb5d6;}.cls-6{fill:#913d88;}.cls-7{fill:#9996ba;}</style></defs><title>citoyen</title><g id="Calque_2" data-name="Calque 2"><g id="Calque_1-2" data-name="Calque 1"><rect class="cls-1" x="34.43" y="82.46" width="19.45" height="17.62"/><path class="cls-2" d="M34.24,84s6.52,4.4,19.82,0Z"/><path class="cls-1" d="M12.84,56.89S19.23,83.7,36.55,84.11,65.22,87.41,73.88,62c0,0,14.23-29.91-5.36-46.41S30.37,7,24,13.57,11.39,35.23,11.59,40.8,12.84,56.89,12.84,56.89Z"/><path class="cls-1" d="M5.41,41.63s-2.48.41-2.68,5,1.57,12.58,6.56,14,5.61.62,6,0S7,41.63,7,41.63"/><path class="cls-3" d="M11.59,51.73S6.64,45.13,6.23,40.8,5.2,15,23.35,5.81s35.47-4.67,41.25,0,12.25,11.27,14.28,19.1,3.42,13.36,1.19,19a80.82,80.82,0,0,0-3.3,10.05c-.19.65-2.89-17.27-2.89-17.27S64,30.49,57.8,20.58c0,0-15.68,14.64-31.76,16.09,0,0-8.49,2.93-11.14,1.24S11.59,51.73,11.59,51.73Z"/><path class="cls-3" d="M76.75,54.47c-.55,0-.7-.1-3.33-17.49A58.47,58.47,0,0,1,57.69,21.35c-2.68,2.37-17,14.48-31.55,15.81a33.37,33.37,0,0,1-8.74,1.77,5.12,5.12,0,0,1-2.77-.6.27.27,0,0,0-.12,0c-1,0-2.1,6.29-2.41,13.47L12,53.15,11.19,52c-.21-.27-5-6.77-5.46-11.18C5.49,38.24,3.86,15.08,23.13,5.37A49.31,49.31,0,0,1,45.2,0c9.6,0,16.62,2.92,19.72,5.42,7.92,6.4,12.78,12.91,14.45,19.37,2,7.83,3.47,13.49,1.17,19.29a79.48,79.48,0,0,0-3.17,9.59l-.11.42-.1.36-.39,0ZM57.9,19.8l.32.52C64.27,30,74.05,36.19,74.15,36.25l.2.12,0,.23c.75,5,1.84,12,2.43,15.28a83.44,83.44,0,0,1,2.79-8.17c2.18-5.49.76-11-1.21-18.67C76.78,18.8,72,12.46,64.29,6.2,61.32,3.8,54.54,1,45.2,1A48.32,48.32,0,0,0,23.58,6.26C4.9,15.68,6.49,38.21,6.73,40.75c.29,3.08,3,7.44,4.43,9.51.27-4.8,1.07-13,3.34-13a1.22,1.22,0,0,1,.66.21,4.29,4.29,0,0,0,2.23.45c3.4,0,8.43-1.72,8.48-1.73l.12,0c15.74-1.41,31.31-15.81,31.47-16Z"/><ellipse class="cls-4" cx="32.02" cy="48.33" rx="3.77" ry="6.29"/><ellipse class="cls-4" cx="54.49" cy="46.87" rx="3.77" ry="6.29"/><ellipse class="cls-2" cx="54.49" cy="46.87" rx="2.41" ry="4.02"/><circle class="cls-5" cx="57.67" cy="60.13" r="0.77"/><circle class="cls-5" cx="62.75" cy="59.03" r="0.77"/><circle class="cls-5" cx="32.15" cy="60.35" r="0.77"/><circle class="cls-5" cx="27.07" cy="59.25" r="0.77"/><ellipse class="cls-2" cx="32.02" cy="48.33" rx="2.41" ry="4.02"/><path class="cls-2" d="M41.71,57.37H46.6s-1.77,2.69-2.84,2.13A7,7,0,0,1,41.71,57.37Z"/><path class="cls-2" d="M27.93,41a.5.5,0,0,1-.37-.83c2.93-3.3,8.49-1.46,8.72-1.38a.5.5,0,1,1-.32.95c-.05,0-5.16-1.71-7.65,1.1A.5.5,0,0,1,27.93,41Z"/><path class="cls-2" d="M49.79,39.19a.5.5,0,0,1-.37-.83c2.93-3.3,8.49-1.46,8.72-1.38a.5.5,0,1,1-.32.95c-.05,0-5.16-1.71-7.65,1.09A.5.5,0,0,1,49.79,39.19Z"/><ellipse class="cls-1" cx="9.02" cy="156.53" rx="6.52" ry="7.43"/><ellipse class="cls-1" cx="82.84" cy="155.3" rx="6.52" ry="7.43"/><path class="cls-6" d="M67.26,121.45S70.73,153.6,66,157.18s-39.25,1.89-41.8,1.15-.73-33.41-.73-33.41S17.75,155,16.62,156.53,1,156.92,1,156.92c-3-7.31,7.51-53.86,14.39-58.13s19-4.24,19-4.24,9.18,11.05,19.57,0c0,0,18.49,3.13,22.23,6.81s15.13,49.76,15.13,53.93c0,0-13.57,0-15.39.32S67.26,121.45,67.26,121.45Z"/><path class="cls-6" d="M46,159.88c-10.07,0-20.48-.65-21.94-1.07-2.14-.61-1.9-15.84-1.44-26.92-1.83,9.3-4.78,23.81-5.63,24.94-.36.49-1.41,1-6.43,1-4.37,0-9.55-.39-9.6-.4l-.31,0-.12-.29c-1.65-4,.55-18.23,3.47-30.51,2.88-12.1,7.31-25.87,11.12-28.24C22,94.09,33.89,94,34.39,94h.23l.16.18s4,4.73,9.49,4.73c3.22,0,6.36-1.6,9.33-4.75l.18-.2.26,0c.76.13,18.69,3.2,22.5,6.95s15.28,50.33,15.28,54.29v.5h-.5c-4.68,0-13.89.07-15.3.32h-.11c-.66,0-1.56,0-5.51-17.47-.68-3-1.33-6-1.89-8.66.7,10,1.17,25-2.18,27.59C63.83,159.48,53.92,159.88,46,159.88ZM23,124.83l1,.12c-.86,15.38-.94,31.9.41,32.92,1.19.34,11.18,1,21.63,1,10.92,0,17.92-.75,19.69-2.1,3.67-2.8,2-26.41,1-35.28l1-.15c2.44,12.29,6.8,32.09,8.26,33.74,1.9-.27,12.27-.31,14.79-.31-.65-6.55-11.56-49.74-15-53.08s-19.45-6.23-21.7-6.63C51,98.32,47.72,100,44.28,100,38.89,100,35,96,34.18,95c-1.72,0-12.29.31-18.49,4.17C12.76,101,8.57,111.87,5,126.83c-3.26,13.72-4.75,26-3.62,29.61,1.2.09,5.5.37,9.2.37,5,0,5.58-.53,5.63-.59C17,155.08,20.81,136.36,23,124.83Z"/><path class="cls-5" d="M31.83,68.29l24.65.18s-9,6.36-14.09,5.22S31.83,68.29,31.83,68.29Z"/><path class="cls-7" d="M43.65,115.1c-5,1.83-4.87,24.52-1.94,27.65s13.32,8.38,16.73,6.34S62.5,126.32,62,120.45,48.66,113.28,43.65,115.1Z"/><path class="cls-7" d="M56.4,150h0c-4.64,0-12.54-4.28-15.05-7-2.32-2.48-3-15.32-1.15-22.91.76-3.16,1.86-5,3.28-5.55a17.33,17.33,0,0,1,5.64-.8c6.15,0,13,2.06,13.36,6.57.48,5.46.05,26.83-3.78,29.12A4.47,4.47,0,0,1,56.4,150Zm-7.28-35.22a16.35,16.35,0,0,0-5.3.74c-1.06.38-2,2.1-2.65,4.84-1.82,7.61-1,20,.91,22,2.34,2.5,10,6.64,14.32,6.64a3.5,3.5,0,0,0,1.79-.39c2.88-1.72,3.91-21.2,3.3-28.17C61.16,116.78,55,114.83,49.12,114.83Z"/></g></g></svg>