<svg xmlns="http://www.w3.org/2000/svg" viewBox="0 0 210.34 153.84"><defs><style>.cls-1{fill:#b91c48;}.cls-2{fill:#eeafe4;}.cls-3{fill:#ffc9a4;}.cls-4{fill:#f7dbbf;}.cls-5{fill:#7541a3;}.cls-6{fill:#bff1ff;}.cls-7{fill:#00ce9a;}.cls-8{fill:#fff;}.cls-9{fill:#e4ccb1;}.cls-10{fill:none;stroke:#71dcee;stroke-linecap:round;stroke-linejoin:round;}.cls-11{fill:#efd7c1;}.cls-12{fill:#ff8f54;}.cls-13{fill:#ebb16b;}.cls-14{fill:#4a806c;}.cls-15{fill:#ff777e;}.cls-16{fill:#cb416a;}.cls-17{fill:#71dcee;}.cls-18{fill:#55508c;}.cls-19{fill:#2d1a7a;}.cls-20{fill:#ffb9dc;}.cls-21{fill:#00a19a;}.cls-22{fill:#ff4c83;}.cls-23{fill:#ffe3a4;}.cls-24{fill:#fff7a4;}</style></defs><title>commercant</title><g id="Calque_2" data-name="Calque 2"><g id="Calque_1-2" data-name="Calque 1"><path class="cls-1" d="M101.44,80.64l7.07,11.64,8.18-11.71c6.21,0,12.91,0,15.4.69s11.64,26.18,12.41,32.8-1.05,27.81-1.05,27.81l-13.67.35-.7-24.3-2.41-13.45v37.41H89l-.28-30.68-2.93,5.74v24.94h-15s-.93-21.34,0-26S82.64,83,85.65,80.65s15.52,0,15.52,0h.27"/><path class="cls-1" d="M129.77,142.73a.5.5,0,0,1-.5-.49l-.7-24.3-1.41-7.85v31.8a.5.5,0,0,1-.5.5H89a.5.5,0,0,1-.5-.5l-.26-28.64-1.95,3.82v24.82a.5.5,0,0,1-.5.5h-15a.5.5,0,0,1-.5-.48c0-.87-.92-21.45,0-26.17.85-4.3,11.7-32.87,15-35.49,1-.78,2.85-1.15,5.67-1.15a66.55,66.55,0,0,1,10.25,1.06h.17a.56.56,0,0,1,.44.24l6.67,11,7.74-11.08a.5.5,0,0,1,.41-.21h2.75c5.06,0,10.53.08,12.79.72,3,.86,12.12,27.64,12.77,33.23.76,6.6-1,27-1.05,27.91a.5.5,0,0,1-.49.46l-13.67.35ZM126.66,104a.5.5,0,0,1,.49.41l2.41,13.45.69,23.88L143,141.4c.25-3.09,1.71-21.3,1-27.27-.83-7.17-10-31.68-12-32.38s-7.82-.68-12.52-.68h-2.48l-8,11.5a.5.5,0,0,1-.84,0l-6.92-11.4A67,67,0,0,0,91,80.1c-3.18,0-4.5.51-5.05.94-2.89,2.26-13.8,30.45-14.68,34.89-.83,4.21-.14,22.27,0,25.45h14V116.95a.5.5,0,0,1,.05-.23L88.25,111a.5.5,0,0,1,.95.22l.27,30.18h36.69V104.48a.5.5,0,0,1,.46-.5Z"/><polygon class="cls-2" points="101.44 80.07 94.15 79.05 101.44 104.85 107.76 91.06 101.44 80.07"/><path class="cls-2" d="M101.44,105.35h0A.5.5,0,0,1,101,105l-7.29-25.8a.5.5,0,0,1,.55-.63l7.29,1a.5.5,0,0,1,.36.25l6.33,11a.5.5,0,0,1,0,.46l-6.33,13.79A.5.5,0,0,1,101.44,105.35Zm-6.6-25.7,6.71,23.76,5.65-12.32-6.08-10.55Z"/><polygon class="cls-2" points="116.72 80.52 123.33 80.52 115.51 105.3 108.38 91.69 116.72 80.52"/><path class="cls-2" d="M115.51,105.8a.5.5,0,0,1-.44-.27l-7.14-13.62a.5.5,0,0,1,0-.53l8.34-11.16a.5.5,0,0,1,.4-.2h6.61a.5.5,0,0,1,.48.65L116,105.45a.5.5,0,0,1-.43.35ZM109,91.73,115.4,104l7.25-23H117Z"/><path class="cls-3" d="M123.09,89.64c-12.3,12.3-30.65,0-30.65,0L87.3,113.95l-1.53,27.94,44.92.38-4-35.38Z"/><path class="cls-3" d="M130.69,142.77h0l-44.92-.38a.5.5,0,0,1-.5-.53l1.53-27.94L92,89.53a.5.5,0,0,1,.3-.36.49.49,0,0,1,.47,0c.08.05,8.14,5.38,17,5.38a17.84,17.84,0,0,0,13.06-5.32.51.51,0,0,1,.5-.13.5.5,0,0,1,.35.38l3.57,17.25,4,35.42a.5.5,0,0,1-.5.56ZM86.3,141.39l43.83.37-4-34.82-3.38-16.32a18.79,18.79,0,0,1-13.11,5c-7.8,0-14.81-3.89-16.9-5.16l-5,23.61Z"/><line class="cls-3" x1="92.44" y1="89.64" x2="98.67" y2="79.05"/><path class="cls-3" d="M92.44,90.14a.5.5,0,0,1-.43-.75l6.23-10.59a.5.5,0,1,1,.86.51L92.87,89.89A.5.5,0,0,1,92.44,90.14Z"/><line class="cls-3" x1="123.09" y1="89.64" x2="116.71" y2="79.05"/><path class="cls-3" d="M123.09,90.14a.5.5,0,0,1-.43-.24L116.28,79.3a.5.5,0,0,1,.86-.52l6.38,10.59a.5.5,0,0,1-.43.76Z"/><path class="cls-4" d="M94.15,106.71s-1.7,12.44-1,13.84,29.07,1.75,29.52,0-2-12.09-2.27-13.84S94.15,106.71,94.15,106.71Z"/><path class="cls-4" d="M109.2,122.24h0c-3.7,0-15.82-.11-16.5-1.46s.67-12,1-14.13a.5.5,0,0,1,.46-.43c.12,0,11.65-.78,19.36-.78,6.69,0,7.32.54,7.41,1.2.07.45.29,1.5.57,2.83,1.08,5.17,2,9.91,1.7,11.21C123,121.11,122.75,122.24,109.2,122.24Zm-15.63-2c.88.48,7.25,1,15.63,1h0c8.53,0,12.39-.52,13-.9.22-1.37-1-7.4-1.72-10.67-.26-1.25-.47-2.25-.56-2.77-.27-.15-1.45-.47-6.45-.47-6.85,0-16.77.61-18.88.75C93.81,113,93.23,119.25,93.57,120.27Z"/><path class="cls-5" d="M30.92,82.47s-6.4,12.46-6.4,13.84c0,.64-2.39,20.53.15,28.6,3,9.48,10.7,9.46,20.07,7.51,5.36-1.12,1.7-32.26,1.47-34.86C46.08,96,42,82.58,41.35,83,33.76,88.22,30.92,82.47,30.92,82.47Z"/><path class="cls-6" d="M36.35,133.58h0c-4.85,0-9.66-1-12-8.55-1.5-4.76-1.59-14.09-.26-27.73.05-.55.09-.89.09-1,0-1.4,5.57-12.32,6.4-13.93V75.84a.38.38,0,0,1,.38-.37h9.66a.38.38,0,0,1,.29.13.37.37,0,0,1,.09.3,26.53,26.53,0,0,0,.55,5.54,20.34,20.34,0,0,0,1.91,5.35,29.9,29.9,0,0,1,3.17,10.73l0,.45c1.47,15.67,2.25,34.47-2.36,35A74.82,74.82,0,0,1,36.35,133.58Zm-5-57.36v6.26a.38.38,0,0,1,0,.17C28.8,87.43,24.9,95.38,24.9,96.32c0,.08,0,.45-.09,1C23.16,114.23,24,121.6,25,124.8c2.1,6.66,6,8,11.31,8a73.94,73.94,0,0,0,7.84-.61c3-.34,3.65-13.43,1.7-34.17l0-.45a29.28,29.28,0,0,0-3.1-10.49,21.13,21.13,0,0,1-2-5.55,38,38,0,0,1-.57-5.34Z"/><ellipse class="cls-7" cx="35.86" cy="77.86" rx="6.92" ry="3.85"/><path class="cls-8" d="M40.92,95.36s2.34,22.8,1.87,25.9-3,.33-3,.33Z"/><path class="cls-8" d="M41.69,123.24a4,4,0,0,1-2.3-1.3.49.49,0,0,1-.13-.36l1.17-26.24a.5.5,0,0,1,1,0c.1.93,2.34,22.9,1.87,26C43,122.91,42.28,123.24,41.69,123.24Zm-1.43-1.83a2.75,2.75,0,0,0,1.43.83c.37,0,.53-.57.61-1,.29-1.92-.54-11.79-1.19-18.74Z"/><polygon class="cls-9" points="101.17 79.05 102.83 92.28 113.36 92.28 115.85 79.05 101.17 79.05"/><path class="cls-10" d="M98.67,80.52"/><path class="cls-10" d="M101.44,80.64"/><path class="cls-11" d="M76.44,42.13S67.91,59.86,82.6,59.86V47.12Z"/><path class="cls-11" d="M139.45,39.73s8.49,18.61-6.13,17.24l-.47-12.85Z"/><path class="cls-12" d="M79.83,50.17l-5-11s-1.39-13.73,0-16.23S81.57,12,81.57,12s-1.74-7.18-2-8.74-1.66.63,42.4-2.81c0,0,20,1.25,20,35.27l-8,14.67"/><path class="cls-12" d="M133.94,50.94a.5.5,0,0,1-.44-.74l7.9-14.56C141.35,2.6,122.11,1,121.92,1,96.35,3,86,3.09,82,3.13c-.95,0-1.65,0-2,0v0c.27,1.53,2,8.64,2,8.71a.5.5,0,0,1-.06.38c-.05.08-5.35,8.44-6.71,10.9-1.07,1.92-.33,12,.05,15.86l5,10.89a.5.5,0,0,1-.91.41l-5-11a.49.49,0,0,1,0-.16c-.14-1.42-1.36-14,.06-16.52C75.68,20.42,80.23,13.22,81,12c-.29-1.21-1.72-7.14-2-8.56l0-.15a.82.82,0,0,1,.1-.74c.28-.35.63-.36,2.91-.38,3.9,0,14.28-.13,39.88-2.13.27,0,20.49,1.67,20.49,35.77a.5.5,0,0,1-.06.24l-8,14.67A.5.5,0,0,1,133.94,50.94Z"/><path class="cls-4" d="M82.4,28c.55-2.49,12.2-8.87,12.2-8.87s33,0,36.3,6.93,4.21,22.49,4.21,22.49.43,9.9-.76,13.84c-.25.84-10.93,20.2-26.5,18.81S81.57,58.76,81.57,58.76V51.55Z"/><path class="cls-4" d="M109.44,81.77c-.54,0-1.1,0-1.64-.07-6.5-.58-13.18-4.7-19.31-11.92A62.81,62.81,0,0,1,81.12,59l-.05-.11V51.55L81.9,28c.59-2.68,10.48-8.21,12.46-9.29l.11-.06h.13c1.36,0,33.33.08,36.75,7.21,3.33,6.94,4.22,22,4.25,22.68,0,.41.42,10-.78,14C134.35,64.09,124.05,81.77,109.44,81.77ZM82.07,58.63c.84,1.6,11.26,20.77,25.82,22.07.52,0,1,.07,1.55.07,13.75,0,23.79-16.73,24.42-18.53,1.14-3.81.74-13.57.74-13.66s-.91-15.54-4.16-22.3c-2.6-5.43-26.54-6.63-35.72-6.65-4.43,2.44-11.47,6.83-11.83,8.47l-.82,23.46Z"/><path class="cls-13" d="M105,57.65s.44.23,1.07.51a9.74,9.74,0,0,0,1.07.39,4.49,4.49,0,0,0,1.21.19,2.59,2.59,0,0,0,.61,0,5.05,5.05,0,0,0,.59-.11c.19,0,.37-.13.55-.18a5.34,5.34,0,0,0,.49-.22,8.11,8.11,0,0,0,.75-.4l.31-.15s-.05.11-.17.3a3.07,3.07,0,0,1-.55.72,2.6,2.6,0,0,1-.46.41,3.83,3.83,0,0,1-.61.36,3.32,3.32,0,0,1-.73.24,3.46,3.46,0,0,1-.8.07,3.77,3.77,0,0,1-1.5-.37,4.21,4.21,0,0,1-1.08-.73A3.29,3.29,0,0,1,105,57.65Z"/><path class="cls-2" d="M96.47,66.51h24.1s-5.48,5.64-12.48,5.54S96.47,66.51,96.47,66.51Z"/><ellipse class="cls-8" cx="98.67" cy="45.75" rx="2.98" ry="6.02"/><ellipse class="cls-14" cx="98.67" cy="45.75" rx="1.84" ry="3.71"/><ellipse class="cls-8" cx="119.69" cy="45.75" rx="2.98" ry="6.02"/><ellipse class="cls-14" cx="119.69" cy="45.75" rx="1.84" ry="3.71"/><path class="cls-12" d="M91.57,37.3a.5.5,0,0,1-.11-1l12.62-2.8a.5.5,0,1,1,.22,1l-12.62,2.8Z"/><path class="cls-12" d="M126.44,37.3h-.11l-12.09-2.8a.5.5,0,0,1,.23-1l12.09,2.8a.5.5,0,0,1-.11,1Z"/><path class="cls-15" d="M29.77,98.13s-1.38,16-1,18.58-1.38,14.45-1,16.35-.61,6,0,7.4,26.37,0,26.37,0-.17-11.36,0-12.39-2.93-14.11-3.1-14.8-2.41-11.7-2.41-11.7l.17-5.33Z"/><path class="cls-15" d="M34.75,142.07h0c-7.15,0-7.7-.47-8-1.23a10.66,10.66,0,0,1-.1-4.29,15.55,15.55,0,0,0,.09-3.31c-.18-1,.06-3.65.47-7.88a66.22,66.22,0,0,0,.55-8.51c-.35-2.61.88-17.15,1-18.8a1,1,0,0,1,.9-.91L48.6,95.25a1,1,0,0,1,.78.26,1,1,0,0,1,.32.76l-.17,5.22c.9,4.42,2.25,11.06,2.38,11.54,0,.14,3.34,13.82,3.11,15.2-.1.66-.07,6.79,0,12.21a1,1,0,0,1-.95,1C54,141.47,42.5,142.07,34.75,142.07Zm-6.24-2.3a36.7,36.7,0,0,0,6.23.3c6.39,0,15.35-.42,18.27-.56,0-3.08-.13-10.66,0-11.6,0-1.14-2.66-12.71-3.08-14.39-.17-.69-2.19-10.61-2.42-11.74a1,1,0,0,1,0-.23l.13-4.19-17,1.7c-.41,4.92-1.22,15.63-1,17.54a61.12,61.12,0,0,1-.54,9,61.09,61.09,0,0,0-.5,7.33,16.08,16.08,0,0,1-.07,3.85A18.07,18.07,0,0,0,28.51,139.78Z"/><polygon class="cls-16" points="30.91 98.71 32.52 103.81 51.62 101.26 48.7 96.93 30.91 98.71"/><path class="cls-16" d="M32.52,104.81a1,1,0,0,1-1-.7L30,99a1,1,0,0,1,.85-1.3L48.6,95.93a1,1,0,0,1,.93.44l2.93,4.33a1,1,0,0,1-.7,1.55l-19.1,2.55Zm-.29-5.23,1,3.13,16.67-2.23L48.2,98Z"/><polygon class="cls-15" points="30.91 98.02 32.52 103.12 51.62 100.57 48.7 96.24 30.91 98.02"/><path class="cls-15" d="M32.52,104.12a1,1,0,0,1-1-.7L30,98.32a1,1,0,0,1,.85-1.3L48.6,95.25a1,1,0,0,1,.93.43L52.45,100a1,1,0,0,1-.7,1.55l-19.1,2.55Zm-.29-5.23,1,3.13,16.67-2.23L48.2,97.3Z"/><path class="cls-6" d="M35,112.88v14.77s14.35,0,15.78-1S48,110.78,48,110.78Z"/><path class="cls-6" d="M35.06,128.65h-.11a1,1,0,0,1-1-1V112.88a1,1,0,0,1,.84-1l13.06-2.09a1,1,0,0,1,1.12.72c4.32,15.4,2.89,16.48,2.36,16.89C50,128.43,41.73,128.65,35.06,128.65Zm.9-14.92v12.92c7,0,12.78-.36,14.05-.8.29-1.47-1.11-8.07-2.72-13.93Z"/><path class="cls-16" d="M42.21,115.39a.5.5,0,0,1-.11-1l5-1.13a.5.5,0,1,1,.22,1l-5,1.13Z"/><path class="cls-16" d="M43.61,121.38a.5.5,0,0,1-.11-1l5-1.13a.5.5,0,1,1,.22,1l-5,1.13Z"/><path class="cls-16" d="M40.76,119a.5.5,0,0,1-.11-1l7.26-1.61a.5.5,0,0,1,.22,1L40.86,119Z"/><path class="cls-17" d="M52.89,101.5s-1.37,16-1,18.58-1.38,14.45-1,16.34-.61,6,0,7.4,26.37,0,26.37,0-.17-11.36,0-12.39-2.93-14.11-3.1-14.8-2.41-11.7-2.41-11.7l.17-5.33Z"/><path class="cls-17" d="M57.87,145.44h0c-7.15,0-7.7-.47-8-1.23a10.66,10.66,0,0,1-.1-4.29,15.59,15.59,0,0,0,.09-3.31c-.18-1,.06-3.65.47-7.88a66.24,66.24,0,0,0,.55-8.51c-.35-2.61.88-17.15,1-18.8a1,1,0,0,1,.9-.91l18.93-1.89a1,1,0,0,1,1.1,1l-.17,5.22c.9,4.42,2.25,11.06,2.38,11.54,0,.14,3.34,13.83,3.11,15.2-.11.75-.05,7.88,0,12.21a1,1,0,0,1-.95,1C77.09,144.83,65.62,145.44,57.87,145.44Zm-6.24-2.3a36.56,36.56,0,0,0,6.23.3c6.39,0,15.35-.42,18.27-.56,0-3.08-.13-10.66,0-11.6,0-1.13-2.59-12.42-3.08-14.39-.17-.69-2.19-10.61-2.42-11.74a1,1,0,0,1,0-.23l.13-4.19-17,1.7c-.41,4.92-1.22,15.63-1,17.54a61.15,61.15,0,0,1-.54,9,61.06,61.06,0,0,0-.5,7.32,16.15,16.15,0,0,1-.07,3.84A17.89,17.89,0,0,0,51.63,143.14Z"/><polygon class="cls-5" points="54.03 102.07 55.65 107.17 74.74 104.62 71.82 100.29 54.03 102.07"/><path class="cls-18" d="M55.64,108.17a1,1,0,0,1-1-.7l-1.61-5.1a1,1,0,0,1,.85-1.3L71.72,99.3a1,1,0,0,1,.93.44l2.93,4.33a1,1,0,0,1-.7,1.55l-19.1,2.55Zm-.29-5.23,1,3.13L73,103.84l-1.69-2.5Z"/><polygon class="cls-17" points="54.03 101.38 55.65 106.48 74.74 103.93 71.82 99.6 54.03 101.38"/><path class="cls-17" d="M55.64,107.49a1,1,0,0,1-1-.7l-1.61-5.1a1,1,0,0,1,.85-1.3l17.78-1.78a1,1,0,0,1,.93.43l2.93,4.33a1,1,0,0,1-.7,1.55l-19.1,2.55Zm-.29-5.23,1,3.13L73,103.15l-1.69-2.5Z"/><path class="cls-8" d="M58.07,116.24V131s14.35,0,15.78-1-2.72-15.82-2.72-15.82Z"/><path class="cls-8" d="M58.19,132h-.11a1,1,0,0,1-1-1V116.24a1,1,0,0,1,.84-1L71,113.16a1,1,0,0,1,1.12.72c4.32,15.4,2.9,16.48,2.36,16.89C73.09,131.79,64.85,132,58.19,132Zm.89-14.92V130c7,0,12.79-.36,14.05-.8.29-1.47-1.11-8.07-2.72-13.94Z"/><path class="cls-18" d="M65.33,118.75a.5.5,0,0,1-.11-1l5-1.13a.5.5,0,0,1,.22,1l-5,1.13Z"/><path class="cls-18" d="M66.74,124.74a.5.5,0,0,1-.11-1l5-1.13a.49.49,0,0,1,.6.38.5.5,0,0,1-.38.6l-5,1.13Z"/><path class="cls-18" d="M63.88,122.32a.5.5,0,0,1-.11-1l7.26-1.6a.5.5,0,1,1,.21,1L64,122.31Z"/><ellipse class="cls-4" cx="136.69" cy="142.23" rx="6" ry="7.3" transform="translate(-0.78 0.76) rotate(-0.32)"/><path class="cls-4" d="M136.7,150c-3.57,0-6.49-3.48-6.51-7.76a8.62,8.62,0,0,1,1.84-5.49,6,6,0,0,1,4.62-2.34c3.6,0,6.53,3.48,6.55,7.76s-2.88,7.81-6.46,7.83Zm0-14.59a5,5,0,0,0-3.87,2,7.61,7.61,0,0,0-1.62,4.85c0,3.73,2.49,6.76,5.51,6.76v.5l0-.5c3,0,5.49-3.08,5.47-6.83S139.7,135.44,136.68,135.44Z"/><ellipse class="cls-4" cx="78.41" cy="143.92" rx="6.01" ry="7.3" transform="translate(-8.62 5.04) rotate(-3.49)"/><path class="cls-4" d="M78.55,151.71c-3.46,0-6.38-3.25-6.63-7.4s2.44-8,6-8.18,6.71,3.1,7,7.39a8.61,8.61,0,0,1-1.54,5.58,6,6,0,0,1-4.48,2.59Zm-.28-14.58H78c-3,.18-5.31,3.38-5.08,7.12s2.87,6.65,5.91,6.45a5,5,0,0,0,3.73-2.18,7.61,7.61,0,0,0,1.35-4.93C83.68,140,81.21,137.12,78.27,137.12Z"/><path class="cls-19" d="M2.16,142.91H208.53s2.93,5.35,0,8-206.37,2.4-206.37,2.4-3.77-5.21,0-10.42"/><path class="cls-19" d="M17.3,153.84H2.16a.5.5,0,0,1-.4-.21c0-.05-3.93-5.56,0-11a.5.5,0,0,1,.41-.21H208.53a.5.5,0,0,1,.44.26c.13.23,3.08,5.73-.1,8.63C206.44,153.51,87.8,153.84,17.3,153.84Zm-14.87-1H17.3c90.2,0,187.72-.61,190.94-2.31,2.22-2,.5-6.06,0-7.12H2.42A8.54,8.54,0,0,0,2.43,152.83Z"/><path class="cls-12" d="M166.86,94.06l4.79,10.89v31.93l-.15,4.69-8.2,4.06-3.41.21-6.24-2.73-1.73-1.8-1.35-2.08-.32-10.31.07-20.58,1-3.34,2.44-5.19,2.88-5.75S162,98.44,166.86,94.06Z"/><path class="cls-6" d="M160.88,146.38h0c-7.18,0-10.92-6.67-11.06-7.78-.12-.93-.07-15.66,0-28.38,0-1.4,0-2.33,0-2.55,0-1.39,5.12-11.45,6.29-13.74v-6.4a.5.5,0,0,1,.5-.5h9.51a.5.5,0,0,1,.49.58,26.24,26.24,0,0,0,.55,5.41,17.25,17.25,0,0,0,2.16,5.31A26,26,0,0,1,172.9,109c.7,7.82-.84,31.6-.91,32.61a.5.5,0,0,1-.2.37C168,144.9,164.28,146.38,160.88,146.38ZM157.1,88v6a.51.51,0,0,1-.05.23c-3,5.86-6.22,12.55-6.24,13.39,0,.22,0,1.15,0,2.55,0,6.75-.12,27.27,0,28.25.09.56,3.34,6.9,10.07,6.9h0c3.13,0,6.54-1.37,10.13-4.07.16-2.51,1.55-24.89.89-32.23a25.13,25.13,0,0,0-3.48-10.27,18.21,18.21,0,0,1-2.27-5.63,39.76,39.76,0,0,1-.57-5.14Z"/><ellipse class="cls-17" cx="161.56" cy="84.83" rx="6.81" ry="3.78"/><path class="cls-20" d="M191.43,103.87s1.38,16,1,18.58,1.38,14.45,1,16.34.61,6,0,7.4-26.37,0-26.37,0,.17-11.36,0-12.39,2.93-14.11,3.1-14.8,2.41-11.7,2.41-11.7l-.17-5.33Z"/><path class="cls-20" d="M186.46,147.81c-7.75,0-19.22-.61-19.34-.61a1,1,0,0,1-.95-1c.08-5.42.12-11.54,0-12.21-.23-1.37,3.08-15.07,3.11-15.2.14-.54,1.74-8.41,2.38-11.54l-.17-5.22a1,1,0,0,1,1.1-1l18.93,1.89a1,1,0,0,1,.9.91c.14,1.65,1.38,16.19,1,18.8a66.32,66.32,0,0,0,.55,8.52c.41,4.23.66,6.87.47,7.87a15.6,15.6,0,0,0,.09,3.31,10.66,10.66,0,0,1-.1,4.29C194.16,147.34,193.6,147.81,186.46,147.81Zm-18.27-2.56c2.92.15,11.88.56,18.27.56a36.76,36.76,0,0,0,6.24-.3,18,18,0,0,0-.11-3,16.21,16.21,0,0,1-.07-3.84,60.49,60.49,0,0,0-.5-7.32,61.18,61.18,0,0,1-.54-9c.25-1.91-.56-12.62-1-17.54l-17-1.7.13,4.19a1,1,0,0,1,0,.23c-.23,1.13-2.25,11.05-2.42,11.74-.49,2-3.11,13.26-3.08,14.45C168.32,134.59,168.23,142.16,168.19,145.24Z"/><polygon class="cls-21" points="190.29 104.44 188.68 109.55 169.58 106.99 172.51 102.66 190.29 104.44"/><path class="cls-21" d="M188.68,110.54h-.13L169.45,108a1,1,0,0,1-.7-1.55l2.93-4.33a1,1,0,0,1,.93-.44l17.78,1.78a1,1,0,0,1,.85,1.3l-1.61,5.1A1,1,0,0,1,188.68,110.54Zm-17.37-4.33L188,108.44l1-3.13-16-1.6Z"/><polygon class="cls-20" points="190.29 103.75 188.68 108.86 169.58 106.3 172.51 101.97 190.29 103.75"/><path class="cls-20" d="M188.68,109.86h-.13l-19.1-2.55a1,1,0,0,1-.7-1.55l2.93-4.33a1,1,0,0,1,.93-.43l17.78,1.78a1,1,0,0,1,.85,1.3l-1.61,5.1A1,1,0,0,1,188.68,109.86Zm-17.37-4.33L188,107.75l1-3.13L173,103Z"/><path class="cls-6" d="M186.25,118.61v14.77s-14.35,0-15.78-1,2.72-15.82,2.72-15.82Z"/><path class="cls-6" d="M186.14,134.38c-6.67,0-14.9-.22-16.27-1.25-.54-.41-2-1.49,2.36-16.89a1,1,0,0,1,1.12-.72l13.06,2.09a1,1,0,0,1,.84,1v14.77a1,1,0,0,1-1,1Zm-14.94-2.79c1.19.43,7,.76,14,.79V119.46l-11.34-1.82C172.31,123.52,170.9,130.14,171.2,131.59Z"/><path class="cls-21" d="M179,121.13h-.11l-5-1.13a.5.5,0,0,1,.22-1l5,1.13a.5.5,0,0,1-.11,1Z"/><path class="cls-21" d="M177.59,127.11h-.11l-5-1.13a.5.5,0,1,1,.22-1l5,1.13a.5.5,0,0,1-.11,1Z"/><path class="cls-21" d="M180.45,124.7h-.11l-7.26-1.6a.5.5,0,0,1,.21-1l7.26,1.6a.5.5,0,0,1-.11,1Z"/><path class="cls-22" d="M40.24,118.07,42,141.18s11.28,7.34,21.85,0V118.07A42.45,42.45,0,0,1,40.24,118.07Z"/><path class="cls-22" d="M53.52,145.44a24,24,0,0,1-12-3.43,1,1,0,0,1-.45-.76l-1.79-23.11a1,1,0,0,1,1.28-1A40.51,40.51,0,0,0,52,118.74a39.41,39.41,0,0,0,11.54-1.62,1,1,0,0,1,1.33.95v23.11a1,1,0,0,1-.43.82A18.82,18.82,0,0,1,53.52,145.44ZM43,140.58a22.49,22.49,0,0,0,10.53,2.86,16.83,16.83,0,0,0,9.36-2.79V119.41A43.55,43.55,0,0,1,52,120.74a42.8,42.8,0,0,1-10.67-1.33Z"/><path class="cls-8" d="M42.39,126.28s.54,8.63,1.43,10.42,9.67,1.43,9.67,1.43l-1.43-11.85Z"/><path class="cls-8" d="M51.74,139.16c-7.8,0-8.51-1.41-8.81-2-.94-1.88-1.45-9.33-1.54-10.81a1,1,0,0,1,1-1.06h9.67a1,1,0,0,1,1,.88L54.49,138a1,1,0,0,1-1,1.12S52.8,139.16,51.74,139.16Zm-8.28-11.88c.24,3.29.73,7.92,1.26,9,.25.3,2.07.91,7,.91h.63l-1.19-9.88Z"/><ellipse class="cls-7" cx="52.06" cy="113.39" rx="13.97" ry="6.24"/><path class="cls-7" d="M52.06,120.63c-8.39,0-15-3.18-15-7.24s6.58-7.24,15-7.24,15,3.18,15,7.24S60.45,120.63,52.06,120.63Zm0-12.48c-7.64,0-13,2.76-13,5.24s5.33,5.24,13,5.24,13-2.76,13-5.24S59.7,108.15,52.06,108.15Z"/><path class="cls-8" d="M42.39,113.39a6.53,6.53,0,0,0,5.73,2.89C52.24,116.28,42.39,113.39,42.39,113.39Z"/><path class="cls-8" d="M48.12,117.28a7.5,7.5,0,0,1-6.61-3.41,1,1,0,0,1,1.16-1.45c7.66,2.25,7.56,3,7.45,3.78C50,117.28,48.67,117.28,48.12,117.28Z"/><path class="cls-23" d="M6.12,134.81S17.93,143.48,27.95,147c4,1.44,16,1.89,21.33-.79s7.1-9.7,5-12.11S38.16,127.79,33.17,127s-8.93-6.29-15.11-5.56-7,1.66-10,3.32c-5.91,3.24-2.57,6.9-1.94,10.07"/><path class="cls-23" d="M37.6,149.2h0a34.07,34.07,0,0,1-10-1.21c-10-3.57-21.6-12-22.09-12.38a1,1,0,0,1-.39-.61,13.6,13.6,0,0,0-.63-2c-1-2.63-2.32-6.22,3.07-9.17l1.19-.67c2.22-1.27,3.69-2.12,9.17-2.76a10.58,10.58,0,0,1,1.24-.07c3.38,0,6,1.6,8.63,3.15A16.44,16.44,0,0,0,33.33,126c4.56.74,19.29,4.68,21.73,7.5,1,1.18,1.35,3.14.9,5.37a12.09,12.09,0,0,1-6.23,8.29C46.16,148.93,40.6,149.2,37.6,149.2ZM7,134.22c1.89,1.36,12.39,8.72,21.27,11.89a32.63,32.63,0,0,0,9.32,1.1c4.8,0,8.89-.67,11.23-1.84A10,10,0,0,0,54,138.47a4.59,4.59,0,0,0-.46-3.67c-1.76-2-15.19-6-20.53-6.83a18.15,18.15,0,0,1-6.23-2.75c-2.62-1.57-5.31-3.18-8.6-2.8-5.08.6-6.33,1.32-8.41,2.51l-1.23.69c-3.87,2.12-3.11,4.15-2.15,6.72A18.79,18.79,0,0,1,7,134.22Z"/><path class="cls-24" d="M28.8,126.37s-9.46,3.95-12,6.64-3.06,5.16-2.82,5.79,3.34.8,5.46.09S23.7,137.33,25,136s7.66-6,9.06-7.68l-5-1.94"/><path class="cls-24" d="M16.25,140.33c-1.47,0-2.85-.3-3.19-1.18-.48-1.26.52-4.16,3-6.83s11.94-6.71,12.33-6.88a2,2,0,0,1,1,0l5,1.94a1,1,0,0,1,.41,1.56,48.42,48.42,0,0,1-5.56,4.79c-1.5,1.19-3.06,2.42-3.55,2.95-1.41,1.5-3.68,2.4-5.92,3.16A12.38,12.38,0,0,1,16.25,140.33ZM15,138.22a9.18,9.18,0,0,0,4.18-.29c2-.67,4-1.45,5.1-2.63A48.36,48.36,0,0,1,28,132.16c1.44-1.14,3.12-2.48,4.24-3.48l-3.29-1.29c-2.76,1.17-9.5,4.28-11.39,6.3A9.26,9.26,0,0,0,15,138.22Z"/><path class="cls-24" d="M39,129.61s-12.09,10.73-12.84,11.71,2.59,1,5.46.08,6.39-3.87,7.27-4.23,6.25-3.13,7.28-5Z"/><path class="cls-24" d="M27.64,143.09h0c-1.37,0-2.15-.3-2.47-1a1.34,1.34,0,0,1,.19-1.42c.78-1,10.94-10,13-11.85a1,1,0,0,1,1-.19l7.16,2.6a1,1,0,0,1,.53,1.42c-1.24,2.25-7.14,5.15-7.77,5.41a16.29,16.29,0,0,0-1.41.92,26.32,26.32,0,0,1-5.93,3.34A14.48,14.48,0,0,1,27.64,143.09Zm11.58-12.34c-3.82,3.4-9.31,8.32-11.43,10.34a12.8,12.8,0,0,0,3.51-.63,24.92,24.92,0,0,0,5.42-3.09,12,12,0,0,1,1.78-1.12,31.34,31.34,0,0,0,5.94-3.61Z"/><path class="cls-24" d="M50.65,133.85s-5.15,4.14-6.81,6.47-1.79,3.2-1.8,3.94.08,2.61,3.22.8,5-2.53,6.52-4.49A15.07,15.07,0,0,0,54.36,135Z"/><path class="cls-24" d="M43.14,146.83h0a2,2,0,0,1-1.46-.58,2.78,2.78,0,0,1-.64-2c0-1.1.35-2.19,2-4.5s6.78-6.5,7-6.67a1,1,0,0,1,.93-.17l3.7,1.17a1,1,0,0,1,.6.52c.49,1-1.52,5.1-2.68,6.59-1.31,1.69-2.84,2.53-4.94,3.69-.57.31-1.19.65-1.87,1A5.5,5.5,0,0,1,43.14,146.83ZM50.87,135c-1.24,1-4.91,4.11-6.2,5.93-1.6,2.26-1.61,2.93-1.62,3.38a1.14,1.14,0,0,0,.07.58l0,0h0a3.67,3.67,0,0,0,1.62-.63c.69-.4,1.33-.75,1.91-1.07,2-1.08,3.27-1.8,4.33-3.17a16.66,16.66,0,0,0,2.18-4.26Z"/><path class="cls-24" d="M19.1,120.8s-5.8,3-7.85,5a7.1,7.1,0,0,0-2,5c0,.2,15.23-5.14,15.25-6.86S19.1,120.8,19.1,120.8Z"/><path class="cls-24" d="M9.32,131.79h0a1,1,0,0,1-.72-.3,1,1,0,0,1-.29-.72,8.05,8.05,0,0,1,2.26-5.71c2.13-2.06,7.84-5,8.08-5.15a1,1,0,0,1,.71-.08c1.87.48,6.22,1.84,6.2,4.1C25.52,126.87,9.48,131.79,9.32,131.79Zm9.91-9.92c-1.25.67-5.63,3-7.27,4.63a5.51,5.51,0,0,0-1.52,2.92c3.34-1.11,11.61-4.31,13-5.63A11.73,11.73,0,0,0,19.22,121.87Z"/></g></g></svg>