<svg xmlns="http://www.w3.org/2000/svg" viewBox="0 0 280.02 125.1"><defs><style>.cls-1{fill:#dadada;}.cls-2{fill:#afd085;}.cls-3{fill:#4a806c;}.cls-4{fill:#b91c48;}.cls-5{fill:#fff;}.cls-6{fill:#64b9ea;}.cls-7{fill:#f66;}</style></defs><title>dashboard</title><g id="Calque_2" data-name="Calque 2"><g id="Calque_1-2" data-name="Calque 1"><ellipse class="cls-1" cx="140.01" cy="103.34" rx="140.01" ry="21.77"/><path class="cls-2" d="M32.21,56.39c-2.57,6.79-1.62,15.93-1.62,15.93S39.24,66.82,41.8,60s2.68-16.82,2.68-16.82S34.78,49.6,32.21,56.39Z"/><path class="cls-2" d="M30.59,73.32a1,1,0,0,1-1-.9c0-.38-.95-9.46,1.68-16.39S43.53,42.64,43.93,42.38a1,1,0,0,1,1.55.85c0,.42-.14,10.3-2.75,17.17S31.5,72.93,31.13,73.16A1,1,0,0,1,30.59,73.32ZM43.41,45.21C40.59,47.31,34.95,52,33.15,56.74s-1.8,10.82-1.67,13.74c2.5-1.84,7.59-6,9.4-10.8S43.23,48.45,43.41,45.21Z"/><path class="cls-3" d="M18.3,56.92c2.57,6.79,1.62,15.93,1.62,15.93s-8.64-5.5-11.21-12.29S6,43.74,6,43.74,15.73,50.13,18.3,56.92Z"/><path class="cls-3" d="M19.92,73.85a1,1,0,0,1-.54-.16c-.36-.23-9-5.76-11.61-12.78S5,44.17,5,43.75a1,1,0,0,1,1.55-.85c.41.27,10,6.65,12.66,13.66S21,72.57,20.91,73a1,1,0,0,1-1,.9ZM7.11,45.74c.17,3.24.74,9.73,2.54,14.47s6.9,9,9.4,10.81c.13-2.92.13-9-1.67-13.75S9.92,47.85,7.11,45.74Z"/><path class="cls-2" d="M27.85,55c-1.9,8.78-8.1,17.86-8.1,17.86S14.5,61.42,16.4,52.63s9.17-19.21,9.17-19.21S29.75,46.26,27.85,55Z"/><path class="cls-2" d="M19.75,73.91h-.09a1,1,0,0,1-.82-.58c-.22-.48-5.37-11.9-3.42-20.9s9-19.14,9.32-19.57a1,1,0,0,1,1.77.26c.17.53,4.25,13.2,2.31,22.15s-8,17.84-8.25,18.21A1,1,0,0,1,19.75,73.91Zm5.46-38.12c-2.11,3.32-6.46,10.69-7.83,17.06s1.23,14.41,2.57,17.9c1.82-3,5.55-9.56,6.93-15.91S26.27,39.71,25.21,35.79Z"/><path class="cls-3" d="M24.57,56.93c.28,9,4.72,19,4.72,19s7.26-10.35,7-19.33-5.53-20.55-5.53-20.55S24.3,47.94,24.57,56.93Z"/><path class="cls-3" d="M29.29,77h-.1a1,1,0,0,1-.82-.59C28.19,75.95,23.85,66,23.57,57s6-20.86,6.29-21.36a.94.94,0,0,1,.91-.52,1,1,0,0,1,.87.59c.22.48,5.34,11.86,5.62,20.94s-6.86,19.5-7.16,19.94A1,1,0,0,1,29.29,77Zm1.37-38.5c-1.76,3.67-5.29,11.91-5.09,18.43s2.67,13.67,3.92,16.9c1.95-3.19,6-10.61,5.78-17.14S32.14,42.12,30.67,38.46Z"/><path class="cls-4" d="M221,87.57V1.9a1.9,1.9,0,0,0-1.9-1.9H65.09a1.9,1.9,0,0,0-1.9,1.9V87.57Z"/><path class="cls-4" d="M231,106.79l-9-16.68H62.22L53,106.77a1.91,1.91,0,0,0,1.67,2.82H229.3a1.9,1.9,0,0,0,1.68-2.81Z"/><rect class="cls-5" x="70.17" y="7.83" width="144.32" height="72.79"/><path class="cls-6" d="M214.49,81.12H70.17a.5.5,0,0,1-.5-.5V7.83a.5.5,0,0,1,.5-.5H214.49a.5.5,0,0,1,.5.5V80.62A.5.5,0,0,1,214.49,81.12Zm-143.82-1H214V8.33H70.67Z"/><path class="cls-7" d="M5.46,69.88c-2.6,3.7,1.63,31,20.62,31.11,19.74.32,21.71-27,20.62-31.11S8.06,66.18,5.46,69.88Z"/><path class="cls-7" d="M26.42,102h-.36c-9.77-.07-15.31-6.84-18.23-12.51C3.88,81.79,2.77,72,4.64,69.3c2.3-3.27,20.71-3.36,22.8-3.36,8.78,0,19.42.64,20.22,3.68.76,2.88.23,16.32-6.47,25A17.85,17.85,0,0,1,26.42,102Zm1-34C14.78,67.94,7,69.4,6.28,70.45c-1,1.46-.82,10,3.34,18.11C12.28,93.74,17.3,99.93,26.08,100h.34A15.94,15.94,0,0,0,39.6,93.42c6.31-8.19,6.74-20.95,6.13-23.29C45.17,69.25,39.12,67.94,27.44,67.94Z"/><rect class="cls-6" x="76.3" y="13.98" width="132.47" height="10.16"/><path class="cls-6" d="M208.77,24.63H76.3a.5.5,0,0,1-.5-.5V14a.5.5,0,0,1,.5-.5H208.77a.5.5,0,0,1,.5.5V24.13A.5.5,0,0,1,208.77,24.63Zm-132-1H208.27V14.48H76.8Z"/><rect class="cls-6" x="160.95" y="29.8" width="20.53" height="12.05"/><path class="cls-6" d="M181.47,42.35H160.95a.5.5,0,0,1-.5-.5v-12a.5.5,0,0,1,.5-.5h20.53a.5.5,0,0,1,.5.5v12A.5.5,0,0,1,181.47,42.35Zm-20-1H181v-11H161.45Z"/><rect class="cls-6" x="186.97" y="29.8" width="20.53" height="12.05"/><path class="cls-6" d="M207.5,42.35H187a.5.5,0,0,1-.5-.5v-12a.5.5,0,0,1,.5-.5H207.5a.5.5,0,0,1,.5.5v12A.5.5,0,0,1,207.5,42.35Zm-20-1H207v-11H187.47Z"/><rect class="cls-6" x="160.95" y="48.58" width="46.55" height="25.08"/><path class="cls-6" d="M207.5,74.15H160.95a.5.5,0,0,1-.5-.5V48.58a.5.5,0,0,1,.5-.5H207.5a.5.5,0,0,1,.5.5V73.65A.5.5,0,0,1,207.5,74.15Zm-46.05-1H207V49.08H161.45Z"/><line class="cls-5" x1="76.3" y1="30.17" x2="154.07" y2="30.17"/><path class="cls-6" d="M154.07,31.17H76.3a1,1,0,0,1,0-2h77.77a1,1,0,0,1,0,2Z"/><line class="cls-5" x1="76.3" y1="37.47" x2="154.07" y2="37.47"/><path class="cls-6" d="M154.07,38.47H76.3a1,1,0,0,1,0-2h77.77a1,1,0,0,1,0,2Z"/><line class="cls-5" x1="76.3" y1="44.23" x2="154.07" y2="44.23"/><path class="cls-6" d="M154.07,45.23H76.3a1,1,0,0,1,0-2h77.77a1,1,0,0,1,0,2Z"/><line class="cls-5" x1="76.3" y1="50.9" x2="154.07" y2="50.9"/><path class="cls-6" d="M154.07,51.9H76.3a1,1,0,0,1,0-2h77.77a1,1,0,0,1,0,2Z"/><line class="cls-5" x1="76.81" y1="57.56" x2="154.58" y2="57.56"/><path class="cls-6" d="M154.58,58.56H76.81a1,1,0,0,1,0-2h77.77a1,1,0,0,1,0,2Z"/><line class="cls-5" x1="76.81" y1="63.81" x2="154.58" y2="63.81"/><path class="cls-6" d="M154.58,64.81H76.81a1,1,0,1,1,0-2h77.77a1,1,0,1,1,0,2Z"/><line class="cls-5" x1="76.81" y1="71.32" x2="154.58" y2="71.32"/><path class="cls-6" d="M154.58,72.32H76.81a1,1,0,1,1,0-2h77.77a1,1,0,0,1,0,2Z"/></g></g></svg>