<svg xmlns="http://www.w3.org/2000/svg" viewBox="0 0 126.75 196.59"><defs><style>.cls-1{fill:#ff8f54;}.cls-2{fill:#64b9ea;}.cls-3{fill:#f6f6f6;}.cls-4{fill:#00a19a;}.cls-5{fill:#0f7782;}.cls-6{fill:#913d88;}.cls-7{fill:#f9e63a;}.cls-8{fill:#e00b6c;}.cls-9{fill:#fff;}.cls-10{fill:none;}</style></defs><title>ecommerce</title><g id="Calque_2" data-name="Calque 2"><g id="Calque_1-2" data-name="Calque 1"><polygon class="cls-1" points="2.53 29.35 115.26 91.1 122.75 154.23 10.03 95.1 2.53 29.35"/><circle class="cls-2" cx="74.15" cy="180.14" r="5.08" transform="translate(-20.68 9.98) rotate(-6.76)"/><path class="cls-2" d="M34.9,196.59c-8.47,0-15.66-6.76-16.72-15.72L.13,28.58a18.18,18.18,0,0,1,3.33-13A16,16,0,0,1,14.54,9.05L90,.11A15.85,15.85,0,0,1,91.84,0c8.47,0,15.66,6.76,16.72,15.72l18,152.29c1.15,9.69-5.32,18.44-14.41,19.52l-75.44,8.94A15.87,15.87,0,0,1,34.9,196.59ZM91.84,3a12.8,12.8,0,0,0-1.5.09L14.9,12a13,13,0,0,0-9,5.36A15.2,15.2,0,0,0,3.11,28.22l18,152.29C22,188,28,193.59,34.9,193.59a12.8,12.8,0,0,0,1.5-.09l75.44-8.94c7.45-.88,12.74-8.14,11.79-16.19l-18-152.29C104.7,8.62,98.79,3,91.84,3Z"/><line class="cls-3" x1="124.55" y1="163.41" x2="19.1" y2="175.9"/><rect class="cls-2" x="18.73" y="168.15" width="106.19" height="3" transform="translate(-19.49 9.64) rotate(-6.77)"/><rect class="cls-4" x="43.7" y="14.19" width="25.8" height="2.24" transform="translate(-1.41 6.77) rotate(-6.76)"/><rect class="cls-2" x="42.2" y="12.69" width="28.8" height="5.24" transform="translate(-1.41 6.78) rotate(-6.77)"/><path class="cls-5" d="M80.49,89l-1.17-9.87a9,9,0,0,0-9.94-7.84l-10.17,1.2a9,9,0,0,0-7.83,9.95l1.17,9.87a9,9,0,0,0,9.94,7.84l10.17-1.2A9,9,0,0,0,80.49,89Z"/><path class="cls-6" d="M64.5,92.76l-.62-5.24A5.15,5.15,0,0,0,58.17,83l-5.39.64a5.15,5.15,0,0,0-4.5,5.71l.62,5.24a5.14,5.14,0,0,0,5.71,4.5l5.4-.64A5.14,5.14,0,0,0,64.5,92.76Z"/><path class="cls-7" d="M83,71a.82.82,0,0,0-.91-.72L73,71.39a.82.82,0,0,0-.72.91L75,95.49a.82.82,0,0,0,.91.72L85,95.13a.82.82,0,0,0,.72-.91Z"/><path class="cls-2" d="M79.48,90.81l-.86-7.28a6.83,6.83,0,0,0-7.58-6l-7.5.89a6.83,6.83,0,0,0-6,7.57l.86,7.28a6.82,6.82,0,0,0,7.57,6l7.49-.89A6.82,6.82,0,0,0,79.48,90.81Z"/><path class="cls-8" d="M92.52,90a.82.82,0,0,0-.68-.23L45.79,95.21,34.48,71.68a.82.82,0,0,0-.84-.46L20.46,72.78a.83.83,0,0,0-.71,1l.57,2.63a.82.82,0,0,0,.89.64L31.62,76l21.77,45.88a.82.82,0,0,0,.84.46L89,118.18a.82.82,0,0,0,.72-.72l3-26.8A.8.8,0,0,0,92.52,90Z"/><path class="cls-9" d="M67.37,97.93c3-2,17.76-4,19-2.25s-.46,14.92-1.3,16-14,3.62-15.83,1.88S64.36,99.91,67.37,97.93Z"/><path class="cls-9" d="M76,114.74c-6,.71-7-.26-7.3-.57-1.65-1.57-3.73-9-3.33-13.4.16-1.74.69-2.93,1.59-3.52C68.73,96,73.76,95,78,94.51c7.94-.94,8.79.29,9.08.7.67,1,.76,3.95.27,8.82,0,.29-.73,7-1.59,8.17S77.76,114.53,76,114.74Zm2.19-18.6c-4.58.54-9,1.6-10.33,2.47a3.17,3.17,0,0,0-.86,2.3c-.38,4.21,1.73,11,2.83,12.07.27.26,1.87.62,6,.13s8-1.49,8.65-1.94c.86-1.65,2.11-13.76,1.27-15C85.33,95.86,82.94,95.58,78.14,96.14Z"/><path class="cls-9" d="M68.39,81.22s6.14-1.22,7.29,2.44-7.29-2.44-7.29-2.44"/><path class="cls-9" d="M75.35,85.22c-1.76.21-6.64-3.27-7.2-3.67a.41.41,0,0,1,.16-.74s.27-.06.71-.11c1.79-.21,6-.36,7.05,2.82a1.51,1.51,0,0,1,0,1.29A.92.92,0,0,1,75.35,85.22Zm-5.86-3.74c2,1.37,4.82,3,5.76,2.92.06,0,.1,0,.1,0s.08-.13-.07-.59C74.53,81.36,71.23,81.32,69.49,81.48Z"/><path class="cls-9" d="M77.28,72.93s3.13-1.27,4,.43.85,8,1,8.41S77.28,72.93,77.28,72.93Z"/><path class="cls-9" d="M82.29,82.19c-.12,0-.2,0-.43-.3h0v0c-.48-.67-1.6-2.71-4.91-8.74a.4.4,0,0,1,0-.34.41.41,0,0,1,.23-.24,7.59,7.59,0,0,1,1.77-.45c1.71-.2,2.41.48,2.71,1.08.58,1.19.78,4.12.93,7,0,.66.07,1.33.09,1.46a.47.47,0,0,1,0,.35A.41.41,0,0,1,82.29,82.19Zm-4.41-9c1.25,2.28,2.85,5.17,3.82,6.9-.1-2-.29-5.41-.83-6.52C80.61,73,80,72.8,79,72.92A6.82,6.82,0,0,0,77.88,73.16Z"/><polygon class="cls-9" points="89.08 117.04 54.33 122.45 53.42 120.78 89.4 115.71 89.08 117.04"/><path class="cls-9" d="M54.43,123.26a.81.81,0,0,1-.82-.42l-.92-1.66a.84.84,0,0,1,0-.76.83.83,0,0,1,.62-.45l36-5.07h0a.82.82,0,0,1,.7.27.83.83,0,0,1,.19.74l-.32,1.33a.83.83,0,0,1-.67.62l-34.75,5.41Zm.28-1.83.06.12,8.49-1.32Z"/><path class="cls-8" d="M95,120.53c.24,2.05-2.13,4-5.29,4.39l-35.55,4.21c-3.16.37-5.92-1-6.17-3V126c-.24-2,2.13-4,5.29-4.39l35.56-4.21c3.16-.37,5.92,1,6.17,3Z"/><path class="cls-8" d="M89.76,125.74,54.21,130c-3.67.43-6.78-1.21-7.08-3.75s2.33-4.93,6-5.36l35.56-4.21c3.67-.44,6.78,1.21,7.08,3.75S93.43,125.31,89.76,125.74Zm-36.44-3.27c-2.66.32-4.75,1.91-4.57,3.47s2.6,2.69,5.26,2.37l35.55-4.21c2.66-.31,4.75-1.91,4.57-3.47s-2.6-2.69-5.26-2.37Z"/><path class="cls-9" d="M87.78,117.85l-33.75,4c-3.56.42-6.07,2.24-5.83,4.27s3.1,3.16,6.67,2.74l33.75-4c3.56-.42,6.07-2.24,5.83-4.27S91.34,117.43,87.78,117.85Z"/><circle class="cls-8" cx="59.81" cy="132.66" r="4.28" transform="translate(-15.19 7.96) rotate(-6.76)"/><path class="cls-8" d="M60.41,137.73a5.1,5.1,0,1,1,4.47-5.67A5.1,5.1,0,0,1,60.41,137.73Zm-1-8.5a3.46,3.46,0,1,0,3.84,3A3.46,3.46,0,0,0,59.4,129.23Z"/><circle class="cls-8" cx="87.17" cy="129.53" r="4.28" transform="translate(-14.66 11.18) rotate(-6.77)"/><path class="cls-8" d="M87.78,134.59a5.1,5.1,0,1,1,4.46-5.66A5.1,5.1,0,0,1,87.78,134.59Zm-1-8.5a3.46,3.46,0,1,0,3.84,3A3.46,3.46,0,0,0,86.77,126.09Z"/><path class="cls-10" d="M3.37,39.53"/></g></g></svg>