<svg xmlns="http://www.w3.org/2000/svg" viewBox="0 0 267.53 216.58"><defs><style>.cls-1{fill:#bac341;}.cls-2{fill:#dadada;}.cls-3{fill:#c0802a;}.cls-4{fill:#ff8f54;}.cls-5{fill:#c65daf;}.cls-6{fill:#f7dbbf;}.cls-7{fill:#1d1d1b;}.cls-8{fill:#fff;}.cls-9{fill:#b91c48;}.cls-10{fill:#71dcee;}.cls-11{fill:#2d1a7a;}.cls-12{fill:#bfe7e7;}.cls-13{fill:#4a806c;}.cls-14{fill:#afd085;}.cls-15{fill:#bff191;}.cls-16{fill:#f66;}</style></defs><title>lieuxdevie</title><g id="Calque_2" data-name="Calque 2"><g id="Calque_1-2" data-name="Calque 1"><ellipse class="cls-1" cx="136.62" cy="201.19" rx="130.91" ry="15.39"/><path class="cls-1" d="M189.2,73.42a2.5,2.5,0,0,1-2.42-1.87c-.1-.37-9.78-36.95-26.67-55.71a2.5,2.5,0,1,1,3.72-3.34C174.41,24.25,182.12,42,186.7,54.77V2.5a2.5,2.5,0,0,1,5,0V70.92a2.5,2.5,0,0,1-2.18,2.48Z"/><path class="cls-1" d="M189.2,73.42a2.5,2.5,0,0,1-1.55-.54c-7.14-5.65-27.63-20.47-36.58-21.22a2.5,2.5,0,1,1,.42-5c10,.83,28.89,14.41,36.26,20,3.08-11.08,13.34-43.6,30.24-54.58a2.5,2.5,0,1,1,2.72,4.19c-18.39,12-29,54.82-29.08,55.25a2.5,2.5,0,0,1-2.43,1.91Z"/><path class="cls-1" d="M189.2,165a2.5,2.5,0,0,1-2.5-2.5V70.92a2.5,2.5,0,0,1,1-2,145.12,145.12,0,0,1,15.49-9.6c11.74-6.25,20.69-8.49,26.59-6.68a2.5,2.5,0,1,1-1.47,4.78c-9-2.76-28.56,9.13-36.63,14.81v90.33A2.5,2.5,0,0,1,189.2,165Z"/><polygon class="cls-2" points="176.44 156.26 180.32 185.81 198.8 185.81 201.62 156.26 176.44 156.26"/><path class="cls-2" d="M198.8,188.31H180.32a2.5,2.5,0,0,1-2.48-2.17L174,156.58a2.5,2.5,0,0,1,2.48-2.83h25.18a2.5,2.5,0,0,1,2.49,2.74L201.29,186A2.5,2.5,0,0,1,198.8,188.31Zm-16.28-5h14l2.35-24.55H179.29Z"/><path class="cls-3" d="M83.63,193.48a1.5,1.5,0,0,1-1.24-2.35l7.77-11.35a1.5,1.5,0,0,1,2.48,1.69l-7.77,11.35A1.5,1.5,0,0,1,83.63,193.48Z"/><path class="cls-3" d="M182,193.74a1.5,1.5,0,0,1-1.24-.65L173,181.74a1.5,1.5,0,1,1,2.48-1.69l7.76,11.35a1.5,1.5,0,0,1-1.24,2.35Z"/><path class="cls-4" d="M62.57,105.94c-8.8,6.47-11.82,53.52-4.49,60.11s158.73,5.14,163.91,0,3.88-56.06-10.35-60.11S71.37,99.47,62.57,105.94Z"/><path class="cls-4" d="M133.65,171.46h0c-16.66,0-71.41-.34-76.23-4.67-4-3.6-4.85-16.88-4.3-28.11.69-14,3.7-29.75,8.87-33.55,5-3.64,40.78-4.19,61.68-4.19,35.76,0,79.75,1.62,88.25,4,4.64,1.32,8.27,6.92,10.78,16.64,4.07,15.79,4.08,41.1,0,45.14C218.8,170.61,157.1,171.46,133.65,171.46Zm-10-68.51c-34.13,0-57.31,1.46-60.5,3.8-3.9,2.86-7.28,16.33-8.06,32-.65,13.32.81,24,3.64,26.52,2.3,2.07,26.36,4.15,74.9,4.16h0c44.82,0,85-1.89,87.64-4.13,2.95-2.93,3.82-26.29-.54-43.21-2.29-8.86-5.53-14.12-9.39-15.21C203.94,104.79,163,102.95,123.66,102.95Z"/><path class="cls-5" d="M223.53,164a16.62,16.62,0,0,1-16.63,16.61H62.14A16.62,16.62,0,0,1,45.51,164h0a16.62,16.62,0,0,1,16.63-16.6H206.89A16.62,16.62,0,0,1,223.53,164Z"/><path class="cls-5" d="M206.89,181.63H62.14a17.61,17.61,0,1,1,0-35.21H206.89a17.61,17.61,0,1,1,0,35.21ZM62.14,148.42a15.61,15.61,0,1,0,0,31.21H206.89a15.61,15.61,0,1,0,0-31.21Z"/><path class="cls-6" d="M66.34,169.73c0,5.54-4.92,10-11,10h0c-6.06,0-11-4.49-11-10v-23.5c0-5.54,4.92-10,11-10h0c6.06,0,11,4.49,11,10Z"/><path class="cls-6" d="M55.36,180.77c-6.61,0-12-5-12-11v-23.5c0-6.08,5.37-11,12-11s12,4.95,12,11v23.5C67.34,175.82,62,180.77,55.36,180.77Zm0-43.57c-5.5,0-10,4.05-10,9v23.5c0,5,4.48,9,10,9s10-4.05,10-9v-23.5C65.34,141.25,60.86,137.2,55.36,137.2Z"/><path class="cls-6" d="M225.31,169.73c0,5.54-4.92,10-11,10h0c-6.06,0-11-4.49-11-10v-23.5c0-5.54,4.92-10,11-10h0c6.06,0,11,4.49,11,10Z"/><path class="cls-6" d="M214.33,180.77c-6.61,0-12-5-12-11v-23.5c0-6.08,5.37-11,12-11s12,4.95,12,11v23.5C226.31,175.82,220.93,180.77,214.33,180.77Zm0-43.57c-5.5,0-10,4.05-10,9v23.5c0,5,4.48,9,10,9s10-4.05,10-9v-23.5C224.31,141.25,219.83,137.2,214.33,137.2Z"/><path class="cls-6" d="M79.87,137.93c-5-.43,3.23,8.2,13.8,8s37.74,0,37.74,0-.86-7.55-5.18-8S84.83,138.36,79.87,137.93Z"/><path class="cls-6" d="M93.28,146.91a22.44,22.44,0,0,1-11-3c-2.24-1.3-4.87-3.46-4.87-5.24a1.61,1.61,0,0,1,.71-1.37,2.71,2.71,0,0,1,1.86-.35c.94.08,3.15.12,6.76.12,4.54,0,10.72-.06,16.7-.13s11.94-.12,16.32-.12c3.62,0,5.72,0,6.6.13,5.06.51,6,8.52,6.07,8.86a1,1,0,0,1-1,1.11h0c-.12,0-12.2-.1-23.25-.1-6.49,0-11.35,0-14.46.1Zm-13.82-8c.72,1.6,6.54,6,13.82,6h.37c3.12-.06,8-.1,14.5-.1,9,0,18.76.06,22.08.09-.46-2.23-1.69-5.74-4.1-6-.79-.08-2.95-.12-6.41-.12-4.37,0-10.44.06-16.3.12s-12.16.13-16.72.13c-3.67,0-5.94,0-6.93-.13Z"/><path class="cls-6" d="M194.69,137.93c5-.43-3.23,8.2-13.8,8s-37.74,0-37.74,0,.86-7.55,5.18-8S189.73,138.36,194.69,137.93Z"/><path class="cls-6" d="M181.28,146.91h-.41c-3.11-.06-8-.1-14.46-.1-11.05,0-23.13.09-23.25.1h0a1,1,0,0,1-1-1.11c0-.34,1-8.36,6.07-8.86.88-.09,3-.13,6.61-.13,4.38,0,10.45.06,16.32.12s12.16.13,16.7.13c3.61,0,5.82,0,6.76-.12l.43,0c1.58,0,2.15.94,2.15,1.75,0,1.78-2.62,3.93-4.87,5.24A22.44,22.44,0,0,1,181.28,146.91Zm-14.87-2.1c6.5,0,11.38,0,14.5.1h.37c7.28,0,13.1-4.4,13.82-6h-.32c-1,.09-3.26.13-6.93.13-4.55,0-10.74-.06-16.72-.13s-11.93-.12-16.3-.12c-3.46,0-5.61,0-6.41.12-2.55.25-3.67,4-4.08,6C147.67,144.88,157.38,144.81,166.4,144.81Z"/><path class="cls-3" d="M193.62,209a1,1,0,0,1-.28-2l18-5.25V165.52a1,1,0,0,1,2,0v37a1,1,0,0,1-.72,1l-18.69,5.46A1,1,0,0,1,193.62,209Z"/><path class="cls-3" d="M229.28,209a1,1,0,0,1-.31,0l-17-5.46a1,1,0,0,1,.61-1.9l17,5.46a1,1,0,0,1-.31,2Z"/><ellipse class="cls-7" cx="212.86" cy="156.26" rx="40.29" ry="7.76"/><path class="cls-7" d="M212.86,165c-16.6,0-41.29-2.33-41.29-8.76s24.69-8.76,41.29-8.76,41.29,2.33,41.29,8.76S229.46,165,212.86,165Zm0-15.53c-24.34,0-39.29,3.94-39.29,6.76S188.52,163,212.86,163s39.29-3.94,39.29-6.76S237.2,149.5,212.86,149.5Z"/><path class="cls-8" d="M66.34,117.44s1.62-9,3.92-9.56,73.26-.25,73.26-.25l-77.18,9.82"/><path class="cls-8" d="M66.34,118.44a1,1,0,0,1-1-1.18c.52-2.89,2-9.69,4.67-10.35.41-.1,1.49-.37,34.82-.37,18.76,0,38.48.09,38.68.09a1,1,0,0,1,.12,2l-77.18,9.82Zm38.5-9.91c-28.45,0-33.73.2-34.35.32-.77.19-2.07,3.57-2.9,7.42l60.56-7.7C121.32,108.55,113,108.53,104.84,108.53Z"/><path class="cls-9" d="M205.81,145.91s.68,9.51,3.34,9.66,8.65,0,8.65,0,2.66-1.54,2.35-9.66Z"/><path class="cls-9" d="M212.57,156.14c-1.5,0-2.66,0-3.45-.07-2.95-.17-3.69-8.47-3.81-10.13a.5.5,0,0,1,.5-.54h14.33a.5.5,0,0,1,.5.48c.32,8.33-2.48,10-2.59,10.12a.5.5,0,0,1-.24.07S215.11,156.14,212.57,156.14Zm-6.22-9.73c.33,3.72,1.37,8.58,2.82,8.66.77,0,1.92.07,3.39.07,2.17,0,4.44-.05,5.05-.07.4-.35,2.19-2.26,2-8.67Z"/><path class="cls-9" d="M206.78,154.24c-4,0-4.61-2.12-4.61-3.39a3.64,3.64,0,0,1,3.44-3.8.5.5,0,0,1,0,1,2.65,2.65,0,0,0-2.44,2.8c0,.59,0,2.39,3.61,2.39a.5.5,0,0,1,0,1Z"/><path class="cls-9" d="M208.37,139.64a.38.38,0,0,1-.36-.25,11,11,0,0,1-.39-4.52l.86-2.44c.77-2.17-1.09-5.45-1.11-5.48a.38.38,0,0,1,.65-.37c.08.15,2.06,3.61,1.17,6.11l-.84,2.36h0a10.63,10.63,0,0,0,.37,4.1.38.38,0,0,1-.24.48Z"/><path class="cls-9" d="M212.6,142.23a.38.38,0,0,1-.36-.25,11,11,0,0,1-.38-4.52l.86-2.44c.77-2.17-1.1-5.45-1.12-5.48a.37.37,0,0,1,.65-.37c.08.15,2.06,3.61,1.17,6.11l-.84,2.36h0a10.45,10.45,0,0,0,.37,4.1.38.38,0,0,1-.24.48Z"/><path class="cls-9" d="M217.19,139.64a.38.38,0,0,1-.36-.25,11,11,0,0,1-.39-4.52l.86-2.44c.77-2.17-1.1-5.45-1.12-5.48a.37.37,0,0,1,.65-.37c.08.15,2.06,3.61,1.17,6.11l-.84,2.36h0a10.67,10.67,0,0,0,.37,4.1.38.38,0,0,1-.24.48Z"/><path class="cls-8" d="M219.15,150.29s-.32,3.76-1.28,4.53-5.27,0-5.27,0Z"/><rect class="cls-10" x="22.53" y="34.41" width="38.96" height="45.72"/><path class="cls-10" d="M61.49,81.13h-39a1,1,0,0,1-1-1V34.41a1,1,0,0,1,1-1h39a1,1,0,0,1,1,1V80.13A1,1,0,0,1,61.49,81.13Zm-38-2h37V35.41h-37Z"/><rect class="cls-11" x="81.42" y="34.41" width="38.96" height="45.72"/><path class="cls-11" d="M120.38,81.13h-39a1,1,0,0,1-1-1V34.41a1,1,0,0,1,1-1h39a1,1,0,0,1,1,1V80.13A1,1,0,0,1,120.38,81.13Zm-38-2h37V35.41h-37Z"/><path class="cls-12" d="M45.81,70.79a1,1,0,0,1-.7-.28l-12-11.7a1,1,0,1,1,1.39-1.44l12,11.7a1,1,0,0,1-.7,1.72Z"/><path class="cls-12" d="M47.77,60.4a1,1,0,0,1-.68-.27L31.34,45.47A1,1,0,0,1,32.7,44L48.45,58.67a1,1,0,0,1-.68,1.73Z"/><path class="cls-12" d="M110.22,55.65a1,1,0,0,1-.67-.25l-14-12.51a1,1,0,0,1,1.33-1.49l14,12.51a1,1,0,0,1-.67,1.75Z"/><path class="cls-12" d="M112.59,71.39a1,1,0,0,1-.65-.24L94.68,56.31A1,1,0,0,1,96,54.8l17.25,14.84a1,1,0,0,1-.65,1.76Z"/><path class="cls-13" d="M32.08,152.78c0,11.49-11.43,20.8-11.43,20.8s-11.43-9.31-11.43-20.8S20.65,132,20.65,132,32.08,141.29,32.08,152.78Z"/><path class="cls-13" d="M20.65,174.58a1,1,0,0,1-.63-.22c-.48-.39-11.8-9.75-11.8-21.57S19.54,131.59,20,131.2a1,1,0,0,1,1.26,0c.48.39,11.8,9.75,11.8,21.58S21.77,174,21.29,174.35A1,1,0,0,1,20.65,174.58Zm0-41.27c-2.35,2.13-10.43,10.14-10.43,19.47s8.08,17.34,10.43,19.47c2.35-2.13,10.43-10.14,10.43-19.47S23,135.44,20.65,133.31Z"/><path class="cls-14" d="M22.4,155.9c-2.07,11.3,4.8,22,4.8,22S37.43,170.33,39.51,159s-4.8-22-4.8-22S24.47,144.6,22.4,155.9Z"/><path class="cls-14" d="M27.2,178.93l-.18,0a1,1,0,0,1-.66-.44c-.29-.45-7.06-11.19-4.94-22.75s12.26-19.19,12.69-19.51a1,1,0,0,1,1.44.26c.29.45,7.07,11.19,4.95,22.75s-12.27,19.19-12.7,19.51A1,1,0,0,1,27.2,178.93Zm7.23-40.41c-2.47,2.1-9.42,8.7-11,17.56s2.53,17.5,4.1,20.33c2.47-2.1,9.42-8.7,11-17.56S36,141.36,34.43,138.52Z"/><path class="cls-15" d="M26.48,176.93s-6.87-10.73-4.8-22S34,136,34,136Z"/><path class="cls-15" d="M26.48,177.43a.5.5,0,0,1-.42-.23c-.29-.44-7-11-4.87-22.39s12.08-18.89,12.5-19.2a.5.5,0,0,1,.79.49L27,177a.5.5,0,0,1-.4.4Zm6.77-40.17c-2.63,2.26-9.45,8.88-11.08,17.73s2.41,17.46,4.06,20.51Z"/><path class="cls-14" d="M18.5,158.42c2.07,11.3-4.8,22-4.8,22S3.47,172.85,1.39,161.55s4.8-22,4.8-22S16.43,147.12,18.5,158.42Z"/><path class="cls-14" d="M13.7,181.44a1,1,0,0,1-.6-.2c-.43-.32-10.58-8-12.7-19.51S5.07,139.44,5.36,139a1,1,0,0,1,1.44-.26c.43.32,10.58,8,12.69,19.51S14.83,180.53,14.54,181a1,1,0,0,1-.66.44ZM6.48,141c-1.56,2.84-5.72,11.48-4.1,20.33s8.58,15.46,11,17.56c1.56-2.84,5.72-11.48,4.1-20.33S8.94,143.14,6.48,141Z"/><path class="cls-15" d="M14.42,180.44s6.88-10.73,4.8-22S6.92,139.53,6.92,139.53Z"/><path class="cls-15" d="M14.42,180.94h-.1a.5.5,0,0,1-.4-.4L6.42,139.62a.5.5,0,0,1,.79-.49c.42.31,10.42,7.84,12.5,19.2s-4.59,21.94-4.87,22.39A.5.5,0,0,1,14.42,180.94ZM7.65,140.78l7,38.24c1.65-3,5.69-11.66,4.06-20.51S10.28,143,7.65,140.78Z"/><path class="cls-16" d="M2.6,167.52S6.28,192,10.26,194s14.64,3.07,21.62.39c0,0,6.77-16.64,6.84-26.89Z"/><path class="cls-16" d="M21.75,196.51h0c-4.66,0-9.26-.8-11.72-2C5.95,192.4,2.48,170.13,2.1,167.6L2,167h37.2v.5c-.07,10.23-6.6,26.39-6.88,27.07l-.08.2-.2.08A29.87,29.87,0,0,1,21.75,196.51ZM3.18,168c1.5,9.75,4.61,24.19,7.3,25.55,2.29,1.16,6.83,1.94,11.27,1.94a29.19,29.19,0,0,0,9.74-1.5c.75-1.89,6.45-16.54,6.71-26Z"/><path class="cls-8" d="M34,174.16S31.83,189,30,190.77,13.62,192,13.62,192Z"/><path class="cls-8" d="M18.22,193.05c-2.59,0-4.62-.07-4.64-.07a1,1,0,0,1-.62-1.75l20.36-17.82a1,1,0,0,1,1.65.9c-.52,3.57-2.35,15.38-4.34,17.2C30.16,191.93,28.94,193.05,18.22,193.05Zm-2-2h2c9.63,0,10.94-.92,11.05-1,.87-.8,2.28-7.08,3.3-13.31Z"/><path class="cls-12" d="M55.36,53.07a1,1,0,0,1-.69-.28l-7.59-7.33A1,1,0,0,1,48.46,44l7.59,7.33a1,1,0,0,1-.69,1.72Z"/><path class="cls-12" d="M99.85,73.22a1,1,0,0,1-.68-.27l-7.3-6.85a1,1,0,0,1,1.37-1.46l7.3,6.85a1,1,0,0,1-.68,1.73Z"/></g></g></svg>