<svg xmlns="http://www.w3.org/2000/svg" viewBox="0 0 238.25 230.99"><defs><style>.cls-1{fill:#f9e63a;}.cls-2{fill:#86e2d5;}.cls-3{fill:#fff;}.cls-4{fill:#ff8f54;}.cls-5{fill:#ffd4ba;}.cls-6{fill:#f66;}</style></defs><title>loisirs</title><g id="Calque_2" data-name="Calque 2"><g id="Calque_1-2" data-name="Calque 1"><circle class="cls-1" cx="131.41" cy="47.28" r="21.56"/><path class="cls-1" d="M131.41,69.33a22.06,22.06,0,1,1,22.06-22.06A22.08,22.08,0,0,1,131.41,69.33Zm0-43.11a21.06,21.06,0,1,0,21.06,21.06A21.08,21.08,0,0,0,131.41,26.22Z"/><line class="cls-1" x1="131.41" y1="18.67" x2="131.41" y2="1"/><path class="cls-1" d="M131.41,19.67a1,1,0,0,1-1-1V1a1,1,0,0,1,2,0V18.67A1,1,0,0,1,131.41,19.67Z"/><line class="cls-1" x1="131.34" y1="92.27" x2="131.34" y2="74.61"/><path class="cls-1" d="M131.34,93.27a1,1,0,0,1-1-1V74.61a1,1,0,0,1,2,0V92.27A1,1,0,0,1,131.34,93.27Z"/><line class="cls-1" x1="175.67" y1="46.28" x2="158.01" y2="46.28"/><path class="cls-1" d="M175.67,47.28H158a1,1,0,0,1,0-2h17.67a1,1,0,0,1,0,2Z"/><line class="cls-1" x1="103.42" y1="46.75" x2="85.76" y2="46.75"/><path class="cls-1" d="M103.42,47.75H85.76a1,1,0,0,1,0-2h17.67a1,1,0,0,1,0,2Z"/><line class="cls-1" x1="152.84" y1="27.5" x2="165.84" y2="15"/><path class="cls-1" d="M152.84,28.5a1,1,0,0,1-.69-1.72l13-12.5a1,1,0,0,1,1.39,1.44l-13,12.5A1,1,0,0,1,152.84,28.5Z"/><line class="cls-1" x1="151.84" y1="67.75" x2="164.34" y2="79"/><path class="cls-1" d="M164.34,80a1,1,0,0,1-.67-.26l-12.5-11.25A1,1,0,1,1,152.51,67L165,78.25a1,1,0,0,1-.67,1.74Z"/><line class="cls-1" x1="98.09" y1="15.75" x2="110.59" y2="27"/><path class="cls-1" d="M110.59,28a1,1,0,0,1-.67-.26L97.42,16.49A1,1,0,1,1,98.76,15l12.5,11.25a1,1,0,0,1-.67,1.74Z"/><path class="cls-2" d="M226,196.86H212.86a9.25,9.25,0,0,0,2.24-11.36h5.5a9.28,9.28,0,1,0,0-18.55H145.68a9.26,9.26,0,0,0-7.81,4.28H107.34a9.19,9.19,0,0,0-1,.06,9.69,9.69,0,0,0-4.32-1H22.3a9.76,9.76,0,0,0,0,19.51h-13a9.28,9.28,0,1,0,0,18.55h9a9.28,9.28,0,0,0,9.28,9.28H47.71A9.26,9.26,0,0,0,56,231h74.92a9.27,9.27,0,0,0,9.28-9.28h46.67a9.27,9.27,0,0,0,8.78-6.3H226a9.28,9.28,0,0,0,0-18.55Z"/><path class="cls-3" d="M43.94,186.44a6.69,6.69,0,0,1-4-1.63c-3.17-2.39-5.32-.16-5.4-.06a.5.5,0,0,1-.74-.68s2.84-3,6.74-.06c3.2,2.41,4.72,1.29,6.33.09L47,184a.5.5,0,1,1,.59.8l-.13.09A5.94,5.94,0,0,1,43.94,186.44Z"/><path class="cls-3" d="M62.79,197.64a6.69,6.69,0,0,1-4-1.63c-3.19-2.4-5.31-.16-5.4-.06a.5.5,0,0,1-.74-.68s2.83-3,6.74-.06c3.2,2.41,4.72,1.29,6.33.09l.13-.1a.5.5,0,1,1,.59.8l-.13.09A5.93,5.93,0,0,1,62.79,197.64Z"/><path class="cls-3" d="M34.27,197.64a6.69,6.69,0,0,1-4-1.63c-3.17-2.39-5.31-.16-5.4-.06a.5.5,0,0,1-.74-.68s2.84-3,6.74-.06c3.2,2.41,4.72,1.28,6.33.09l.13-.1a.5.5,0,1,1,.59.8l-.13.1A5.93,5.93,0,0,1,34.27,197.64Z"/><path class="cls-3" d="M92.72,196.4a6.68,6.68,0,0,1-4-1.63c-3.19-2.4-5.31-.16-5.4-.06a.5.5,0,0,1-.74-.68s2.84-3,6.74-.06c3.2,2.41,4.72,1.29,6.33.09l.13-.1a.5.5,0,1,1,.59.8l-.13.09A5.94,5.94,0,0,1,92.72,196.4Z"/><path class="cls-3" d="M78.47,206.22a6.69,6.69,0,0,1-4-1.63c-3.19-2.4-5.31-.16-5.4-.06a.5.5,0,0,1-.74-.68s2.83-3,6.74-.06c3.2,2.41,4.72,1.29,6.33.09l.13-.1a.5.5,0,1,1,.59.8l-.13.09A5.93,5.93,0,0,1,78.47,206.22Z"/><path class="cls-3" d="M113.73,207.74a6.68,6.68,0,0,1-4-1.63c-3.19-2.4-5.31-.16-5.4-.06a.5.5,0,0,1-.74-.68s2.83-3,6.74-.06c3.2,2.41,4.72,1.29,6.33.09l.13-.1a.5.5,0,1,1,.59.8l-.13.1A5.93,5.93,0,0,1,113.73,207.74Z"/><path class="cls-3" d="M55.49,211.65a6.68,6.68,0,0,1-4-1.63c-3.19-2.4-5.31-.16-5.4-.06a.5.5,0,0,1-.74-.68s2.84-3,6.74-.06c3.2,2.41,4.72,1.29,6.33.09l.13-.1a.5.5,0,1,1,.59.8l-.13.1A5.93,5.93,0,0,1,55.49,211.65Z"/><path class="cls-3" d="M149,198.88a6.68,6.68,0,0,1-4-1.63c-3.19-2.4-5.31-.16-5.4-.06a.5.5,0,0,1-.74-.68s2.84-3,6.74-.06c3.2,2.41,4.72,1.29,6.33.09l.13-.09a.5.5,0,1,1,.59.8l-.13.09A5.93,5.93,0,0,1,149,198.88Z"/><path class="cls-3" d="M141.15,211.5a6.69,6.69,0,0,1-4-1.63c-3.19-2.4-5.31-.16-5.4-.06a.5.5,0,0,1-.74-.68s2.84-3,6.74-.06c3.2,2.41,4.72,1.29,6.33.09l.13-.09a.5.5,0,1,1,.6.8l-.13.09A5.93,5.93,0,0,1,141.15,211.5Z"/><path class="cls-3" d="M173.82,204.29a6.69,6.69,0,0,1-4-1.63c-3.19-2.4-5.31-.16-5.4-.06a.5.5,0,0,1-.74-.68s2.84-3,6.74-.06c3.2,2.41,4.72,1.29,6.33.09l.13-.1a.5.5,0,0,1,.59.8l-.13.09A5.93,5.93,0,0,1,173.82,204.29Z"/><path class="cls-3" d="M181.65,192.36a6.68,6.68,0,0,1-4-1.63c-3.19-2.4-5.31-.16-5.4-.06a.5.5,0,0,1-.74-.68s2.84-3,6.74-.06c3.2,2.41,4.72,1.29,6.33.09l.13-.1a.5.5,0,1,1,.59.8l-.13.09A5.93,5.93,0,0,1,181.65,192.36Z"/><path class="cls-3" d="M200,200.83a6.68,6.68,0,0,1-4-1.63c-3.19-2.4-5.31-.16-5.4-.06a.5.5,0,0,1-.74-.68s2.84-3,6.74-.06c3.2,2.41,4.72,1.29,6.33.09l.13-.1a.5.5,0,1,1,.59.8l-.13.09A5.93,5.93,0,0,1,200,200.83Z"/><path class="cls-3" d="M216.43,209.11a6.69,6.69,0,0,1-4-1.63c-3.17-2.38-5.31-.16-5.4-.06a.5.5,0,0,1-.73-.68s2.83-3,6.74-.06c3.2,2.41,4.72,1.29,6.33.09l.13-.09a.5.5,0,1,1,.6.8l-.13.09A5.93,5.93,0,0,1,216.43,209.11Z"/><path class="cls-3" d="M195.09,178.88a6.68,6.68,0,0,1-4-1.63c-3.17-2.39-5.31-.16-5.4-.06a.5.5,0,0,1-.74-.68s2.83-3,6.74-.06c3.2,2.41,4.72,1.28,6.33.09l.13-.1a.5.5,0,1,1,.59.8l-.13.1A5.93,5.93,0,0,1,195.09,178.88Z"/><path class="cls-3" d="M121.81,193.72a6.68,6.68,0,0,1-4-1.63c-3.19-2.4-5.31-.16-5.4-.06a.5.5,0,0,1-.74-.68s2.83-3,6.74-.06c3.2,2.41,4.72,1.29,6.33.09l.13-.1a.5.5,0,1,1,.59.8l-.13.09A5.93,5.93,0,0,1,121.81,193.72Z"/><polygon class="cls-4" points="104.25 145.69 114.51 36.85 46.36 132.35 104.25 145.69"/><polygon class="cls-4" points="107.07 128.46 136.83 132.35 115.71 36.85 107.07 128.46"/><path class="cls-5" d="M104.25,155.88h-.09a1,1,0,0,1-.91-1.08l10.26-118a1,1,0,1,1,2,.17L105.24,155A1,1,0,0,1,104.25,155.88Z"/><path class="cls-6" d="M169.71,158.91c-45.44,6.54-130.93-19.6-130.93-19.6S65.69,185,71.67,185.46c0,0,80.71,2.33,86.29,0S169.71,158.91,169.71,158.91Z"/><path class="cls-3" d="M159.55,170.58h-.1c-2.66-.27-65.32-6.73-81.44-10.69a1,1,0,0,1,.48-1.94c16,3.93,80.52,10.57,81.17,10.64a1,1,0,0,1-.1,2Z"/><path class="cls-3" d="M156,177.05h-.08c-1.94-.15-47.67-3.6-52.73-4.5a1,1,0,0,1,.35-2c5,.88,52.05,4.44,52.53,4.47a1,1,0,0,1-.07,2Z"/><path class="cls-2" d="M234.23,100.85H177.75a4,4,0,0,0-3.31,6.29H159.5a4,4,0,1,0,0,8h5.81a4,4,0,0,0,3.41,6.12H225.2a4,4,0,1,0,0-8h-5.81a4,4,0,0,0-.1-4.37h14.94a4,4,0,1,0,0-8Z"/><path class="cls-2" d="M92.3,78.37H35.81a4,4,0,0,0-3.31,6.29H17.56a4,4,0,1,0,0,8h5.81a4,4,0,0,0,3.41,6.12H83.27a4,4,0,0,0,0-8H77.46a4,4,0,0,0-.1-4.37H92.3a4,4,0,0,0,0-8Z"/></g></g></svg>