<svg xmlns="http://www.w3.org/2000/svg" viewBox="0 0 181.19 161.04"><defs><style>.cls-1{fill:#4baa80;}.cls-2{fill:#17995c;}.cls-3{fill:#ecef84;}.cls-4{fill:#f42e5c;}.cls-5{fill:#ededed;}.cls-6{fill:#1d1d1b;}.cls-7{fill:#fff;}.cls-8{fill:#71dcee;}.cls-9{fill:#ff9ca0;}.cls-10{fill:#754142;}.cls-11{fill:#0f7782;}</style></defs><title>maisonetjardin</title><g id="Calque_2" data-name="Calque 2"><g id="Calque_1-2" data-name="Calque 1"><path class="cls-1" d="M156.77,105.88C146,96.22,42.26,94.69,24.11,105.16c-12.45,7.18-30.64,27.86-21.74,42,11.12,17.61,165.9,18.15,176.11,3.72S167.56,115.54,156.77,105.88Z"/><path class="cls-2" d="M132.65,106.39c-25.36-15.37-120.34-3.13-120.3,19s73.71,16.49,85.48,13.14S158,121.76,132.65,106.39Z"/><path class="cls-3" d="M133,76.84l-42.38-58a1,1,0,0,0-.81-.41h0a1,1,0,0,0-.81.42L49.14,75.09a1,1,0,0,0-.18.58v44.64a1,1,0,0,0,1,1h82.26a1,1,0,0,0,1-1V77.43A1,1,0,0,0,133,76.84Z"/><path class="cls-4" d="M40.69,72.11s44.51-65.87,48.08-65S139.69,73.53,139,75.31s-1.07,6.41-7.83,3.92L88.77,19.4l-39.88,58S39.68,82.08,40.69,72.11Z"/><rect class="cls-5" x="60.64" y="114.48" width="31.71" height="5.83"/><path class="cls-6" d="M92.34,121.31H60.64a1,1,0,0,1-1-1v-5.83a1,1,0,0,1,1-1H92.34a1,1,0,0,1,1,1v5.83A1,1,0,0,1,92.34,121.31Zm-30.71-2H91.34v-3.83H61.64Z"/><path d="M65.62,100.17a1,1,0,0,1-1-1V93.34a1,1,0,0,1,2,0v5.83A1,1,0,0,1,65.62,100.17Z"/><rect class="cls-7" x="102.66" y="73.16" width="16.02" height="25.97"/><rect class="cls-7" x="77.02" y="43.65" width="23.5" height="11.74"/><path class="cls-6" d="M100.52,61.17H77a1,1,0,0,1-1-1V43.65a1,1,0,0,1,1-1h23.5a1,1,0,0,1,1,1V60.17A1,1,0,0,1,100.52,61.17Zm-22.5-2h21.5V44.65H78Z"/><path class="cls-6" d="M88.77,60.14a1,1,0,0,1-1-1V43.65a1,1,0,0,1,2,0V59.14A1,1,0,0,1,88.77,60.14Z"/><path class="cls-6" d="M119.39,101.2H95.89a1,1,0,0,1-1-1V72.76a1,1,0,0,1,1-1h23.5a1,1,0,0,1,1,1V100.2A1,1,0,0,1,119.39,101.2Zm-22.5-2h21.5V73.76H96.89Z"/><path class="cls-6" d="M107.64,99.49a1,1,0,0,1-1-1V72.76a1,1,0,1,1,2,0V98.49A1,1,0,0,1,107.64,99.49Z"/><polygon class="cls-7" points="71.59 73.18 88.77 99.25 88.77 73.18 71.59 73.18"/><path class="cls-6" d="M88.77,115.48H63.48a1,1,0,0,1-1-1V73.18a1,1,0,0,1,1-1H88.77a1,1,0,0,1,1,1v41.31A1,1,0,0,1,88.77,115.48Zm-24.28-2H87.77V74.18H64.48Z"/><path class="cls-8" d="M157.88,0H118.56a2.79,2.79,0,0,0-2.3,4.38h-10.4a2.8,2.8,0,1,0,0,5.59h4a2.78,2.78,0,0,0,2.37,4.26h39.32a2.8,2.8,0,0,0,0-5.59h-4a2.77,2.77,0,0,0-.07-3h10.4a2.79,2.79,0,1,0,0-5.59Z"/><path class="cls-8" d="M73.55,26.13H29.26a3.15,3.15,0,0,0-2.59,4.93H15a3.15,3.15,0,1,0,0,6.3h4.56a3.13,3.13,0,0,0,2.67,4.79H66.47a3.15,3.15,0,1,0,0-6.3H61.91a3.12,3.12,0,0,0-.08-3.43H73.55a3.15,3.15,0,1,0,0-6.3Z"/><path class="cls-9" d="M45.17,147a1,1,0,0,1-1-.75c0-.07-1.84-6.93-5-10.42a1,1,0,0,1,1.49-1.34,21.93,21.93,0,0,1,3.46,5.7v-7.26a1,1,0,0,1,2,0V146a1,1,0,0,1-.87,1Z"/><path class="cls-9" d="M45.17,147a1,1,0,0,1-.62-.22c-1.85-1.46-5.3-3.82-6.7-3.94a1,1,0,1,1,.17-2c1.81.15,4.88,2.21,6.59,3.46.79-2.62,2.73-8,5.78-10A1,1,0,1,1,51.47,136c-2.77,1.8-4.78,8-5.33,10.23a1,1,0,0,1-.65.71A1,1,0,0,1,45.17,147Z"/><path class="cls-9" d="M45.17,147a1,1,0,0,1-.59-1.81c.94-.68,5.75-4,8.49-3.18a1,1,0,0,1-.59,1.91c-1.33-.41-4.74,1.44-6.73,2.89A1,1,0,0,1,45.17,147Z"/><path class="cls-9" d="M146.84,147.85a1,1,0,0,1-1-.75c0-.07-1.76-6.64-4.76-10a1,1,0,1,1,1.49-1.34,20.78,20.78,0,0,1,3.24,5.3v-6.77a1,1,0,0,1,2,0v12.53a1,1,0,0,1-.87,1Z"/><path class="cls-9" d="M146.84,147.85a1,1,0,0,1-.62-.22c-1.77-1.4-5.07-3.66-6.41-3.77a1,1,0,0,1-.91-1.08,1,1,0,0,1,1.08-.91c1.74.15,4.62,2.06,6.29,3.29.77-2.53,2.63-7.65,5.54-9.54a1,1,0,0,1,1.09,1.68c-2.65,1.72-4.57,7.65-5.09,9.79a1,1,0,0,1-1,.76Z"/><path class="cls-9" d="M146.85,147.85a1,1,0,0,1-.59-1.81c.9-.66,5.52-3.87,8.18-3.06a1,1,0,0,1-.59,1.91c-1.26-.39-4.51,1.38-6.42,2.76A1,1,0,0,1,146.85,147.85Z"/><path class="cls-9" d="M98.52,142.19a1,1,0,0,1-1-.75c0-.07-1.76-6.64-4.76-10a1,1,0,0,1,1.49-1.34,20.81,20.81,0,0,1,3.24,5.3v-6.77a1,1,0,0,1,2,0v12.53a1,1,0,0,1-.87,1Z"/><path class="cls-9" d="M98.52,142.19a1,1,0,0,1-.62-.22c-1.77-1.4-5.07-3.66-6.41-3.77a1,1,0,0,1-.91-1.08,1,1,0,0,1,1.08-.91c1.74.15,4.62,2.06,6.29,3.29.77-2.53,2.63-7.65,5.54-9.54a1,1,0,1,1,1.09,1.68c-2.64,1.72-4.57,7.65-5.09,9.79a1,1,0,0,1-1,.76Z"/><path class="cls-9" d="M98.52,142.19a1,1,0,0,1-.59-1.81c.9-.66,5.53-3.87,8.18-3.06a1,1,0,1,1-.59,1.91c-1.26-.39-4.51,1.38-6.42,2.77A1,1,0,0,1,98.52,142.19Z"/><path class="cls-3" d="M22.16,114.33c-3.39,0-7,1-7,3.24s3.65,3.24,7,3.24,7-1,7-3.24S25.55,114.33,22.16,114.33Z"/><line class="cls-5" x1="22.16" y1="116.52" x2="22.16" y2="74.4"/><rect class="cls-10" x="20.66" y="74.4" width="3" height="42.12"/><path class="cls-11" d="M35.75,54.19a14.26,14.26,0,0,0-3.66-14.77,11.43,11.43,0,1,0-19.86,0A14.26,14.26,0,0,0,8.57,54.19a16.84,16.84,0,1,0,27.19,0Z"/><path class="cls-11" d="M22.16,81.46A17.37,17.37,0,0,1,4.81,64.12a17.19,17.19,0,0,1,3.2-10,14.75,14.75,0,0,1,3.59-14.78,11.93,11.93,0,1,1,21.1,0,14.76,14.76,0,0,1,3.59,14.78,17.19,17.19,0,0,1,3.2,10A17.37,17.37,0,0,1,22.16,81.46Zm0-58.62a10.92,10.92,0,0,0-9.5,16.33l.19.34-.28.27A13.76,13.76,0,0,0,9,54l.08.24L9,54.49A16.34,16.34,0,1,0,38.5,64.12a16.2,16.2,0,0,0-3.16-9.63l-.15-.21.08-.24a13.86,13.86,0,0,0,.7-4.32,13.69,13.69,0,0,0-4.23-9.94l-.28-.27.19-.34a10.92,10.92,0,0,0-9.5-16.33Z"/><path class="cls-7" d="M22.16,77.28l-.21,0C6.95,74,9.73,59.76,9.76,59.62a1,1,0,0,1,2,.41c-.1.51-2.38,12.42,10.66,15.27a1,1,0,0,1-.21,2Z"/><ellipse class="cls-3" cx="150.54" cy="115.11" rx="6.04" ry="2.24"/><path class="cls-3" d="M150.55,118.35c-3.39,0-7-1-7-3.24s3.65-3.24,7-3.24,7,1,7,3.24S153.94,118.35,150.55,118.35Zm0-4.48c-3.19,0-4.9.92-5,1.28.15.28,1.86,1.2,5,1.2s4.9-.92,5-1.28C155.44,114.78,153.73,113.87,150.55,113.87Z"/><line class="cls-5" x1="150.55" y1="115.11" x2="150.55" y2="72.98"/><rect class="cls-10" x="149.05" y="72.98" width="3" height="42.13"/><path class="cls-11" d="M164.14,52.78A14.26,14.26,0,0,0,160.48,38a11.43,11.43,0,1,0-19.86,0A14.26,14.26,0,0,0,137,52.78a16.84,16.84,0,1,0,27.19,0Z"/><path class="cls-11" d="M150.55,80A17.37,17.37,0,0,1,133.2,62.7a17.19,17.19,0,0,1,3.2-10A14.75,14.75,0,0,1,140,37.92a11.93,11.93,0,1,1,21.1,0,14.75,14.75,0,0,1,3.59,14.78,17.18,17.18,0,0,1,3.2,10A17.36,17.36,0,0,1,150.55,80Zm0-58.62A10.92,10.92,0,0,0,141,37.76l.19.34-.28.27a13.76,13.76,0,0,0-3.53,14.26l.08.24-.15.21a16.2,16.2,0,0,0-3.16,9.63,16.35,16.35,0,1,0,32.69,0,16.2,16.2,0,0,0-3.16-9.63l-.15-.21.08-.24a13.85,13.85,0,0,0,.7-4.32,13.7,13.7,0,0,0-4.23-9.94l-.28-.27.19-.34a10.92,10.92,0,0,0-9.5-16.33Z"/><path class="cls-7" d="M150.55,75.86l-.21,0c-15-3.28-12.22-17.49-12.19-17.63a1,1,0,0,1,2,.41c-.1.51-2.38,12.42,10.66,15.27a1,1,0,0,1-.21,2Z"/></g></g></svg>