<svg xmlns="http://www.w3.org/2000/svg" viewBox="0 0 233.78 170.54"><defs><style>.cls-1{fill:#ebb16b;}.cls-2{fill:#cb416a;}.cls-3{fill:#ffdc7e;}.cls-4{fill:#afd03d;}.cls-5{fill:#ff8f54;}.cls-6{fill:#a3195b;}.cls-7{fill:#55508c;}.cls-8{fill:#fff7a4;}.cls-9{fill:#4a806c;}.cls-10{fill:#afd085;}.cls-11{fill:#b91c48;}.cls-12{fill:#fff;}.cls-13{fill:#ce4381;}.cls-14{fill:#ffe3a4;}</style></defs><title>marcheetepicerie</title><g id="Calque_2" data-name="Calque 2"><g id="Calque_1-2" data-name="Calque 1"><path class="cls-1" d="M6.05,41.64S3,76.9,3.78,82.58s-3,31.85-2.27,36-1.34,13.27-.1,16.3,58.11,0,58.11,0-.38-25,0-27.3S53.06,76.52,52.69,75s-5.31-25.78-5.31-25.78l.38-11.75Z"/><path class="cls-1" d="M17,137.26h0c-15.74,0-16.18-1.09-16.54-2C-.28,133.43,0,130,.33,126.4a34.71,34.71,0,0,0,.18-7.62c-.39-2.16.28-9,1.06-17,.74-7.61,1.58-16.23,1.21-19C2,77,4.93,43,5.05,41.55a1,1,0,0,1,.9-.91l41.71-4.17a1,1,0,0,1,.78.26,1,1,0,0,1,.32.76l-.37,11.64c.37,1.81,4.92,24.2,5.28,25.63.07.3,7.28,30.36,6.84,33-.27,1.6-.14,17.1,0,27.12a1,1,0,0,1-.95,1C59.31,135.92,34.07,137.26,17,137.26Zm-14.76-2.9c.57.27,3.15.9,14.75.9,15.11,0,36.7-1.05,41.48-1.3-.07-5.05-.33-24.4,0-26.51s-5.68-27.66-6.81-32.2c-.38-1.52-5.12-24.83-5.32-25.83a1,1,0,0,1,0-.23l.34-10.61L7,42.55c-.45,5.34-2.88,34.87-2.21,39.9.41,3-.41,11.41-1.2,19.5-.7,7.17-1.42,14.58-1.08,16.47a35.58,35.58,0,0,1-.16,8.15C2.07,129.52,1.78,132.86,2.26,134.36Z"/><polygon class="cls-2" points="8.57 42.9 12.12 54.15 54.2 48.53 47.76 38.98 8.57 42.9"/><path class="cls-2" d="M12.12,55.15a1,1,0,0,1-1-.7L7.61,43.2a1,1,0,0,1,.85-1.3L47.66,38a1,1,0,0,1,.93.44L55,48a1,1,0,0,1-.7,1.55L12.25,55.14ZM9.89,43.78,12.82,53l39.65-5.3L47.26,40Z"/><polygon class="cls-1" points="8.57 41.38 12.12 52.63 54.2 47.01 47.76 37.47 8.57 41.38"/><path class="cls-1" d="M12.12,53.63a1,1,0,0,1-1-.7L7.61,41.69a1,1,0,0,1,.85-1.3l39.19-3.92a1,1,0,0,1,.93.44L55,46.45a1,1,0,0,1-.7,1.55L12.25,53.62ZM9.89,42.26l2.93,9.27,39.65-5.3-5.21-7.71Z"/><path class="cls-3" d="M17.47,74.12v32.55s31.63.06,34.76-2.31-6-34.86-6-34.86Z"/><path class="cls-3" d="M17.72,107.67h-.25a1,1,0,0,1-1-1V74.12a1,1,0,0,1,.84-1l28.78-4.61a1,1,0,0,1,1.12.72c0,.08,2.31,8.24,4.18,16.59,3.92,17.46,2.25,18.73,1.45,19.33C49.76,107.49,25.18,107.67,17.72,107.67ZM18.47,75v30.7c15.25,0,31.36-.75,33.16-2.1,1.41-1.71-2-18.25-6.11-32.93Z"/><line class="cls-1" x1="44.54" y1="76.07" x2="33.47" y2="78.57"/><path class="cls-1" d="M33.47,79.07a.5.5,0,0,1-.11-1l11.07-2.5a.5.5,0,0,1,.22,1l-11.07,2.5Z"/><line class="cls-1" x1="47.63" y1="89.26" x2="36.56" y2="91.76"/><path class="cls-1" d="M36.56,92.26a.5.5,0,0,1-.11-1l11.07-2.5a.5.5,0,0,1,.22,1l-11.07,2.5Z"/><line class="cls-1" x1="46.25" y1="82.9" x2="30.26" y2="86.43"/><path class="cls-1" d="M30.26,86.93a.5.5,0,0,1-.11-1l16-3.54a.5.5,0,1,1,.22,1l-16,3.54Z"/><path class="cls-4" d="M166.77,14.73c1.32,4.8-1.7,9.81-1.7,9.81s-5.14-2.78-6.45-7.58,1.7-9.8,1.7-9.8S165.46,9.94,166.77,14.73Z"/><path class="cls-4" d="M165.07,25a.5.5,0,0,1-.24-.06c-.22-.12-5.34-2.94-6.7-7.89s1.62-10,1.75-10.19a.5.5,0,0,1,.67-.18c.22.12,5.34,2.94,6.7,7.88s-1.62,10-1.75,10.2A.5.5,0,0,1,165.07,25ZM160.51,7.85c-.66,1.3-2.43,5.24-1.4,9s4.55,6.24,5.78,7c.67-1.29,2.43-5.24,1.4-9S161.74,8.63,160.51,7.85Z"/><path class="cls-4" d="M173.91,17.66c-2.87,5-8.86,6.88-8.86,6.88s-1.33-6.14,1.54-11.11,8.85-6.87,8.85-6.87S176.78,12.7,173.91,17.66Z"/><path class="cls-4" d="M165.05,25a.49.49,0,0,1-.25-.07.5.5,0,0,1-.24-.33c-.06-.26-1.34-6.39,1.6-11.46s8.88-7,9.13-7.1a.5.5,0,0,1,.64.37c.06.26,1.34,6.38-1.59,11.45s-8.88,7-9.14,7.1Zm10-17.8c-1.51.6-5.79,2.57-8,6.44s-1.82,8.57-1.59,10.18c1.51-.6,5.79-2.57,8-6.45S175.29,8.85,175.06,7.24Z"/><path class="cls-4" d="M179,20.59c-2.69,4.2-8.42,5.31-8.42,5.31s-1.38-5.68,1.31-9.87,8.42-5.3,8.42-5.3S181.66,16.4,179,20.59Z"/><path class="cls-4" d="M170.55,26.4a.5.5,0,0,1-.49-.38c-.06-.24-1.4-5.94,1.38-10.26s8.5-5.48,8.75-5.53a.5.5,0,0,1,.58.37c.06.24,1.4,5.94-1.38,10.25s-8.5,5.48-8.75,5.53Zm9.34-15.07c-1.41.37-5.52,1.71-7.61,5s-1.59,7.56-1.34,9c1.41-.37,5.52-1.7,7.61-5S180.14,12.77,179.89,11.33Z"/><path class="cls-4" d="M172.59,15.26c0,8.16-6,14.78-6,14.78s-6-6.61-6-14.77,6-14.77,6-14.77S172.58,7.1,172.59,15.26Z"/><path class="cls-4" d="M166.6,30.54a.5.5,0,0,1-.37-.16c-.25-.28-6.15-6.85-6.16-15.11S165.94.44,166.19.16a.5.5,0,0,1,.37-.16h0a.5.5,0,0,1,.37.16c.25.28,6.15,6.84,6.16,15.09S167.22,30.1,167,30.37a.5.5,0,0,1-.37.16Zm0-29.26c-1.29,1.59-5.5,7.3-5.49,14s4.24,12.4,5.53,14c1.29-1.59,5.5-7.31,5.49-14S167.86,2.86,166.56,1.27Z"/><path class="cls-4" d="M163.8,18.08c2.72,4.17,1.39,9.86,1.39,9.86s-5.74-1.07-8.46-5.24-1.39-9.85-1.39-9.85S161.08,13.91,163.8,18.08Z"/><path class="cls-4" d="M165.19,28.44h-.09c-.24,0-6-1.16-8.79-5.46s-1.51-10-1.45-10.24a.5.5,0,0,1,.58-.38c.24,0,6,1.16,8.79,5.46s1.51,10,1.46,10.25A.5.5,0,0,1,165.19,28.44Zm-9.45-15c-.24,1.44-.71,5.73,1.41,9s6.24,4.55,7.65,4.91c.24-1.44.71-5.73-1.41-9S157.14,13.8,155.74,13.44Z"/><path class="cls-4" d="M181.37,25.77c-4.35,2.44-9.93.72-9.93.72s1.45-5.66,5.8-8.09,9.93-.72,9.93-.72S185.71,23.34,181.37,25.77Z"/><path class="cls-4" d="M175.8,27.58a16.78,16.78,0,0,1-4.5-.61.5.5,0,0,1-.34-.6c.06-.24,1.56-5.9,6-8.41a11.76,11.76,0,0,1,5.81-1.37,16.91,16.91,0,0,1,4.51.61.5.5,0,0,1,.34.6c-.06.24-1.56,5.89-6,8.4A11.76,11.76,0,0,1,175.8,27.58Zm-3.73-1.44a16.66,16.66,0,0,0,3.73.44,10.77,10.77,0,0,0,5.33-1.25c3.38-1.89,5-5.92,5.41-7.3a16.73,16.73,0,0,0-3.73-.44,10.78,10.78,0,0,0-5.32,1.24C174.1,20.73,172.53,24.76,172.07,26.14Z"/><path class="cls-5" d="M156.43,34.46c-.14,16.55,1.29,58.17,1.29,58.17S173.08,52.66,178,39C184.68,20.19,156.59,15.43,156.43,34.46Z"/><path class="cls-5" d="M157.72,93.63h-.17a1,1,0,0,1-.83-1c0-.42-1.43-41.83-1.29-58.21.07-9.07,6.12-13.13,12.07-13.13a12.62,12.62,0,0,1,10.38,5.18c1.7,2.41,3.25,6.58,1,12.82C174.08,52.85,158.81,92.59,158.66,93A1,1,0,0,1,157.72,93.63Zm9.78-70.31c-4.6,0-10,2.92-10.07,11.15-.11,13,.76,41.65,1.13,53.19,4.19-10.93,14.63-38.26,18.46-49,1.94-5.42.65-9-.77-11A10.76,10.76,0,0,0,167.5,23.33Z"/><path class="cls-6" d="M115.11,28.43s-4.7,18.85-2.57,24.8,11.11,7.56,13.68,8.11,11.11-10.77,11.54-13.78-4-17-7.27-20.62C124.1,19.72,115.11,28.43,115.11,28.43Z"/><path class="cls-7" d="M166.44,45.82s-4.7,14.88-2.57,19.58,11.11,6,13.68,6.4,11.11-8.5,11.54-10.87-3.85-13.51-7.27-16.27S166.44,45.82,166.44,45.82Z"/><path class="cls-1" d="M182.76,90.63s12.44,46-18.69,12.18c-9-13.23-45-80.42-45-80.42s-9.8-37.58,19.91-9.07c6,9,43.81,77.31,43.81,77.31"/><path class="cls-1" d="M180.82,116.24c-3.87,0-9.59-4.17-17.48-12.74l-.09-.11c-9-13.12-44.73-79.84-45.09-80.51a1,1,0,0,1-.09-.22c-.15-.57-3.61-14.07.25-19.06a4.88,4.88,0,0,1,4.06-1.94c3.93,0,9.58,3.58,17.26,11a1,1,0,0,1,.14.17c6,9,42.31,74.59,43.85,77.38a1,1,0,0,1,.09.22c4.86,18,1.16,23.51.72,24.08A4.42,4.42,0,0,1,180.82,116.24Zm-16-14c9.17,10,13.74,12,16,12a2.39,2.39,0,0,0,2-1c3-3.91.3-17.25-1-22.23-1.69-3.06-37.62-68-43.65-77-8.91-8.53-13.51-10.33-15.8-10.33a2.93,2.93,0,0,0-2.48,1.17C117.22,8.28,119,18.3,120,22,121.6,25.06,156.06,89.26,164.86,102.19Z"/><line class="cls-3" x1="135.04" y1="14.86" x2="131.37" y2="30.46"/><path class="cls-8" d="M131.37,31.46l-.23,0a1,1,0,0,1-.74-1.2l3.67-15.59a1,1,0,0,1,1.95.46l-3.67,15.59A1,1,0,0,1,131.37,31.46Z"/><line class="cls-3" x1="142.46" y1="26.16" x2="139.43" y2="39.8"/><path class="cls-8" d="M139.43,40.8l-.22,0a1,1,0,0,1-.76-1.19l3-13.64a1,1,0,1,1,2,.44L140.4,40A1,1,0,0,1,139.43,40.8Z"/><line class="cls-3" x1="148.83" y1="34.93" x2="146.27" y2="47.57"/><path class="cls-8" d="M146.27,48.57l-.2,0a1,1,0,0,1-.78-1.18l2.56-12.64a1,1,0,0,1,2,.4l-2.56,12.64A1,1,0,0,1,146.27,48.57Z"/><line class="cls-3" x1="155.1" y1="46.01" x2="152.61" y2="59.45"/><path class="cls-8" d="M152.61,60.45l-.18,0a1,1,0,0,1-.8-1.17l2.5-13.44a1,1,0,1,1,2,.37l-2.5,13.44A1,1,0,0,1,152.61,60.45Z"/><path class="cls-9" d="M202.1,21.4c.68,4.93-3,9.51-3,9.51s-4.73-3.42-5.41-8.36,3-9.5,3-9.5S201.42,16.47,202.1,21.4Z"/><path class="cls-9" d="M199.14,31.41a.5.5,0,0,1-.29-.09c-.2-.14-4.91-3.61-5.62-8.69s2.91-9.69,3.06-9.88a.5.5,0,0,1,.68-.09c.2.14,4.92,3.61,5.61,8.69s-2.91,9.69-3.06,9.89A.5.5,0,0,1,199.14,31.41Zm-2.36-17.64c-.83,1.2-3.09,4.88-2.56,8.72s3.7,6.78,4.82,7.71c.83-1.2,3.09-4.88,2.56-8.72S197.91,14.69,196.79,13.76Z"/><path class="cls-9" d="M208.8,25.23c-3.49,4.55-9.67,5.67-9.67,5.67s-.52-6.26,3-10.81,9.67-5.66,9.67-5.66S212.29,20.68,208.8,25.23Z"/><path class="cls-9" d="M199.12,31.39a.5.5,0,0,1-.5-.46c0-.26-.5-6.51,3.08-11.16s9.72-5.8,10-5.85a.51.51,0,0,1,.39.1.5.5,0,0,1,.19.35c0,.26.5,6.5-3.07,11.15s-9.72,5.81-10,5.85ZM211.29,15c-1.58.4-6.08,1.8-8.8,5.34s-2.92,8.26-2.89,9.88c1.58-.4,6.07-1.8,8.8-5.35S211.32,16.67,211.29,15Z"/><path class="cls-9" d="M213.44,28.79c-3.21,3.81-9,4.17-9,4.17s-.63-5.81,2.58-9.61,9-4.17,9-4.17S216.64,25,213.44,28.79Z"/><path class="cls-9" d="M204.39,33.46a.5.5,0,0,1-.5-.45c0-.25-.61-6.06,2.7-10s9.14-4.33,9.39-4.34a.48.48,0,0,1,.53.45c0,.25.61,6.07-2.7,10s-9.15,4.33-9.39,4.34Zm11.16-13.73c-1.44.19-5.69,1-8.19,3.94s-2.56,7.29-2.5,8.74c1.44-.19,5.69-1,8.19-3.94S215.61,21.19,215.55,19.73Z"/><path class="cls-9" d="M207.8,22.67c-1.05,8.09-7.86,13.88-7.86,13.88s-5.11-7.33-4.06-15.43,7.86-13.87,7.86-13.87S208.85,14.59,207.8,22.67Z"/><path class="cls-9" d="M199.94,37h-.06a.5.5,0,0,1-.35-.21c-.21-.31-5.21-7.59-4.14-15.78s7.75-13.94,8-14.18a.5.5,0,0,1,.73.1c.21.31,5.21,7.58,4.14,15.76s-7.75,14-8,14.19A.5.5,0,0,1,199.94,37Zm3.71-29c-1.48,1.41-6.4,6.53-7.27,13.16S199,34,200,35.78c1.48-1.41,6.4-6.54,7.27-13.17S204.72,9.77,203.64,8Z"/><path class="cls-9" d="M198.72,24.33c2.16,4.49.1,10,.1,10s-5.55-1.81-7.71-6.3S191,18,191,18,196.57,19.84,198.72,24.33Z"/><path class="cls-9" d="M198.82,34.78l-.16,0c-.23-.08-5.78-1.93-8-6.56s-.2-10.11-.11-10.34a.5.5,0,0,1,.62-.3c.23.08,5.78,1.93,8,6.56s.2,10.11.11,10.35A.5.5,0,0,1,198.82,34.78Zm-7.49-16.1c-.42,1.39-1.45,5.59.23,9.08s5.6,5.33,6.95,5.87c.42-1.39,1.44-5.59-.24-9.09S192.68,19.23,191.32,18.68Z"/><path class="cls-9" d="M215.14,34.24c-4.63,1.85-9.94-.57-9.94-.57s2.18-5.42,6.8-7.27,9.94.58,9.94.58S219.76,32.39,215.14,34.24Z"/><path class="cls-9" d="M211.27,35.43A16.71,16.71,0,0,1,205,34.12a.5.5,0,0,1-.26-.64c.09-.23,2.31-5.64,7.08-7.55a10.86,10.86,0,0,1,4-.73,16.74,16.74,0,0,1,6.29,1.32.5.5,0,0,1,.26.64c-.09.23-2.31,5.64-7.08,7.54A10.88,10.88,0,0,1,211.27,35.43Zm-5.4-2a16,16,0,0,0,5.4,1,9.88,9.88,0,0,0,3.68-.66c3.6-1.44,5.68-5.22,6.31-6.53a16.06,16.06,0,0,0-5.41-1,9.85,9.85,0,0,0-3.67.66C208.58,28.3,206.5,32.09,205.87,33.4Z"/><path class="cls-5" d="M189.28,39.62C187,56,183,97.46,183,97.46s20.43-37.63,27-50.57C219.14,29.14,191.91,20.76,189.28,39.62Z"/><path class="cls-5" d="M183,98.46a1,1,0,0,1-.29,0,1,1,0,0,1-.7-1.05c0-.42,4-41.66,6.29-57.89,1.19-8.52,7-11.56,12-11.56a13,13,0,0,1,10.94,5.95c2.32,3.8,2.22,8.59-.29,13.48-6.54,12.79-26.85,50.21-27.05,50.59A1,1,0,0,1,183,98.46Zm17.28-68.54c-4.17,0-9,2.58-10,9.84-1.79,12.84-4.66,41.4-5.8,52.88,5.57-10.29,19.48-36,24.67-46.2,2.79-5.45,1.74-9.28.36-11.53A11,11,0,0,0,200.28,29.92Z"/><path class="cls-9" d="M92.26,24.53C95.69,28.14,95.4,34,95.4,34s-5.84,0-9.27-3.63S83,20.89,83,20.89,88.84,20.92,92.26,24.53Z"/><path class="cls-9" d="M95.4,34.47h0c-.25,0-6.09-.06-9.63-3.79s-3.28-9.57-3.27-9.81a.5.5,0,0,1,.5-.48h0c.25,0,6.1.07,9.62,3.79S95.92,33.75,95.9,34A.5.5,0,0,1,95.4,34.47ZM83.5,21.42c0,1.46.33,5.77,3,8.58s7,3.35,8.41,3.45c0-1.46-.34-5.76-3-8.58S84.95,21.52,83.5,21.42Z"/><path class="cls-9" d="M99.94,23.73C99.75,29.46,95.38,34,95.38,34s-4.07-4.78-3.88-10.52,4.56-10.23,4.56-10.23S100.13,18,99.94,23.73Z"/><path class="cls-9" d="M95.38,34.47h0a.5.5,0,0,1-.36-.18c-.17-.2-4.2-5-4-10.86s4.51-10.37,4.7-10.56a.51.51,0,0,1,.38-.15.5.5,0,0,1,.37.18c.17.2,4.2,5,4,10.85s-4.51,10.38-4.7,10.57A.5.5,0,0,1,95.38,34.47ZM96,14c-1,1.24-3.89,5-4,9.47s2.44,8.41,3.41,9.72c1-1.24,3.89-5,4-9.48S97,15.31,96,14Z"/><path class="cls-9" d="M105.79,23.92c-.39,5-4.92,8.65-4.92,8.65s-3.9-4.35-3.5-9.32,4.92-8.65,4.92-8.65S106.18,19,105.79,23.92Z"/><path class="cls-9" d="M100.87,33.08a.5.5,0,0,1-.37-.17c-.17-.18-4-4.57-3.63-9.69s4.91-8.84,5.1-9a.5.5,0,0,1,.69.05c.16.18,4,4.57,3.63,9.69s-4.91,8.85-5.1,9A.5.5,0,0,1,100.87,33.08Zm1.36-17.75c-1.06,1-4.06,4.11-4.36,8s2.17,7.41,3.06,8.56c1.06-1,4.06-4.11,4.36-8S103.12,16.48,102.22,15.33Z"/><path class="cls-9" d="M97.64,22.23c3.86,7.19,1.7,15.86,1.7,15.86s-8.43-3-12.29-10.17-1.69-15.85-1.69-15.85S93.78,15.05,97.64,22.23Z"/><path class="cls-9" d="M99.34,38.59l-.17,0c-.35-.12-8.66-3.13-12.56-10.41S84.78,12.31,84.87,12a.5.5,0,0,1,.25-.32.51.51,0,0,1,.4,0c.35.12,8.65,3.13,12.55,10.4s1.84,15.85,1.75,16.21a.5.5,0,0,1-.25.32A.51.51,0,0,1,99.34,38.59ZM85.73,12.76c-.38,2-1.4,9,1.77,14.93S97.09,36.62,99,37.41c.38-2,1.39-9-1.78-14.94S87.62,13.55,85.73,12.76Z"/><path class="cls-9" d="M91.23,28.88c4.37,2.39,5.88,8,5.88,8s-5.57,1.77-9.94-.62-5.87-8-5.87-8S86.86,26.48,91.23,28.88Z"/><path class="cls-9" d="M92.6,38a11.68,11.68,0,0,1-5.67-1.32c-4.5-2.46-6.05-8.1-6.12-8.34a.5.5,0,0,1,.33-.61,16.9,16.9,0,0,1,4.66-.65,11.66,11.66,0,0,1,5.67,1.31c4.5,2.46,6.06,8.1,6.12,8.34a.5.5,0,0,1-.33.61A16.87,16.87,0,0,1,92.6,38ZM81.93,28.6C82.4,30,84,34,87.41,35.84A10.71,10.71,0,0,0,92.6,37a16.63,16.63,0,0,0,3.87-.47C96,35.19,94.39,31.18,91,29.31a10.69,10.69,0,0,0-5.19-1.19A16.72,16.72,0,0,0,81.93,28.6Z"/><path class="cls-9" d="M110.35,27.35c-2.68,4.2-8.41,5.33-8.41,5.33s-1.39-5.68,1.29-9.87,8.41-5.32,8.41-5.32S113,23.16,110.35,27.35Z"/><path class="cls-9" d="M101.94,33.18a.5.5,0,0,1-.49-.38c-.06-.24-1.41-5.93,1.35-10.26s8.49-5.5,8.73-5.54a.49.49,0,0,1,.58.37c.06.24,1.41,5.93-1.35,10.26s-8.49,5.5-8.74,5.55Zm9.31-15.09c-1.41.38-5.52,1.72-7.6,5s-1.57,7.56-1.32,9c1.41-.38,5.51-1.72,7.6-5S111.5,19.53,111.25,18.09Z"/><path class="cls-5" d="M92.47,46.8c7.7,14.66,28.61,50.66,28.61,50.66s-5.34-42.49-7.5-56.85C110.63,20.88,83.62,29.95,92.47,46.8Z"/><path class="cls-5" d="M121.08,98.46a1,1,0,0,1-.86-.5c-.21-.36-21-36.19-28.63-50.7-2.41-4.6-2.51-9.16-.28-12.86a13,13,0,0,1,11-6c5.07,0,11,3.17,12.3,12.05,2.14,14.21,7.45,56.45,7.51,56.87a1,1,0,0,1-.67,1.07A1,1,0,0,1,121.08,98.46ZM102.27,30.41a10.93,10.93,0,0,0-9.26,5c-1.86,3.07-1.74,6.94.34,10.9,6,11.47,20.34,36.36,26.12,46.35C118,81.07,114.29,52,112.59,40.76,111.62,34.28,107.76,30.41,102.27,30.41Z"/><path class="cls-4" d="M159.39,57.59c-.74,9.48-9.39,16.53-9.39,16.53s-7.44-8.32-6.69-17.8S152.7,39.8,152.7,39.8,160.14,48.12,159.39,57.59Z"/><path class="cls-4" d="M149.95,74.81l-.32-.36c-.31-.35-7.57-8.59-6.81-18.17s9.21-16.58,9.57-16.87l.37-.3.32.36c.31.35,7.58,8.59,6.82,18.16s-9.21,16.59-9.57,16.88Zm2.69-34.3c-1.64,1.47-8.2,7.82-8.83,15.85s4.85,15.33,6.25,17c1.65-1.47,8.21-7.82,8.84-15.86S154,42.22,152.64,40.51Z"/><path class="cls-9" d="M150,56c5.22,8,2.71,18.82,2.71,18.82s-11-2-16.19-10S133.81,46,133.81,46,144.78,48,150,56Z"/><path class="cls-9" d="M153.09,75.36l-.47-.09c-.46-.08-11.24-2.14-16.52-10.18s-2.88-18.75-2.78-19.2l.11-.47.47.09c.46.08,11.25,2.14,16.52,10.17s2.88,18.75,2.78,19.21ZM134.2,46.61c-.4,2.17-1.69,11.21,2.74,17.94s13.23,9.14,15.38,9.64c.4-2.17,1.69-11.21-2.74-18S136.35,47.11,134.2,46.61Z"/><path class="cls-9" d="M170.62,63.17c-3.51,8.84-13.84,13-13.84,13s-4.66-10.14-1.15-19,13.84-13,13.84-13S174.12,54.34,170.62,63.17Z"/><path class="cls-9" d="M156.52,76.84l-.2-.43C156.13,76,151.61,66,155.16,57s13.68-13.13,14.11-13.31l.44-.18.2.43c.19.42,4.71,10.44,1.17,19.36S157.39,76.49,157,76.66Zm12.68-32c-2,.92-10.14,5.06-13.11,12.55s.12,16.08,1,18.13c2-.92,10.14-5.06,13.12-12.55S170,46.9,169.2,44.86Z"/><path class="cls-9" d="M130.36,54.66c3.93,9.62-1,20.75-1,20.75S118,70.95,114,61.33s1-20.74,1-20.74S126.44,45.05,130.36,54.66Z"/><path class="cls-9" d="M129.58,76.05l-.45-.18c-.47-.19-11.59-4.66-15.55-14.36s.85-20.67,1.05-21.13l.19-.44.44.18c.47.18,11.59,4.65,15.55,14.35s-.85,20.68-1.05,21.14ZM115.36,41.25c-.86,2.17-4.21,11.67-.85,19.89S126.92,73.81,129,74.75c.86-2.17,4.22-11.67.85-19.9S117.49,42.19,115.36,41.25Z"/><path class="cls-4" d="M142.39,55.43c.92,10.36-7.11,19.52-7.11,19.52s-9.53-7.61-10.44-18,7.11-19.52,7.11-19.52S141.47,45.09,142.39,55.43Z"/><path class="cls-4" d="M135.34,75.64l-.37-.3c-.4-.32-9.71-7.86-10.63-18.3s6.9-19.51,7.23-19.89l.31-.36.37.3c.4.32,9.71,7.86,10.63,18.3s-6.9,19.51-7.24,19.9ZM132,38.19c-1.46,1.82-7.46,9.92-6.67,18.76s8.13,15.76,9.88,17.29c1.46-1.82,7.47-9.91,6.68-18.77S133.76,39.73,132,38.19Z"/><path class="cls-4" d="M120.39,57.69c9,5.2,11.89,17,11.89,17s-11.7,3.43-20.7-1.77-11.88-17-11.88-17S111.4,52.5,120.39,57.69Z"/><path class="cls-4" d="M123.58,76.34a24.19,24.19,0,0,1-12.24-2.95c-9.08-5.24-12-16.85-12.12-17.35l-.11-.46.46-.13a34.45,34.45,0,0,1,8.86-1.13,24.17,24.17,0,0,1,12.23,2.94c9.09,5.24,12,16.86,12.13,17.35l.11.46-.46.13A34.38,34.38,0,0,1,123.58,76.34ZM100.32,56.28c.65,2.24,3.83,11.81,11.52,16.24a23.22,23.22,0,0,0,11.74,2.81,35,35,0,0,0,8.09-1c-.65-2.24-3.82-11.81-11.52-16.25a23.19,23.19,0,0,0-11.73-2.8A35.2,35.2,0,0,0,100.32,56.28Z"/><path class="cls-10" d="M135.28,75.73s-9.53-7.6-10.44-18,7.11-19.51,7.11-19.51"/><path class="cls-10" d="M135,76.12c-.4-.32-9.71-7.86-10.63-18.3s6.9-19.51,7.23-19.89l.75.66c-.08.09-7.88,9.13-7,19.14s10.16,17.53,10.26,17.61Z"/><line class="cls-3" x1="126.99" y1="8.99" x2="124.1" y2="17.31"/><path class="cls-8" d="M124.1,18.31a1,1,0,0,1-.94-1.33L126,8.66a1,1,0,1,1,1.89.66L125,17.64A1,1,0,0,1,124.1,18.31Z"/><path class="cls-10" d="M156.78,79.17s-5.44-10.91-1.91-20.68,14.67-14.71,14.67-14.71Z"/><path class="cls-10" d="M156.78,79.67a.5.5,0,0,1-.45-.28c-.23-.45-5.49-11.21-1.93-21.08s14.48-14.79,14.94-15a.5.5,0,0,1,.54.09A.5.5,0,0,1,170,44L157.25,79.34a.5.5,0,0,1-.44.33Zm11.87-34.88c-2.87,1.52-10.55,6.21-13.31,13.87s.16,16.17,1.39,19.17Z"/><path class="cls-11" d="M211.76,59.45c-56,17.73-125.23,0-125.23,0L71.14,153.89H232.28Z"/><path class="cls-11" d="M232.28,155.39H71.14a1.5,1.5,0,0,1-1.48-1.74L85,59.21A1.5,1.5,0,0,1,86.9,58a306.55,306.55,0,0,0,67.51,7.83c21.39,0,40.54-2.63,56.9-7.81a1.5,1.5,0,0,1,1.92,1.11l20.52,94.45a1.5,1.5,0,0,1-1.47,1.82Zm-159.37-3H230.42l-19.77-91c-16.31,5-35.21,7.46-56.24,7.46a313.51,313.51,0,0,1-66.66-7.55Z"/><path class="cls-12" d="M151.71,105.37a42.35,42.35,0,0,1-42.3-42.3,1,1,0,1,1,2,0,40.3,40.3,0,0,0,80.6,0,1,1,0,1,1,2,0A42.35,42.35,0,0,1,151.71,105.37Z"/><polygon class="cls-13" points="84.75 109.97 79.59 147.79 167.71 149.3 84.75 109.97"/><path class="cls-13" d="M167.71,150.8h0l-88.12-1.5a1.5,1.5,0,0,1-1.46-1.7l5.16-37.82a1.5,1.5,0,0,1,2.13-1.15l83,39.32a1.5,1.5,0,0,1-.64,2.86Zm-86.4-4.47,79.49,1.35L86,112.21Z"/><path class="cls-14" d="M24.66,146s20.79,15.27,38.43,21.55c7.11,2.53,28.11,3.34,37.56-1.39s12.49-17.08,8.84-21.32-28.4-11.19-37.21-12.62-15.72-11.07-26.61-9.79-12.27,2.92-17.61,5.85c-10.41,5.7-4.53,12.14-3.41,17.72"/><path class="cls-14" d="M80.1,170.54h0c-7,0-13.78-.82-17.35-2.09-17.57-6.25-38.48-21.53-38.69-21.68a1,1,0,0,1-.39-.61,24.47,24.47,0,0,0-1.14-3.58c-1.72-4.61-3.86-10.34,5.05-15.22.77-.42,1.46-.82,2.1-1.19,3.83-2.2,6.36-3.66,15.86-4.77a17.93,17.93,0,0,1,2.09-.12c5.75,0,10.35,2.76,14.8,5.43,3.37,2,6.55,3.93,10,4.49,7.71,1.25,33.71,8.21,37.8,12.95,1.64,1.9,2.16,5.11,1.42,8.81A20.5,20.5,0,0,1,101.1,167C95,170.08,85.31,170.54,80.1,170.54ZM25.56,145.38c2.63,1.89,21.72,15.44,37.87,21.19,3.37,1.2,9.91,2,16.68,2h0c8.56,0,15.89-1.21,20.1-3.31a18.46,18.46,0,0,0,9.5-12.67c.61-3,.25-5.69-1-7.11-3.3-3.82-27.17-10.76-36.61-12.28-3.82-.62-7.32-2.72-10.7-4.75-4.21-2.53-8.57-5.15-13.77-5.15a16.1,16.1,0,0,0-1.86.11c-9.1,1.07-11.36,2.37-15.1,4.52-.66.38-1.36.78-2.14,1.21-7.4,4-5.89,8.08-4.14,12.76A29.53,29.53,0,0,1,25.56,145.38Z"/><path class="cls-8" d="M64.6,131.1S47.94,138,43.5,142.79s-5.39,9.09-5,10.2,5.88,1.4,9.61.15,7.47-2.72,9.7-5.09,13.5-10.5,15.95-13.52l-8.72-3.41"/><path class="cls-8" d="M42.61,154.94c-2.44,0-4.59-.47-5-1.6-.62-1.64.59-6.35,5.18-11.24s20.76-11.64,21.45-11.93a4,4,0,0,1,1.21,0l8.72,3.41a1,1,0,0,1,.41,1.56c-1.47,1.81-5.63,5.11-9.66,8.3-2.79,2.21-5.43,4.31-6.33,5.27-2.37,2.53-6.26,4.07-10.11,5.36A19.7,19.7,0,0,1,42.61,154.94Zm-3.18-2.43c.87.48,5,.79,8.38-.33,3.6-1.21,7.22-2.63,9.29-4.83a85.3,85.3,0,0,1,6.55-5.47c3.09-2.45,6.53-5.17,8.39-7l-7.21-2.82c-1.71.72-16.58,7.09-20.6,11.38S39.33,151.6,39.44,152.51Z"/><path class="cls-8" d="M82.54,136.81s-21.28,18.9-22.62,20.62,4.56,1.82,9.61.15,11.25-6.82,12.79-7.45,11-5.51,12.81-8.76Z"/><path class="cls-8" d="M62.55,159.78h0c-2.08,0-3.25-.4-3.67-1.26a1.57,1.57,0,0,1,.26-1.71c1.35-1.75,20.56-18.82,22.74-20.76a1,1,0,0,1,1-.19l12.6,4.57a1,1,0,0,1,.53,1.43c-2.07,3.72-12.28,8.77-13.31,9.2a25.56,25.56,0,0,0-2.62,1.69c-2.67,1.84-6.7,4.61-10.24,5.78A24.7,24.7,0,0,1,62.55,159.78Zm-1.49-2.12a7.77,7.77,0,0,0,1.49.12h0a23,23,0,0,0,6.67-1.15c3.26-1.08,7.15-3.76,9.73-5.53a21.27,21.27,0,0,1,3-1.9c1.7-.7,8.94-4.53,11.58-7.35L82.76,138C74.81,145,63.33,155.33,61.06,157.67Z"/><path class="cls-8" d="M103.07,144.27s-9.07,7.29-12,11.39-3.15,5.63-3.17,6.95.15,4.59,5.66,1.4,8.81-4.45,11.49-7.9,4.74-9.32,4.53-9.76Z"/><path class="cls-8" d="M89.85,166.36h0a2.74,2.74,0,0,1-2-.78,4.08,4.08,0,0,1-.91-3c0-1.49.29-3.18,3.35-7.51s11.8-11.3,12.17-11.6a1,1,0,0,1,.93-.17l6.53,2.07a1,1,0,0,1,.6.52c.61,1.26-2.44,8-4.64,10.81S101,161,97.38,163c-1,.55-2.1,1.16-3.31,1.85A9,9,0,0,1,89.85,166.36Zm13.43-21c-1.8,1.47-8.93,7.4-11.38,10.86-2.73,3.85-3,5.22-3,6.38a2.29,2.29,0,0,0,.34,1.55.75.75,0,0,0,.59.19h0a7.08,7.08,0,0,0,3.23-1.22c1.22-.7,2.33-1.31,3.34-1.87,3.55-2,5.89-3.24,7.85-5.78a30.09,30.09,0,0,0,4.2-8.46Z"/><path class="cls-8" d="M47.52,121.3s-10.22,5.28-13.81,8.77a12.5,12.5,0,0,0-3.44,8.8c0,.36,26.82-9.05,26.85-12.08S47.52,121.3,47.52,121.3Z"/><path class="cls-8" d="M30.29,139.88h0a1.07,1.07,0,0,1-.74-.3,1,1,0,0,1-.29-.72A13.37,13.37,0,0,1,33,129.35c3.66-3.55,13.63-8.72,14.05-8.94a1,1,0,0,1,.71-.08c2.44.62,10.38,2.93,10.35,6.47C58.07,131.08,30.57,139.88,30.29,139.88Zm17.35-17.51c-1.79.94-10.15,5.43-13.24,8.42a10.9,10.9,0,0,0-3.08,6.81c5.3-1.57,23.55-8.65,24.79-10.89C56,125.42,51.65,123.44,47.64,122.37Z"/></g></g></svg>