<?xml version="1.0" encoding="UTF-8" standalone="no"?>
<svg width="49px" height="60px" viewBox="0 0 49 60" version="1.1" xmlns="http://www.w3.org/2000/svg" xmlns:xlink="http://www.w3.org/1999/xlink">
    <!-- Generator: Sketch 3.8.3 (29802) - http://www.bohemiancoding.com/sketch -->
    <title>present</title>
    <desc>Created with Sketch.</desc>
    <defs></defs>
    <g id="Page-1" stroke="none" stroke-width="1" fill="none" fill-rule="evenodd">
        <g id="present">
            <g id="Page-1">
                <g id="present">
                    <rect id="Rectangle-path" fill="#B73753" x="2.78258064" y="24.3648388" width="42.8087096" height="35.5809678"></rect>
                    <rect id="Rectangle-path" fill="#B22D43" x="0.201935484" y="19.1348387" width="47.97" height="10.46"></rect>
                    <rect id="Rectangle-path" fill="#B22D43" x="4.50290322" y="29.5948387" width="39.3680645" height="30.3509677"></rect>
                    <rect id="Rectangle-path" fill="#93213F" x="2.78258064" y="29.5948387" width="42.8087096" height="2.17935484"></rect>
                    <rect id="Rectangle-path" fill="#B73753" x="19.7712904" y="18.75" width="9.47645161" height="41.1958064"></rect>
                    <rect id="Rectangle-path" fill="#F89406" x="20.7390323" y="18.75" width="7.54096774" height="41.1958064"></rect>
                    <circle id="Oval" fill="#F89406" cx="23.8990322" cy="16.8606451" r="4.91709678"></circle>
                    <path d="M26.1858065,12.9196774 C26.1858065,12.9196774 32.0103226,-3.45903226 38.9035484,0.922903226 C45.7967742,5.30451613 45.3251612,15.2874193 26.757742,20.0932258 C26.7574194,20.0929032 24.8648387,14.3712904 26.1858065,12.9196774 L26.1858065,12.9196774 L26.1858065,12.9196774 Z" id="Shape" fill="#F89406"></path>
                    <path d="M28.2896774,17.4651613 C28.2896774,17.4651613 32.2374193,8.48870968 40.418387,10.8958065 C40.418387,10.8954839 36.6229032,11.8967742 28.2896774,17.4651613 L28.2896774,17.4651613 L28.2896774,17.4651613 Z" id="Shape" fill="#E5820C"></path>
                    <path d="M21.5332258,12.9712903 C21.5332258,12.9712903 13.2309678,-1.20258065 7.60677419,4.0832258 C1.9832258,9.36967742 4.18548388,18.5525807 22.2703226,19.7306452 C22.2703226,19.7306452 23.016129,14.0851613 21.5332258,12.9712903 L21.5332258,12.9712903 L21.5332258,12.9712903 Z" id="Shape" fill="#F89406"></path>
                    <path d="M20.3832258,17.5619354 C20.3832258,17.5619354 15.1325807,9.92774194 7.96354838,13.6083871 C7.96387097,13.6087097 11.663871,13.8664516 20.3832258,17.5619354 L20.3832258,17.5619354 L20.3832258,17.5619354 Z" id="Shape" fill="#E5820C"></path>
                    <path d="M29.0854838,18.2035484 C29.0854838,18.2035484 35.6270968,18.9832258 38.9732258,22.9703226 C42.3196774,26.9567742 46.8125807,27.5009677 46.8125807,27.5009677 L43.9109677,30.8283871 C43.9109677,30.8283871 38.1690323,28.4922581 36.413871,25.8832258 C34.6587097,23.2745161 29.4419354,19.39 27.4916129,19.2777419 L29.0854838,18.2035484 L29.0854838,18.2035484 L29.0854838,18.2035484 Z" id="Shape" fill="#F89406"></path>
                    <path d="M22.6003226,18.2035484 C22.6003226,18.2035484 16.0587097,18.9832258 12.7125806,22.9703226 C9.36612904,26.9567742 4.87322581,27.5009677 4.87322581,27.5009677 L7.77483871,30.8283871 C7.77483871,30.8283871 13.5167742,28.4922581 15.2719355,25.8832258 C17.0270968,23.2745161 22.2438709,19.39 24.1941936,19.2777419 L22.6003226,18.2035484 L22.6003226,18.2035484 L22.6003226,18.2035484 Z" id="Shape" fill="#F89406"></path>
                </g>
            </g>
        </g>
    </g>
</svg>