<svg xmlns="http://www.w3.org/2000/svg" viewBox="0 0 266.23 172.94"><defs><style>.cls-1{fill:#f9b233;}.cls-2{fill:#b91c48;}.cls-3{fill:#fff;}.cls-4{fill:#913d88;}.cls-5{fill:#ffe3a4;}.cls-6{fill:#754142;}.cls-7{fill:#afe1e1;}.cls-8{fill:#4a806c;}.cls-9{fill:#b91c73;}.cls-10{fill:#f39200;}.cls-11{fill:none;stroke:#1d1d1b;stroke-linecap:round;stroke-linejoin:round;}.cls-12{fill:#afd03d;}.cls-13{fill:#bff1ff;}.cls-14{fill:#10457a;}.cls-15{fill:#7541a3;}.cls-16{fill:#55508c;}.cls-17{fill:#fff7a4;}.cls-18{fill:#ffdc7e;}.cls-19{fill:#ebb16b;}.cls-20{fill:#c0802a;}</style></defs><title>restauration</title><g id="Calque_2" data-name="Calque 2"><g id="Calque_1-2" data-name="Calque 1"><ellipse class="cls-1" cx="129.38" cy="152.45" rx="115.36" ry="20.49"/><ellipse class="cls-2" cx="203.95" cy="141.09" rx="60.78" ry="16.51"/><path class="cls-2" d="M204,159.1c-16.36,0-31.76-1.74-43.37-4.89-8.63-2.34-18.91-6.52-18.91-13.12S152,130.31,160.59,128c11.6-3.15,27-4.89,43.37-4.89s31.77,1.74,43.37,4.89c8.63,2.34,18.91,6.52,18.91,13.12s-10.28,10.78-18.91,13.12C235.72,157.37,220.32,159.1,204,159.1Zm0-33c-34.93,0-59.28,7.91-59.28,15s24.34,15,59.28,15,59.28-7.91,59.28-15S238.89,126.08,204,126.08Z"/><ellipse class="cls-3" cx="207.3" cy="140.22" rx="37.43" ry="8.25"/><path class="cls-3" d="M207.3,150c-13.46,0-38.93-2-38.93-9.75s25.46-9.75,38.93-9.75,38.93,2,38.93,9.75S220.77,150,207.3,150Zm0-16.5c-23.25,0-35.93,4.46-35.93,6.75S184.06,147,207.3,147s35.93-4.46,35.93-6.75S230.55,133.47,207.3,133.47Z"/><path class="cls-4" d="M129.18,16.95a34.14,34.14,0,1,1-68.29,0Z"/><ellipse class="cls-4" cx="50.78" cy="140.74" rx="49.28" ry="13.36"/><path class="cls-4" d="M50.78,155.59C26.16,155.59,0,150.39,0,140.74s26.16-14.86,50.78-14.86,50.78,5.21,50.78,14.86S75.4,155.59,50.78,155.59Zm0-26.71C22.62,128.88,3,135.13,3,140.74s19.62,11.85,47.78,11.85,47.78-6.25,47.78-11.85S78.94,128.88,50.78,128.88Z"/><ellipse class="cls-3" cx="45.5" cy="140.74" rx="30.42" ry="7.24"/><path class="cls-3" d="M45.5,149.48c-11,0-31.92-1.83-31.92-8.74S34.46,132,45.5,132s31.92,1.83,31.92,8.75S56.55,149.48,45.5,149.48Zm0-14.49c-18.71,0-28.92,3.8-28.92,5.75s10.21,5.74,28.92,5.74,28.92-3.79,28.92-5.74S64.22,135,45.5,135Z"/><path class="cls-5" d="M26.21,144.28c.25-2,10.21-14.8,10.21-14.8l2.33,2.27s-6.09,15-7.92,16.33S26,146.29,26.21,144.28Z"/><path class="cls-5" d="M29.83,149.4a4.57,4.57,0,0,1-3.26-1.73,4.72,4.72,0,0,1-1.35-3.51c.26-2.13,8-12.25,10.41-15.3a1,1,0,0,1,.72-.38,1,1,0,0,1,.77.28L39.44,131a1,1,0,0,1,.23,1.09c-1.45,3.59-6.35,15.39-8.27,16.77A2.68,2.68,0,0,1,29.83,149.4ZM36.52,131c-4.53,5.87-9.1,12.28-9.32,13.44a2.91,2.91,0,0,0,.86,1.93c.74.84,1.66,1.29,2.17.93,1-.76,4.45-8.25,7.33-15.27Z"/><path class="cls-6" d="M37,105.91s17.82-23,23.9-6.94,4.48,17.65-.67,23.79c-4,4.81-18.17,12.87-22.56,11.27a6.88,6.88,0,0,1-3.53-3c-1.64-2.65-2.3-6.59-2.67-11C30.93,113.41,37,105.91,37,105.91Z"/><path class="cls-3" d="M36.25,122.19h0a1,1,0,0,1-1-1C35.57,110.33,46,103,46.46,102.7a1,1,0,0,1,1.14,1.65c-.1.07-10.05,7.07-10.35,16.87A1,1,0,0,1,36.25,122.19Z"/><path class="cls-7" d="M95,148a1.5,1.5,0,0,1-1.5-1.5v-95a1.5,1.5,0,1,1,3,0v95A1.5,1.5,0,0,1,95,148Z"/><path class="cls-7" d="M95,52.91A36.2,36.2,0,0,1,58.88,16.75V1.5A1.5,1.5,0,0,1,60.38,0h69.32a1.5,1.5,0,0,1,1.5,1.5V16.75A36.2,36.2,0,0,1,95,52.91ZM61.88,3V16.75a33.16,33.16,0,1,0,66.32,0V3Z"/><path class="cls-7" d="M112.6,146.58H75.72a1.5,1.5,0,0,1,0-3H112.6a1.5,1.5,0,0,1,0,3Z"/><path class="cls-3" d="M84.22,43.46a1,1,0,0,1-.39-.08c-.53-.22-12.9-5.56-15-14a1,1,0,0,1,1.94-.49c1.9,7.46,13.77,12.58,13.89,12.63a1,1,0,0,1-.39,1.92Z"/><path class="cls-2" d="M139.2,89.38a1.5,1.5,0,0,1-1.42-2l18.44-54a1.5,1.5,0,0,1,2.84,1l-18.44,54A1.5,1.5,0,0,1,139.2,89.38Z"/><path class="cls-2" d="M142.92,105.31a1.5,1.5,0,0,1-1.38-2.08L171,32.79A1.5,1.5,0,0,1,173.75,34L144.3,104.39A1.5,1.5,0,0,1,142.92,105.31Z"/><path class="cls-8" d="M94.6,121.28A13.09,13.09,0,0,0,106,114.7a13.23,13.23,0,0,0,16.37,1.5A20.79,20.79,0,0,0,152,113.66a13.3,13.3,0,0,0,4.73.9,12.87,12.87,0,1,0-3.57-25.19,20.94,20.94,0,0,0-33.32-1.44,13.12,13.12,0,0,0-25.28,4.7,12.41,12.41,0,0,0,.38,3c-.13,0-.24,0-.38,0a12.87,12.87,0,1,0,0,25.74Z"/><path class="cls-8" d="M135.93,121.78a21.48,21.48,0,0,1-13.63-4.95,13.73,13.73,0,0,1-16.22-1.34,13.65,13.65,0,0,1-11.48,6.29A13.37,13.37,0,1,1,94.35,95a12.32,12.32,0,0,1-.25-2.42A13.63,13.63,0,0,1,120,87a21.44,21.44,0,0,1,33.38,1.79,13.16,13.16,0,0,1,3.37-.47,13.37,13.37,0,1,1,0,26.74,13.71,13.71,0,0,1-4.57-.81A21.35,21.35,0,0,1,135.93,121.78Zm-13.55-6.19.28.24a20.29,20.29,0,0,0,29-2.49l.23-.28.34.13a12.83,12.83,0,0,0,4.55.87,12.37,12.37,0,1,0-3.44-24.21l-.34.1-.2-.29a20.44,20.44,0,0,0-32.52-1.4l-.54.64-.31-.78A12.62,12.62,0,0,0,95.1,92.63a11.9,11.9,0,0,0,.36,2.83l.15.62H95l-.26,0H94.6a12.37,12.37,0,1,0,0,24.74,12.65,12.65,0,0,0,10.94-6.32l.32-.55.46.44a12.73,12.73,0,0,0,15.75,1.45Z"/><circle class="cls-2" cx="130.63" cy="86.94" r="0.94"/><ellipse class="cls-9" cx="139.2" cy="95.53" rx="4.28" ry="6.76" transform="translate(-29.32 85.35) rotate(-31.01)"/><ellipse class="cls-9" cx="106.17" cy="91.82" rx="6.76" ry="4.28" transform="translate(-34.06 98.01) rotate(-43.38)"/><path class="cls-10" d="M111.57,99.18a.49.49,0,0,1-.21,0,.5.5,0,0,1-.25-.66l7.69-16.88a.5.5,0,0,1,.91.42L112,98.89A.5.5,0,0,1,111.57,99.18Z"/><path class="cls-10" d="M133.5,102.74a.5.5,0,0,1-.46-.3L125.5,85.49a.5.5,0,0,1,.91-.41L134,102a.5.5,0,0,1-.46.7Z"/><path class="cls-10" d="M151,102.74a.5.5,0,0,1-.46-.3L143,85.49a.5.5,0,0,1,.91-.41L151.46,102a.5.5,0,0,1-.46.7Z"/><circle class="cls-2" cx="107.11" cy="87.88" r="0.94"/><path class="cls-11" d="M161.79,68.59"/><path class="cls-12" d="M156.09,93.76a14,14,0,0,0-12,6.45,14.48,14.48,0,0,0-9.63-3.59,14.7,14.7,0,0,0-7.63,2.11,23,23,0,0,0-14.33-5,22.64,22.64,0,0,0-17,7.47,15,15,0,0,0-5-.88c-7.63,0-13.82,5.66-13.82,12.62s6.19,12.63,13.82,12.63a14.8,14.8,0,0,0,3.77-.54,23.1,23.1,0,0,0,35.13,1.41,13.84,13.84,0,0,0,12.84,8c7.63,0,13.82-5.65,13.82-12.63a11.4,11.4,0,0,0-.4-2.9c.13,0,.25,0,.4,0,7.63,0,13.82-5.65,13.82-12.62S163.72,93.76,156.09,93.76Z"/><path class="cls-12" d="M142.27,135.49a14.92,14.92,0,0,1-13.1-7.3,24.16,24.16,0,0,1-35.26-2,14.89,14.89,0,0,1-3.37.41c-8.17,0-14.82-6.11-14.82-13.62s6.65-13.62,14.82-13.62a15.82,15.82,0,0,1,4.69.73,23.72,23.72,0,0,1,17.28-7.32,24.19,24.19,0,0,1,14.41,4.77,15.73,15.73,0,0,1,7.55-1.91,15.54,15.54,0,0,1,9.42,3.12,15.2,15.2,0,0,1,12.2-6c8.17,0,14.82,6.11,14.82,13.62,0,7.25-6.2,13.2-14,13.6a11.46,11.46,0,0,1,.16,1.88C157.09,129.38,150.45,135.49,142.27,135.49Zm-12.54-10.85.62,1.44a12.78,12.78,0,0,0,11.92,7.41c7.07,0,12.82-5.22,12.82-11.63a10.4,10.4,0,0,0-.37-2.64L154.4,118h1.29l.34,0h0c7.12,0,12.86-5.21,12.86-11.61s-5.75-11.62-12.82-11.62a13.08,13.08,0,0,0-11.14,6l-.62,1-.89-.79a13.48,13.48,0,0,0-9-3.34,13.69,13.69,0,0,0-7.12,2l-.59.36-.55-.43a22.16,22.16,0,0,0-13.71-4.75,21.68,21.68,0,0,0-16.23,7.14l-.45.5-.63-.22a14,14,0,0,0-4.66-.83c-7.07,0-12.82,5.21-12.82,11.62s5.75,11.63,12.82,11.63a13.66,13.66,0,0,0,3.52-.5l.65-.17.4.54a22.1,22.1,0,0,0,33.58,1.34Z"/><circle class="cls-2" cx="111.22" cy="104.14" r="0.94"/><circle class="cls-2" cx="162.73" cy="103.44" r="0.94"/><circle class="cls-2" cx="125.57" cy="105.58" r="0.94"/><circle class="cls-2" cx="149.61" cy="105.58" r="0.94"/><circle class="cls-2" cx="88.58" cy="105.58" r="0.94"/><path class="cls-3" d="M166.13,102.38a1,1,0,0,1-.8-.4c-5.71-7.57-11.5-4.4-11.55-4.37a1,1,0,1,1-1-1.74c.07,0,7.39-4.06,14.14,4.9a1,1,0,0,1-.8,1.6Z"/><path class="cls-3" d="M102.62,101.15a1,1,0,0,1-.67-1.74c.09-.09,9.68-8.51,19.17-1.27a1,1,0,0,1-1.21,1.59c-8.16-6.22-16.28.86-16.62,1.17A1,1,0,0,1,102.62,101.15Z"/><ellipse class="cls-9" cx="124.63" cy="109.39" rx="6.76" ry="4.28" transform="translate(-3.33 214.87) rotate(-80.78)"/><ellipse class="cls-9" cx="148.67" cy="107.29" rx="4.28" ry="6.76" transform="translate(-11.43 17.95) rotate(-6.65)"/><path class="cls-10" d="M102.32,119.58h-.11a.5.5,0,0,1-.37-.6L106,100.89a.5.5,0,0,1,1,.22l-4.16,18.08A.5.5,0,0,1,102.32,119.58Z"/><path class="cls-10" d="M97.72,118.73a.5.5,0,0,1-.5-.44L95,99.88a.5.5,0,0,1,1-.12l2.25,18.41a.5.5,0,0,1-.44.56Z"/><path class="cls-10" d="M132.51,116.23a.49.49,0,0,1-.21,0,.5.5,0,0,1-.25-.66l7.69-16.88a.5.5,0,0,1,.91.42L133,115.94A.5.5,0,0,1,132.51,116.23Z"/><path class="cls-10" d="M150.55,119a.49.49,0,0,1-.21,0,.5.5,0,0,1-.25-.66l7.7-16.88a.5.5,0,0,1,.91.42L151,118.69A.5.5,0,0,1,150.55,119Z"/><path class="cls-7" d="M75.72,112.21c0,23.42,21.34,42.4,47.67,42.4s47.67-19,47.67-42.4Z"/><path class="cls-7" d="M123.39,156.1c-27.11,0-49.17-19.69-49.17-43.9a1.5,1.5,0,0,1,1.5-1.5h95.34a1.5,1.5,0,0,1,1.5,1.5C172.56,136.41,150.5,156.1,123.39,156.1Zm-46.14-42.4c.89,21.86,21.25,39.4,46.14,39.4s45.25-17.54,46.14-39.4Z"/><path class="cls-13" d="M123.39,154.6c26.32,0,47.67-19,47.67-42.4H135.14Z"/><path class="cls-13" d="M123.39,156.1h-2L134,110.71h38.57v1.5C172.56,136.41,150.5,156.1,123.39,156.1Zm12.89-42.4-10.91,39.36c24-.9,43.29-18.08,44.16-39.36Z"/><path class="cls-8" d="M202.38,93.58C204.76,100.45,201,108,201,108s-7.66-3.58-10-10.45,1.42-14.43,1.42-14.43S200,86.71,202.38,93.58Z"/><path class="cls-8" d="M201,109a1,1,0,0,1-.42-.09c-.33-.15-8.07-3.84-10.56-11s1.31-14.88,1.47-15.2a1,1,0,0,1,1.32-.46c.33.15,8.07,3.85,10.56,11s-1.31,14.88-1.47,15.2A1,1,0,0,1,201,109Zm-8.14-24.49c-.87,2.16-2.7,7.69-1,12.71s6.59,8.24,8.61,9.39c.87-2.16,2.7-7.69,1-12.71S194.85,85.68,192.82,84.52Z"/><path class="cls-12" d="M193.67,99.44c5.57,4.67,6.2,13.11,6.2,13.11s-8.41.87-14-3.8-6.2-13.11-6.2-13.11S188.09,94.77,193.67,99.44Z"/><path class="cls-12" d="M198.24,113.61c-3,0-8.75-.53-13-4.1-5.83-4.89-6.53-13.44-6.55-13.8a1,1,0,0,1,.89-1.07s.68-.07,1.73-.07c3,0,8.75.53,13,4.1,5.83,4.89,6.52,13.44,6.55,13.8a1,1,0,0,1-.89,1.07S199.29,113.61,198.24,113.61Zm-17.43-17c.36,2.3,1.64,8,5.71,11.4,3.77,3.16,9,3.63,11.72,3.63h.5c-.36-2.3-1.64-8-5.71-11.4-3.77-3.16-9-3.63-11.72-3.63Z"/><ellipse class="cls-14" cx="200.68" cy="105.46" rx="7.47" ry="8.06" transform="translate(-20.83 153.72) rotate(-40.01)"/><ellipse class="cls-15" cx="196.34" cy="135.16" rx="7.48" ry="8.06" transform="translate(-40.95 157.84) rotate(-40)"/><ellipse class="cls-14" cx="207.79" cy="125.55" rx="7.48" ry="8.06" transform="translate(-32.08 163) rotate(-40.02)"/><ellipse class="cls-14" cx="219.3" cy="116.01" rx="7.48" ry="8.06" transform="translate(-23.25 168.17) rotate(-40.02)"/><ellipse class="cls-16" cx="207.36" cy="133.76" rx="7.48" ry="8.06" transform="translate(-37.46 164.65) rotate(-40.02)"/><ellipse class="cls-15" cx="218.76" cy="126.99" rx="7.48" ry="8.06" transform="translate(-30.44 170.39) rotate(-40.01)"/><ellipse class="cls-15" cx="230.33" cy="109.77" rx="7.48" ry="8.06" transform="translate(-16.66 173.79) rotate(-40.01)"/><ellipse class="cls-16" cx="186.54" cy="133.18" rx="7.48" ry="8.06" transform="translate(-41.96 151.11) rotate(-40.01)"/><ellipse class="cls-15" cx="197.99" cy="123.57" rx="7.48" ry="8.06" transform="translate(-33.1 156.21) rotate(-40.01)"/><ellipse class="cls-15" cx="187.08" cy="122.2" rx="7.48" ry="8.06" transform="matrix(0.77, -0.64, 0.64, 0.77, -34.77, 148.91)"/><ellipse class="cls-15" cx="209.13" cy="104.86" rx="7.48" ry="8.06" transform="translate(-18.47 159) rotate(-40.01)"/><ellipse class="cls-16" cx="209.5" cy="114.03" rx="7.48" ry="8.06" transform="translate(-24.27 161.42) rotate(-40.02)"/><ellipse class="cls-16" cx="197.05" cy="116.64" rx="7.48" ry="8.06" transform="translate(-28.86 154.01) rotate(-40.02)"/><ellipse class="cls-16" cx="214.24" cy="96.41" rx="7.48" ry="8.06" transform="translate(-11.84 160.31) rotate(-40.01)"/><ellipse class="cls-16" cx="220.53" cy="107.79" rx="7.48" ry="8.06" transform="translate(-17.68 167) rotate(-40.01)"/><ellipse class="cls-15" cx="224.19" cy="98.58" rx="7.48" ry="8.06" transform="translate(-10.91 167.19) rotate(-40)"/><ellipse class="cls-16" cx="229.79" cy="120.75" rx="7.48" ry="8.06" transform="translate(-23.83 176.07) rotate(-40.03)"/><ellipse class="cls-15" cx="218.22" cy="137.98" rx="7.48" ry="8.06" transform="translate(-37.63 172.61) rotate(-40.01)"/><ellipse class="cls-14" cx="229.24" cy="131.73" rx="7.47" ry="8.06" transform="translate(-31.03 178.24) rotate(-40.02)"/><ellipse class="cls-16" cx="231.51" cy="143.16" rx="7.48" ry="8.06" transform="translate(-37.85 182.32) rotate(-40)"/><path class="cls-3" d="M214.39,128.35a.5.5,0,0,1-.5-.5c0-1.49.71-4.44,3.41-4.91a.5.5,0,0,1,.17,1c-2.56.45-2.59,3.89-2.59,3.93a.5.5,0,0,1-.5.5Z"/><path class="cls-3" d="M182.11,121.63a.5.5,0,0,1-.5-.5c0-1.49.71-4.44,3.42-4.91a.5.5,0,0,1,.17,1c-2.56.45-2.59,3.89-2.59,3.93a.5.5,0,0,1-.5.5Z"/><path class="cls-3" d="M196.51,141.51a3.78,3.78,0,0,1-3.2-1.53.5.5,0,1,1,.81-.59c1.53,2.11,4.63.6,4.67.59a.5.5,0,1,1,.44.9A6.44,6.44,0,0,1,196.51,141.51Z"/><path class="cls-3" d="M220.41,113.87a3.78,3.78,0,0,1-3.2-1.53.5.5,0,0,1,.81-.59c1.53,2.11,4.64.61,4.67.59a.5.5,0,1,1,.44.9A6.44,6.44,0,0,1,220.41,113.87Z"/><path class="cls-3" d="M196.16,122.65a3.78,3.78,0,0,1-3.2-1.53.5.5,0,1,1,.81-.59c1.53,2.1,4.54.65,4.67.59a.5.5,0,0,1,.44.9A6.44,6.44,0,0,1,196.16,122.65Z"/><path class="cls-3" d="M195.15,104.44h0a.5.5,0,0,1-.45-.54c.14-1.49,1.14-4.36,3.88-4.56a.5.5,0,1,1,.07,1c-2.6.19-3,3.62-3,3.66A.5.5,0,0,1,195.15,104.44Z"/><path class="cls-3" d="M214.71,134.91a.5.5,0,0,1-.34-.87c1.1-1,3.77-2.46,5.94-.76a.5.5,0,0,1-.62.79c-2.06-1.6-4.62.69-4.65.72A.5.5,0,0,1,214.71,134.91Z"/><path class="cls-3" d="M221.76,94.24a.5.5,0,0,1-.29-.9c1.21-.88,4-2,6-.13a.5.5,0,1,1-.7.72c-1.87-1.81-4.67.2-4.69.22A.5.5,0,0,1,221.76,94.24Z"/><path class="cls-3" d="M231.53,149a4,4,0,0,1-3.65-1.92.5.5,0,0,1,.87-.5c1.29,2.26,4.54,1.12,4.57,1.11a.5.5,0,0,1,.34.94A6.51,6.51,0,0,1,231.53,149Z"/><path class="cls-17" d="M148,130.71a20.18,20.18,0,0,0,26.27,30.65Z"/><path class="cls-18" d="M161.18,167.22h0A21.19,21.19,0,0,1,147.38,130a1,1,0,0,1,1.41.11l26.27,30.65a1,1,0,0,1-.11,1.41A21.18,21.18,0,0,1,161.18,167.22Zm-13.24-35.08a19.19,19.19,0,0,0,13.24,33.08h0a19.18,19.18,0,0,0,11.7-4Z"/><path class="cls-3" d="M153,156a1,1,0,0,1-.72-1.7l3.67-3.77a1,1,0,0,1,1.43,1.39l-3.67,3.77A1,1,0,0,1,153,156Z"/><path class="cls-3" d="M161,160.58l-.2,0a1,1,0,0,1-.78-1.18l.92-4.59a1,1,0,1,1,2,.39l-.92,4.59A1,1,0,0,1,161,160.58Z"/><path class="cls-3" d="M153,146.59h-5.28a1,1,0,1,1,0-2H153a1,1,0,0,1,0,2Z"/><path class="cls-5" d="M79.62,139.74c-1-1.74-15.33-9.39-15.33-9.39l-1.2,3S74.74,144.63,77,145.09,80.66,141.49,79.62,139.74Z"/><path class="cls-5" d="M77.29,146.13h0a2.68,2.68,0,0,1-.55-.06c-2.31-.48-11.57-9.29-14.36-12a1,1,0,0,1-.23-1.09l1.21-3a1,1,0,0,1,1.4-.51c3.41,1.83,14.62,7.92,15.72,9.76.84,1.4.47,3.54-.32,4.93A3.41,3.41,0,0,1,77.29,146.13Zm-13-13c5.48,5.26,11.68,10.7,12.9,11,.42.09.89-.27,1.26-.93a3.44,3.44,0,0,0,.34-2.92c-.66-1-7.44-5-14-8.49Z"/><path class="cls-19" d="M54.19,109.06s-25.63-13.83-24.66,3.35,3.06,17.95,10.26,21.48c5.64,2.76,21.83,4.39,25.2,1.15a6.9,6.9,0,0,0,2-4.16c.43-3.09-.57-7-2-11.1C62.79,113.45,54.19,109.06,54.19,109.06Z"/><path class="cls-3" d="M61.08,123.71a1,1,0,0,1-.9-.57c-4.26-8.86-16.19-11.2-16.31-11.22a1,1,0,0,1,.37-2c.53.1,13,2.56,17.74,12.32a1,1,0,0,1-.9,1.43Z"/><path class="cls-5" d="M62.37,152.13c-2-.33-14.41-10.76-14.41-10.76l2.36-2.24s14.78,6.66,16,8.54S64.37,152.46,62.37,152.13Z"/><path class="cls-5" d="M62.69,153.16a3,3,0,0,1-.48,0c-2.11-.34-11.93-8.49-14.89-11a1,1,0,0,1,0-1.49l2.36-2.24a1,1,0,0,1,1.1-.19c3.53,1.59,15.14,6.93,16.44,8.9a2.94,2.94,0,0,1,0,3.12A5.68,5.68,0,0,1,62.69,153.16ZM49.46,141.32c5.69,4.75,11.93,9.56,13.07,9.82h.15a3.75,3.75,0,0,0,2.72-1.87,1,1,0,0,0,.09-1.07c-.72-1-8.07-4.76-15-7.9Z"/><path class="cls-20" d="M24.44,139.89s-22.35-18.68-6-24.14,17.81-3.81,23.75,1.57c4.66,4.21,12.17,18.64,10.41,23a6.88,6.88,0,0,1-3.12,3.41c-2.71,1.54-6.67,2.05-11.06,2.25C31.7,146.25,24.44,139.89,24.44,139.89Z"/><path class="cls-3" d="M39.67,142.22H39.6c-10.8-.74-17.73-11.45-18-11.91a1,1,0,0,1,1.69-1.07c.07.1,6.68,10.31,16.47,11a1,1,0,0,1-.07,2Z"/></g></g></svg>