<svg xmlns="http://www.w3.org/2000/svg" viewBox="0 0 238.28 205.72"><defs><style>.cls-1{fill:#e00b6c;}.cls-2{fill:#ffd4ba;}.cls-3{fill:#64b9ea;}.cls-4{fill:#c65daf;}.cls-5{fill:#634e42;}.cls-6{fill:#fff;}.cls-7{fill:#0f7782;}.cls-8{fill:#432918;}.cls-9{fill:#cbbba0;}.cls-10{fill:#e71d73;}.cls-11{fill:#754142;}</style></defs><title>santeetbienetre</title><g id="Calque_2" data-name="Calque 2"><g id="Calque_1-2" data-name="Calque 1"><path class="cls-1" d="M224.15,193.08c-2.81-11.71-59.41-25.71-80.37-25.71-11.18,0-47.13,3.95-78.51,9.23C36.54,181.45,1.9,188.91.08,197c-.48,2.1,1.21,4.09,5,5.9a.36.36,0,0,0,.15,0c.65,0,65.7,2.81,123.81,2.81h0c51.79,0,82.28-2.15,90.6-6.39C223.21,197.53,224.72,195.43,224.15,193.08Z"/><path class="cls-2" d="M63.66,34.74l.48.48a.75.75,0,0,0,.53.22h.13a.75.75,0,0,0,.55-.42l1-2.18a.75.75,0,0,0-.06-.75c-.06-.08-1.37-2-1.94-2.62A1.46,1.46,0,0,0,63.27,29a2.11,2.11,0,0,0-1.66,1c-.21.34-.56.9,2,4.63Z"/><path class="cls-2" d="M82.75,17.06C81.28,13.51,75,.3,72.57.3h-.12a3.32,3.32,0,0,0-2.51,1.22,2.69,2.69,0,0,0-.24,2.26c.25.94.63,9.77.82,15.23L66.33,29.7a.75.75,0,0,0,.43,1l9,3.45a.75.75,0,0,0,1-.57c.29-1.62,1-4.47,1.79-5.23a7,7,0,0,1,2.05-1.14,11.23,11.23,0,0,0,3.7-2.25C84.66,24.54,85.5,23.7,82.75,17.06Z"/><path class="cls-2" d="M238.06,55.26c-.57-2.33-2.12-4.14-3.87-4.5a19,19,0,0,0-3.85-.41,14,14,0,0,0-3.1.33,6.78,6.78,0,0,0-.26-5.25,1.25,1.25,0,0,0-1-.74,1,1,0,0,0-.28,0c-.57.19-.75.78-1,1.68a8.64,8.64,0,0,1-1.33,2.91,38.22,38.22,0,0,1-5.17,4.41c-1.68.11-12.62.84-15,.84h-.3c-.1,0-.34,0-1.35,0-3.16,0-11.51.09-20.36.19-9.87.11-20.07.22-24.36.22-1.32,0-1.75,0-1.89,0-1.46-.41-2.33-1.09-2.58-2-.62-2.29,2.29-5.91,3.51-7.16l1.29-1.53a.75.75,0,0,0-.1-1.07l-7.18-5.81a.75.75,0,0,0-1,.1l-.92,1.09-3.59,5a11.15,11.15,0,0,0-1.76-2.41c-1.64-1.71-4.71-3.75-9.78-3.62-.88,0-2.16,0-3.82,0-14.36,0-53.35-.87-53.74-.88h0a.75.75,0,0,0-.73.58l-1.69,7a.75.75,0,0,0,.68.93c20.88,1.36,52.52,3.63,54.82,4.37a2,2,0,0,1,.73,1C125.48,56,120,64.32,118.83,65.26c-.27.22-1.27.72-4.66.72-1.8,0-3.38-.15-3.4-.15a.75.75,0,0,0-.81.9l5.57,26.74A.75.75,0,0,0,116,94a.74.74,0,0,0,.27.05.76.76,0,0,0,.44-.15l19.89-14.56,10.52-9.2,12.58-3.56c2.32-.14,35.18-2.06,36.15-2.18l23.55-3.24c1.09.36,6.9,2.21,11.57,2.21a7.89,7.89,0,0,0,5-1.3A6.54,6.54,0,0,0,238.06,55.26Z"/><path class="cls-3" d="M111.08,66.5a.38.38,0,0,0-.15-.23c-.17-.12-4.2-2.9-16.29-2.17-10.67.64-24.21.65-27.09.65.53-2,5.91-21,8.8-31.22a.38.38,0,0,0-.23-.45l-9.2-3.51a.38.38,0,0,0-.48.21L51.56,65.1c-3.11,7.31-2,10.55-1.94,10.68,2,5.79,39,6.68,44.27,6.78l1.78,3.9c-3,11.85,3.65,39,4.24,41.31-5,11.9-1.11,42.58-.95,43.88a.38.38,0,0,0,.36.33l10.41.24h0a.38.38,0,0,0,.37-.3c.95-4.73,3-71.41,3.15-76.55l3.2-1.71a.38.38,0,0,0,.19-.41Z"/><path class="cls-4" d="M154.54,54.1l-1.94-1.37a.75.75,0,0,0-.83,0s-4,2.5-7,2.5a2.58,2.58,0,0,1-2.28-1c-.77-1.09-1.22-3.74,1-10.16l.85-1.38a.75.75,0,0,0-.13-.95l-2-1.86a.75.75,0,0,0-.95-.06c-1.9,1.37-18.6,13.5-19.18,18.76-.39,3.52,4.43,8.9,6.52,11.05,3.15,3.24,7.68,7,10.2,7.51l.16,0h.15c.33-.07,8.12-1.68,9.75-7l6-15.16A.75.75,0,0,0,154.54,54.1Z"/><path class="cls-2" d="M127.78,188.78a3.05,3.05,0,0,0-1.7-2.11l-.07,0-15.59-6.76-.17-7.81a.75.75,0,0,0-.75-.74h0l-9.86.06a.75.75,0,0,0-.75.73c-.08,2.72-.36,16.42,2,18.84a1.54,1.54,0,0,0,1.12.51l24.5-.06a.75.75,0,0,0,.56-.26A3.06,3.06,0,0,0,127.78,188.78Z"/><path class="cls-2" d="M67.32,39c-1.41-1.41-4.05-1.57-5.12-1.57a6.74,6.74,0,0,0-2.54.41.75.75,0,0,0-.37.48c-2.75,11-1.42,11.63-.92,11.87a8.15,8.15,0,0,0,3.22.63,4.2,4.2,0,0,0,3.11-1.05C65.74,48.6,69.5,41.18,67.32,39Z"/><path class="cls-5" d="M156.61,44.12,148.9,39.2a.38.38,0,0,0-.54.48c.55,1.1,3.37,6.57,5.39,6.57a1.16,1.16,0,0,0,.34,0,12.85,12.85,0,0,0,2.53-1.47.37.37,0,0,0,0-.62Z"/><path class="cls-2" d="M164.32,1.27A24.83,24.83,0,0,0,160.85,1C149,1,144.94,10.55,143.59,16.24c-.91,3.84-1,8.13-.33,9.12.24,1.69,3.33,20.88,17.12,21.51h.34c8.63,0,16.58-14.25,17.42-26C178.92,9.76,173.88,2.63,164.32,1.27Z"/><path class="cls-6" d="M157.11,38l10,1.33s-1.82,2.54-3.87,3.15-7.35-4.39-7.35-4.57S157.11,38,157.11,38Z"/><ellipse class="cls-6" cx="157.06" cy="28.78" rx="1.93" ry="3.07"/><ellipse class="cls-7" cx="157.03" cy="28.84" rx="1.35" ry="2.29"/><ellipse class="cls-6" cx="167.97" cy="28.89" rx="1.93" ry="3.07"/><ellipse class="cls-7" cx="167.94" cy="28.95" rx="1.35" ry="2.29"/><path class="cls-8" d="M156.38,22.94a3.79,3.79,0,0,0-2.41,1.3.38.38,0,0,0,.6.46,3,3,0,0,1,1.91-1,4.74,4.74,0,0,1,3.46,1.26.38.38,0,1,0,.47-.59A5.46,5.46,0,0,0,156.38,22.94Z"/><path class="cls-8" d="M170.85,24.3c-.43-.16-4.25-1.56-5.65-.29a.38.38,0,1,0,.5.56c.8-.72,3.42-.12,4.88.44l.13,0a.38.38,0,0,0,.13-.73Z"/><path class="cls-9" d="M161,33.91a1.83,1.83,0,0,0,3.66,0Z"/><circle class="cls-10" cx="153.57" cy="33.59" r="0.41"/><circle class="cls-10" cx="151.53" cy="35.57" r="0.41"/><circle class="cls-10" cx="154.47" cy="35.76" r="0.41"/><circle class="cls-10" cx="169.27" cy="33.98" r="0.41"/><circle class="cls-10" cx="167.23" cy="35.96" r="0.41"/><circle class="cls-10" cx="170.17" cy="36.15" r="0.41"/><path class="cls-11" d="M175.35,7.21C171.65,2.5,165.7.08,157.7,0h-.2c-1.14,0-9,.42-12.72,11.44a8.06,8.06,0,0,0-5-2.06c-2.77,0-5.16,1.84-7.11,5.46-5.65,10.48.79,27,.85,27.18a1,1,0,0,0,.93.67h0c.52,0,2-.07,8.56-16.86l.87,4.12a.75.75,0,0,0,.56.58l.18,0a.75.75,0,0,0,.58-.28L148,26.73c4.07-3.9,6.21-9.61,7-12.26a56.92,56.92,0,0,0,6.28,6.45c5.84,5.1,11.42,7.69,16.58,7.69h.3A.75.75,0,0,0,179,28C179.08,27.52,181.81,15.43,175.35,7.21Z"/></g></g></svg>