<svg xmlns="http://www.w3.org/2000/svg" viewBox="0 0 312.82 213.16"><defs><style>.cls-1{fill:#bfe7e7;}.cls-2{fill:none;stroke:#ffb16b;stroke-linecap:round;stroke-linejoin:round;stroke-width:4px;}.cls-3{fill:#fff;}.cls-4{fill:#ff9ca0;}.cls-5{fill:#afe1e1;}.cls-6{fill:#fff7a4;}.cls-7{fill:#e00b6c;}.cls-8{fill:#71dcee;}.cls-9{fill:#f6f6f6;}.cls-10{fill:#0f7782;}.cls-11{fill:#ff8f54;}.cls-12{fill:#1d1d1b;}.cls-13{fill:#251d59;}</style></defs><title>shopping</title><g id="Calque_2" data-name="Calque 2"><g id="Calque_1-2" data-name="Calque 1"><path class="cls-1" d="M219.4,34.08,246,48.75s-11.73,119.06-17.5,123.5H154.86c-5.77-4.44-18.2-122-18.2-122l26.62-14.67"/><path class="cls-1" d="M228.52,174.25H154.86a2,2,0,0,1-1.22-.42c-1.38-1.06-4.26-3.28-12-64-3.79-29.63-6.91-59.1-6.94-59.39a2,2,0,0,1,1-2L162.32,33.8a2,2,0,0,1,1.93,3.5l-25.46,14c5.67,53.37,13.4,111.66,17.08,118.92h71.63c3.65-7.34,11-66.36,16.4-120.38l-25.47-14a2,2,0,0,1,1.93-3.5L247,47a2,2,0,0,1,1,1.95c0,.3-3,30.13-6.59,60.13-7.41,61.47-10.29,63.69-11.68,64.76A2,2,0,0,1,228.52,174.25Z"/><path class="cls-2" d="M175.42,55.28"/><path class="cls-3" d="M208.11,29.14l-16.42,18-21.74-20s19.08,12,38.16,0"/><path class="cls-1" d="M191.69,49.11a2,2,0,0,1-1.35-.53l-21.74-20A2,2,0,0,1,171,25.45c.74.46,18.29,11.15,36,0a2,2,0,0,1,2.8,2.69,2,2,0,0,1-.26,2.35l-16.42,18a2,2,0,0,1-1.39.65ZM179.46,33.17l12.11,11.12L202.7,32.1A37.57,37.57,0,0,1,179.46,33.17Z"/><circle class="cls-3" cx="192.68" cy="68.06" r="2"/><circle class="cls-3" cx="192.68" cy="85.25" r="2"/><circle class="cls-3" cx="192.68" cy="98.9" r="2"/><circle class="cls-3" cx="192.68" cy="111.88" r="2"/><circle class="cls-3" cx="192.68" cy="127.36" r="2"/><circle class="cls-3" cx="192.68" cy="142.5" r="2"/><circle class="cls-3" cx="192.68" cy="159.55" r="2"/><path class="cls-4" d="M175.42,32.14a1,1,0,0,1-.47-1.88l14.41-7.71v-8a1,1,0,1,1,2,0v8.6a1,1,0,0,1-.53.88l-14.94,8A1,1,0,0,1,175.42,32.14Z"/><path class="cls-4" d="M190.36,14.84a1,1,0,0,1,0-2,5.54,5.54,0,0,0,5.88-5.42A5.54,5.54,0,0,0,190.36,2a1,1,0,0,1,0-2,7.59,7.59,0,0,1,7.88,7.42A7.59,7.59,0,0,1,190.36,14.84Z"/><path class="cls-4" d="M205.22,32.14a1,1,0,0,1-.47-.12l-14.87-8a1,1,0,1,1,.95-1.76l14.87,8a1,1,0,0,1-.47,1.88Z"/><polygon class="cls-5" points="136.66 51.55 128.24 188.67 147.76 188.67 151.75 172.25 136.66 51.55"/><path class="cls-5" d="M147.76,190.67H128.24a2,2,0,0,1-2-2.12l8.43-137.12a2,2,0,0,1,1.93-1.88h.06a2,2,0,0,1,2,1.75L153.74,172a2,2,0,0,1,0,.72l-4,16.42A2,2,0,0,1,147.76,190.67Zm-17.4-4h15.83l3.53-14.54-12.38-99Z"/><polygon class="cls-5" points="228.52 172.25 237.84 192.22 256.04 192.22 246.02 48.75 228.52 172.25"/><path class="cls-5" d="M256,194.22H237.84a2,2,0,0,1-1.81-1.15l-9.32-20a2,2,0,0,1-.17-1.13L244,48.47a2,2,0,0,1,2.05-1.72A2,2,0,0,1,248,48.61l10,143.47a2,2,0,0,1-2,2.14Zm-16.92-4h14.78L245.35,67.78,230.59,171.94Z"/><polygon class="cls-5" points="168.17 27.14 163.29 35.55 181.04 64.42 191.69 47.11 202.34 64.42 217.43 32.91 209.88 27.14 191.69 47.11 168.17 27.14"/><path class="cls-5" d="M202.34,66.42a2,2,0,0,1-1.7-1l-8.95-14.54-8.95,14.54a2,2,0,0,1-1.7,1h0a2,2,0,0,1-1.7-1L161.58,36.6a2,2,0,0,1,0-2.05l4.88-8.41a2,2,0,0,1,3-.52l22,18.72L208.41,25.8a2,2,0,0,1,2.69-.24l7.54,5.77a2,2,0,0,1,.59,2.45L204.14,65.28a2,2,0,0,1-1.7,1.13Zm-36.72-30.9L181,60.6l8-13.08L168.7,30.22Zm28.56,11.83,7.94,12.9,12.8-26.73-4.79-3.67Z"/><circle class="cls-6" cx="66.99" cy="121.39" r="2"/><path class="cls-7" d="M11.12,127s62.66-60.92,132.42,0l-17.27,81.67H34.55Z"/><path class="cls-8" d="M103.83,141.26h-2c0-2.33,0-4.91.07-7.68.26-20.6.67-51.74-11.55-64.11a17.41,17.41,0,0,0-13-5.31,16.91,16.91,0,0,0-12.38,5.12C52.15,82.11,52.23,115.86,52.28,136v3.45h-2V136c0-20.48-.13-54.75,13.25-68.16a18.85,18.85,0,0,1,13.8-5.7,19.57,19.57,0,0,1,14.44,5.9c12.8,13,12.4,44.61,12.13,65.54C103.86,136.37,103.83,138.94,103.83,141.26Z"/><path class="cls-9" d="M57.31,144.17a6,6,0,0,1-6,6h0a6,6,0,0,1-6-6v-5.8a6,6,0,0,1,6-6h0a6,6,0,0,1,6,6Z"/><path class="cls-9" d="M108.85,144.17a6,6,0,0,1-6,6h0a6,6,0,0,1-6-6v-5.8a6,6,0,0,1,6-6h0a6,6,0,0,1,6,6Z"/><path class="cls-9" d="M32.2,166.25c-4.12,4.69,2,24.1,9,30.79s77,6,78.66,1.67S36.33,161.56,32.2,166.25Z"/><path class="cls-10" d="M310.82,212.3H2a2,2,0,0,1,0-4H310.82a2,2,0,0,1,0,4Z"/><path class="cls-11" d="M217.27,196.49c0,6.34-2.92,11.48-6.51,11.48h-42c-3.59,0-6.51-5.14-6.51-11.48h0c0-6.34,2.92-11.48,6.51-11.48h42c3.59,0,6.51,5.14,6.51,11.48Z"/><circle class="cls-8" cx="189.77" cy="197.25" r="15.41"/><path class="cls-8" d="M189.77,213.16a15.91,15.91,0,1,1,15.91-15.91A15.93,15.93,0,0,1,189.77,213.16Zm0-30.82a14.91,14.91,0,1,0,14.91,14.91A14.93,14.93,0,0,0,189.77,182.34Z"/><path class="cls-3" d="M189.77,181.84a15.41,15.41,0,1,1,0,30.82Z"/><path class="cls-8" d="M189.77,213.16h-.5V181.34h.5a15.91,15.91,0,1,1,0,31.82Zm.5-30.81v29.8a14.91,14.91,0,0,0,0-29.8Z"/><path class="cls-12" d="M189.77,197.75a.5.5,0,0,1-.5-.5v-9.83a.5.5,0,0,1,1,0v9.83A.5.5,0,0,1,189.77,197.75Z"/><path class="cls-12" d="M196.27,198.46h-6.5a.5.5,0,0,1,0-1h6.5a.5.5,0,0,1,0,1Z"/><circle class="cls-6" cx="189.77" cy="197.96" r="2.15" transform="translate(-13.88 381.61) rotate(-88.25)"/><ellipse class="cls-13" cx="287.62" cy="192.93" rx="17.75" ry="15.67"/><path class="cls-13" d="M287.62,209.6c-10.34,0-18.74-7.48-18.74-16.67s8.41-16.67,18.74-16.67,18.75,7.48,18.75,16.67S298,209.6,287.62,209.6Zm0-31.33c-9.23,0-16.74,6.58-16.74,14.67s7.51,14.67,16.74,14.67,16.75-6.58,16.75-14.67S296.86,178.27,287.62,178.27Z"/><ellipse class="cls-13" cx="246.79" cy="195.01" rx="17.74" ry="15.67"/><path class="cls-13" d="M246.79,211.67C236.45,211.67,228,204.2,228,195s8.41-16.67,18.75-16.67,18.74,7.48,18.74,16.67S257.12,211.67,246.79,211.67Zm0-31.33c-9.23,0-16.75,6.58-16.75,14.67s7.51,14.67,16.75,14.67,16.74-6.58,16.74-14.67S256,180.34,246.79,180.34Z"/><rect class="cls-13" x="264.53" y="192.93" width="5.35" height="4.78"/><path class="cls-13" d="M270.88,198.71h-7.35v-6.78h7.35Zm-5.35-2h3.35v-2.78h-3.35Z"/><path class="cls-3" d="M235.21,187.82s-6.37,5.9,2.73,15Z"/><path class="cls-3" d="M237.94,203.82a1,1,0,0,1-.71-.29c-3.51-3.51-5.25-7-5.19-10.4a8.86,8.86,0,0,1,2.49-6,1,1,0,0,1,1.66.55l2.73,15a1,1,0,0,1-1,1.18Zm-3.28-13.43a7.09,7.09,0,0,0-.62,2.82,10.45,10.45,0,0,0,2.26,6.17Z"/><path class="cls-3" d="M302.89,195c-3.86,12.28-12,10.82-12,10.82Z"/><path class="cls-3" d="M291.67,206.89a6.12,6.12,0,0,1-1-.07,1,1,0,0,1-.49-1.73l12-10.82a1,1,0,0,1,1.62,1C300.56,205.76,294.23,206.89,291.67,206.89Zm8.64-8.21-6.59,5.93C295.67,204.06,298.24,202.57,300.31,198.67Z"/></g></g></svg>