<svg xmlns="http://www.w3.org/2000/svg" viewBox="0 0 225.16 253.73"><defs><style>.cls-1{fill:#f66;}.cls-2{fill:#ffc9a4;}.cls-3{fill:#ff8f54;}.cls-4{fill:none;stroke:#71dcee;stroke-linecap:round;stroke-linejoin:round;}.cls-5{fill:#ffd9b8;}.cls-6{fill:#913d88;}.cls-7{fill:#bfe7e7;}.cls-8{fill:#afe1f7;}.cls-9{fill:#afe1e1;}.cls-10{fill:#ca9e67;}.cls-11{fill:#754142;}.cls-12{fill:#fae0b8;}.cls-13{fill:#ff9ca0;}.cls-14{fill:#dec1b4;}.cls-15{fill:#fff;}.cls-16{fill:#c0802a;}</style></defs><title>yoga</title><g id="Calque_2" data-name="Calque 2"><g id="Calque_1-2" data-name="Calque 1"><ellipse class="cls-1" cx="112.58" cy="221.78" rx="112.58" ry="31.95"/><polygon class="cls-2" points="100.65 84.3 94.15 89.49 112.67 104.75 128.42 89.99 119.94 84.3 100.65 84.3"/><path class="cls-3" d="M112.67,105.25a.49.49,0,0,1-.32-.11L93.83,89.88a.5.5,0,0,1,0-.78l6.5-5.19a.5.5,0,0,1,.31-.11h19.29a.5.5,0,0,1,.28.08l8.48,5.68a.5.5,0,0,1,.06.78L113,105.11A.5.5,0,0,1,112.67,105.25ZM94.94,89.5l17.71,14.58,15-14-7.84-5.25h-19Z"/><path class="cls-4" d="M97.13,78.81"/><path class="cls-4" d="M101,79"/><polygon class="cls-3" points="94.15 89.49 89.03 92.62 101.03 113.72 112.67 104.75 122.45 113.72 133.7 93.28 128.42 89.99 112.67 104.75 94.15 89.49"/><path class="cls-3" d="M122.45,114.22a.5.5,0,0,1-.34-.13l-9.47-8.69-11.3,8.71a.5.5,0,0,1-.74-.15l-12-21.09a.5.5,0,0,1,.17-.67l5.11-3.13a.5.5,0,0,1,.58,0l18.18,15,15.44-14.46a.5.5,0,0,1,.61-.06l5.27,3.3a.5.5,0,0,1,.17.67L122.89,114a.5.5,0,0,1-.36.25ZM89.71,92.8,101.18,113l10.69-8.24L94.1,90.11Zm23.69,11.94,8.92,8.18L133,93.46l-4.55-2.84Z"/><polygon class="cls-5" points="103.77 90.32 98.93 92.13 112.68 103.75 124.51 92.29 120.18 90.4 103.77 90.32"/><polygon class="cls-5" points="100.65 76.72 102.68 90.73 119.13 91.01 121.36 76.72 100.65 76.72"/><path class="cls-6" d="M133.7,93.28s14.17,3.79,18.46,8.32,16.32,26.53,16.32,26.53l25.21,24.31s-10.87,14.66-15.32,12.19S156.6,144.7,156.6,144.7l-15.79-17.64v48.71l-27.47,14.29L81.7,173.4l1.78-46.34s-9.93,17.64-12.9,22.25-23.73,20.76-23.73,20.76L33,158.71s24.23-22.91,27.69-27.19S75,99.8,77.5,97,89,92.62,89,92.62l12,21.09,11.64-9,9.78,9Z"/><path class="cls-6" d="M113.34,190.56a.49.49,0,0,1-.23-.06L81.46,173.84a.5.5,0,0,1-.27-.46l1.7-44.27c-2.61,4.62-9.52,16.79-11.9,20.48-3,4.63-23,20.22-23.85,20.88a.5.5,0,0,1-.62,0L32.69,159.09a.5.5,0,0,1,0-.75c.24-.23,24.24-22.93,27.64-27.14,1.79-2.21,5.77-11.13,9.28-19,3.39-7.59,6.32-14.15,7.54-15.51,2.56-2.86,11.44-4.5,11.82-4.57a.5.5,0,0,1,.52.25L101.18,113l11.18-8.62a.5.5,0,0,1,.64,0l9.31,8.54L133.26,93a.5.5,0,0,1,.57-.24c.58.16,14.36,3.88,18.69,8.46s15.49,25,16.35,26.57L194,152.09a.5.5,0,0,1,.05.66c-.38.52-9.46,12.67-14.58,12.68a2.82,2.82,0,0,1-1.39-.34c-4.46-2.48-21.16-19.31-21.87-20l-14.93-16.68v47.4a.5.5,0,0,1-.27.44L113.57,190.5A.49.49,0,0,1,113.34,190.56ZM82.21,173.1l31.14,16.39,27-14v-48.4a.5.5,0,0,1,.87-.33L157,144.37c.16.16,17.29,17.42,21.63,19.83a1.81,1.81,0,0,0,.9.22c3.71,0,10.76-8.29,13.51-11.92l-24.9-24a.49.49,0,0,1-.09-.12c-.12-.22-12-22-16.24-26.42-3.76-4-15.58-7.44-17.85-8.08L122.89,114a.5.5,0,0,1-.36.25.49.49,0,0,1-.42-.12l-9.47-8.69-11.3,8.71a.5.5,0,0,1-.74-.15L88.78,93.18c-1.67.33-8.84,1.88-10.9,4.19-1.12,1.25-4.3,8.37-7.38,15.25-3.71,8.31-7.55,16.9-9.42,19.21-3.23,4-24,23.72-27.32,26.85l13.1,10.75c2.61-2,20.61-16.21,23.3-20.39C73.08,144.5,82.94,127,83,126.82a.49.49,0,0,1,.57-.24.5.5,0,0,1,.36.5Z"/><polyline class="cls-6" points="91.59 180.16 113.34 191.78 141.77 176.81 91.15 179.93"/><path class="cls-6" d="M113.34,192.28a.5.5,0,0,1-.24-.06L91.36,180.6a.5.5,0,0,1-.19-.17h0a.5.5,0,0,1,0-1l50.62-3.11a.5.5,0,0,1,.26.94l-28.43,15A.5.5,0,0,1,113.34,192.28Zm-20.39-12,20.4,10.9,26.13-13.76Z"/><path class="cls-7" d="M155.82,212.41s-66-34.34-90.56-47.66-50.62,8.15-17.81,23.11l81,36.93,23.09,10.53Z"/><path class="cls-7" d="M151.51,236.82a1.5,1.5,0,0,1-.62-.14L46.82,189.22c-5.54-2.53-18.2-9.46-16.09-19.2,1.4-6.45,9.09-11,18.7-11A35,35,0,0,1,66,163.43c24.31,13.17,89.88,47.31,90.54,47.65a1.5,1.5,0,0,1,.78,1.61L153,235.6a1.5,1.5,0,0,1-1.47,1.22ZM49.44,162.07c-8.06,0-14.69,3.61-15.77,8.59-.55,2.53-.25,9.15,14.4,15.83l102.32,46.67,3.75-19.93c-8.33-4.34-66.9-34.87-89.6-47.16A32,32,0,0,0,49.44,162.07Z"/><path class="cls-5" d="M169.81,231.39c-3.77,6.88-12.72,9.23-20,5.25a15.65,15.65,0,0,1-4.52-3.7,13.91,13.91,0,0,1,11.34-23.13,15.66,15.66,0,0,1,6.82,1.92C170.74,215.7,173.57,224.51,169.81,231.39Z"/><ellipse class="cls-5" cx="38.1" cy="166.96" rx="11.75" ry="10.24"/><path class="cls-7" d="M75.27,210.27s77.17-39.58,90.56-47.66c23.61-14.25,48.24,8,17.82,23.11L79.58,233.17Z"/><path class="cls-7" d="M79.58,234.67a1.5,1.5,0,0,1-1.47-1.22l-4.31-22.91a1.5,1.5,0,0,1,.79-1.61c.77-.4,77.27-39.65,90.47-47.61a31.71,31.71,0,0,1,16.28-4.79c8.9,0,16.18,4.48,17.68,10.89.78,3.32.91,11.87-14.7,19.63L80.2,234.54A1.5,1.5,0,0,1,79.58,234.67ZM77,211.09,80.7,231,183,184.35c9.45-4.7,14.35-10.78,13.07-16.24-1.19-5.05-7.26-8.58-14.76-8.58a28.71,28.71,0,0,0-14.73,4.36C154.15,171.41,86,206.42,77,211.09Z"/><path class="cls-5" d="M91.7,229.74c-4.16,7.59-14,10.19-22.06,5.79a17.28,17.28,0,0,1-5-4.09A15.35,15.35,0,0,1,77.17,205.9,17.26,17.26,0,0,1,84.7,208C92.73,212.41,95.86,222.14,91.7,229.74Z"/><ellipse class="cls-5" cx="188.41" cy="160.34" rx="11.75" ry="10.24"/><path class="cls-8" d="M188.41,177.89c-2.49,2.52-83.37,40.9-88,39.6s-8.26-5.82-6.46-8.93,85.66-35.16,86.7-36.41C183.4,171.1,190.9,175.37,188.41,177.89Z"/><path class="cls-9" d="M100.67,217.78a1.35,1.35,0,0,1-.36,0,10.4,10.4,0,0,1-6.72-5.5,4.19,4.19,0,0,1,.11-3.79c1.09-1.87,27.73-12.62,59.81-25.42,14.13-5.64,26.33-10.51,26.93-11a.2.2,0,0,1,.09-.06,3.18,3.18,0,0,1,1.12-.18c2.43,0,6.42,2,7.33,4.19a1.84,1.84,0,0,1-.39,2.14c-1.35,1.37-23.34,12.06-42.22,20.8C134.07,204.55,105,217.78,100.67,217.78Zm80.06-45.4c-.9.64-8.78,3.81-27,11.1-23.28,9.29-58.47,23.33-59.56,25.21a3.71,3.71,0,0,0-.08,3.35,9.88,9.88,0,0,0,6.39,5.21.89.89,0,0,0,.23,0c6.5,0,85-36.93,87.56-39.56a1.34,1.34,0,0,0,.28-1.6c-.76-1.81-4.41-3.88-6.87-3.88A2.72,2.72,0,0,0,180.74,172.38Z"/><path class="cls-8" d="M114.8,218.72s30.33-14.15,27-12.07c-10.29,6.4-4.75,22-4.75,22Z"/><path class="cls-9" d="M137.05,228.87h0l-.1,0-22.24-9.9a.25.25,0,0,1,0-.46c4.41-2.05,26.43-12.3,27.33-12.3a.29.29,0,0,1,.26.19c.06.22-.14.34-.36.48-4.19,2.6-6.24,7-6.12,13.16a30.63,30.63,0,0,0,1.45,8.45.25.25,0,0,1-.2.4ZM115.4,218.72l21.23,9.45c-.81-2.69-3.91-14.74,3.79-20.86C136.08,209.15,124,214.68,115.4,218.72Z"/><path class="cls-10" d="M104.34,79a11.67,11.67,0,0,0,8.2,3c4.74-.36,6.55-1.46,6.55-1.46V79Z"/><path class="cls-11" d="M122.79,7.74q-5,.39-9.17.68L93,0a.5.5,0,0,0-.54.81l8.24,8.36c-7.65.39-11.66.43-13.86.45s-2.4,0-2.66.36a.78.78,0,0,0-.1.71l0,.13c.23,1.28,1.5,6.57,1.78,7.7l-1.45,2.3-12,3.69a.5.5,0,0,0-.09.92l7.27,3.8c-.74,3.63.24,13.47.28,13.9a.49.49,0,0,0,0,.16l4.49,9.88a.5.5,0,0,0,.45.29l48.78.25h0a.5.5,0,0,0,.44-.26l7.18-13.22a.5.5,0,0,0,.06-.24C141.31,9.25,123,7.75,122.79,7.74Z"/><path class="cls-12" d="M81.81,45.76s-7.69,16,5.55,16V50.26Z"/><path class="cls-12" d="M138.6,43.6s7.66,16.78-5.53,15.54l-.42-11.58Z"/><path class="cls-5" d="M87.18,33c.5-2.25,11-8,11-8s29.73,0,32.72,6.25,3.79,20.27,3.79,20.27.38,8.92-.68,12.47c-.23.76-9.85,18.21-23.89,17S86.43,60.75,86.43,60.75V54.26Z"/><path class="cls-13" d="M99.86,67.74h21.72s-4.94,5.08-11.25,5S99.86,67.74,99.86,67.74Z"/><path class="cls-14" d="M107.59,59.75s3,3.24,6,0"/><ellipse class="cls-15" cx="101.85" cy="49.16" rx="3.1" ry="4.31"/><path class="cls-15" d="M124.46,49.16c0,2.38-1.39,4.31-3.09,4.31s-3.1-1.93-3.1-4.31,1.39-4.31,3.1-4.31S124.46,46.78,124.46,49.16Z"/><ellipse class="cls-16" cx="101.85" cy="49.16" rx="1.7" ry="2.37"/><ellipse class="cls-16" cx="121.37" cy="49.16" rx="1.7" ry="2.37"/><path class="cls-16" d="M96.56,41.89a.5.5,0,0,1-.31-.89c.18-.14,4.39-3.37,8.32-1.26a.5.5,0,0,1-.47.88c-3.35-1.8-7.2,1.14-7.24,1.17A.5.5,0,0,1,96.56,41.89Z"/><path class="cls-16" d="M125.26,41.43a.5.5,0,0,1-.31-.1s-3.88-3-7.24-1.17a.5.5,0,0,1-.47-.88c3.94-2.11,8.15,1.12,8.33,1.26a.5.5,0,0,1-.31.89Z"/></g></g></svg>