<?xml version="1.0" encoding="UTF-8" standalone="no"?>
<svg width="30px" height="38px" viewBox="0 0 30 38" version="1.1" xmlns="http://www.w3.org/2000/svg" xmlns:xlink="http://www.w3.org/1999/xlink">
    <!-- Generator: Sketch 3.8.3 (29802) - http://www.bohemiancoding.com/sketch -->
    <title>1481062943_present</title>
    <desc>Created with Sketch.</desc>
    <defs></defs>
    <g id="Page-1" stroke="none" stroke-width="1" fill="none" fill-rule="evenodd">
        <g id="Group" transform="translate(-1.000000, 0.000000)">
            <g id="1481062943_present" transform="translate(0.886364, 0.386364)">
                <rect id="Rectangle-path" fill="#56C99A" x="1.7252" y="15.17056" width="26.5414" height="22.1541875"></rect>
                <rect id="Rectangle-path" fill="#26C281" x="0.1252" y="11.9141449" width="29.7414" height="6.51283019"></rect>
                <rect id="Rectangle-path" fill="#26C281" x="2.7918" y="18.426975" width="24.4082" height="18.8977724"></rect>
                <rect id="Rectangle-path" fill="#1AA66C" x="1.7252" y="18.426975" width="26.5414" height="1.35695679"></rect>
                <rect id="Rectangle-path" fill="#56C99A" x="12.2582" y="11.6745283" width="5.8754" height="25.6502191"></rect>
                <rect id="Rectangle-path" fill="#CE4381" x="12.8582" y="11.6745283" width="4.6754" height="25.6502191"></rect>
                <ellipse id="Oval" fill="#CE4381" cx="14.8174" cy="10.4981376" rx="3.0486" ry="3.06158856"></ellipse>
                <path d="M16.2352,8.04432745 C16.2352,8.04432745 19.8464,-2.15373707 24.1202,0.574637858 C28.394,3.30281193 28.1016,9.51858186 16.5898,12.5108764 C16.5896,12.5106756 15.4162,8.9481619 16.2352,8.04432745 L16.2352,8.04432745 Z" id="Shape" fill="#CE4381"></path>
                <path d="M17.5396,10.8745344 C17.5396,10.8745344 19.9872,5.28542301 25.0594,6.78418138 C25.0594,6.78398052 22.7062,7.40742544 17.5396,10.8745344 L17.5396,10.8745344 Z" id="Shape" fill="#AE2C8C"></path>
                <path d="M13.3506,8.07646379 C13.3506,8.07646379 8.2032,-0.748776628 4.7162,2.54238588 C1.2296,5.83395009 2.595,11.5516068 13.8076,12.2851187 C13.8076,12.2851187 14.27,8.77000609 13.3506,8.07646379 L13.3506,8.07646379 Z" id="Shape" fill="#CE4381"></path>
                <path d="M12.6376,10.93479 C12.6376,10.93479 9.3822,6.18142422 4.9374,8.47314668 C4.9376,8.47334753 7.2316,8.63382836 12.6376,10.93479 L12.6376,10.93479 Z" id="Shape" fill="#AE2C8C"></path>
                <path d="M18.033,11.3342848 C18.033,11.3342848 22.0888,11.8197444 24.1634,14.3022763 C26.2382,16.7844066 29.0238,17.1232441 29.0238,17.1232441 L27.2248,19.1950335 C27.2248,19.1950335 23.6648,17.7404626 22.5766,16.1159708 C21.4884,14.4916799 18.254,12.0730189 17.0448,12.0031223 L18.033,11.3342848 L18.033,11.3342848 Z" id="Shape" fill="#CE4381"></path>
                <path d="M14.0122,11.3342848 C14.0122,11.3342848 9.9564,11.8197444 7.8818,14.3022763 C5.807,16.7844066 3.0214,17.1232441 3.0214,17.1232441 L4.8204,19.1950335 C4.8204,19.1950335 8.3804,17.7404626 9.4686,16.1159708 C10.5568,14.4916799 13.7912,12.0730189 15.0004,12.0031223 L14.0122,11.3342848 L14.0122,11.3342848 Z" id="Shape" fill="#CE4381"></path>
            </g>
        </g>
    </g>
</svg>