<?xml version="1.0" encoding="UTF-8" standalone="no"?>
<svg width="50px" height="60px" viewBox="0 0 50 60" version="1.1" xmlns="http://www.w3.org/2000/svg" xmlns:xlink="http://www.w3.org/1999/xlink">
    <!-- Generator: Sketch 3.8.3 (29802) - http://www.bohemiancoding.com/sketch -->
    <title>Group</title>
    <desc>Created with Sketch.</desc>
    <defs></defs>
    <g id="Page-1" stroke="none" stroke-width="1" fill="none" fill-rule="evenodd">
        <g id="Group">
            <g id="1481062943_present" transform="translate(18.750000, 0.000000)">
                <rect id="Rectangle-path" fill="#53C2E2" x="1.60103788" y="14.0190114" width="24.6312235" height="20.4725341"></rect>
                <rect id="Rectangle-path" fill="#12B8E8" x="0.116189394" y="11.0097803" width="27.6009205" height="6.01846212"></rect>
                <rect id="Rectangle-path" fill="#12B8E8" x="2.590875" y="17.0282424" width="22.6515492" height="17.463303"></rect>
                <rect id="Rectangle-path" fill="#119BC3" x="1.60103788" y="17.0282424" width="24.6312235" height="1.25395455"></rect>
                <rect id="Rectangle-path" fill="#53C1E1" x="11.3759811" y="10.7883523" width="5.45254924" height="23.7031932"></rect>
                <rect id="Rectangle-path" fill="#F9B233" x="11.9327992" y="10.7883523" width="4.33891288" height="23.7031932"></rect>
                <ellipse id="Oval" fill="#F9B233" cx="13.7509962" cy="9.70125758" rx="2.82919318" ry="2.82919318"></ellipse>
                <path d="M15.0667576,7.43370833 C15.0667576,7.43370833 18.4180606,-1.99025379 22.3842765,0.531018939 C26.3504924,3.05210606 26.0791364,8.79605682 15.3958371,11.5612159 C15.3956515,11.5610303 14.3067008,8.26893561 15.0667576,7.43370833 L15.0667576,7.43370833 Z" id="Shape" fill="#F9B233"></path>
                <path d="M16.2772803,10.0490833 C16.2772803,10.0490833 18.5487273,4.88422348 23.2558826,6.26921591 C23.2558826,6.2690303 21.0720417,6.84515152 16.2772803,10.0490833 L16.2772803,10.0490833 Z" id="Shape" fill="#E79A1D"></path>
                <path d="M4.37677652,2.34940152 C1.14110606,5.39111364 2.40823864,10.6747614 12.8138712,11.3525947 C12.8138712,11.3525947 13.2429924,8.10430303 12.3897614,7.4634053 C12.3897614,7.4634053 7.61281818,-0.691939394 4.37677652,2.34940152 Z" id="Shape" fill="#F9B233"></path>
                <path d="M11.7280758,10.1047652 C11.7280758,10.1047652 8.70696591,5.71221212 4.58205682,7.82997727 C4.58224242,7.83016288 6.71114394,7.97846212 11.7280758,10.1047652 L11.7280758,10.1047652 Z" id="Shape" fill="#E79A1D"></path>
                <path d="M16.7351705,10.4739356 C16.7351705,10.4739356 20.4990758,10.9225455 22.4243674,13.2166364 C24.3498447,15.5103561 26.9349659,15.8234735 26.9349659,15.8234735 L25.2654394,17.738 C25.2654394,17.738 21.9616515,16.3938409 20.9517689,14.8926591 C19.9418864,13.3916629 16.9402652,11.1565947 15.8180909,11.0920038 L16.7351705,10.4739356 L16.7351705,10.4739356 Z" id="Shape" fill="#F9B233"></path>
                <path d="M13.0037462,10.4739356 C13.0037462,10.4739356 9.23984091,10.9225455 7.31454924,13.2166364 C5.38907197,15.5103561 2.80395076,15.8234735 2.80395076,15.8234735 L4.47347727,17.738 C4.47347727,17.738 7.77726515,16.3938409 8.78714773,14.8926591 C9.7970303,13.3916629 12.7986515,11.1565947 13.9208258,11.0920038 L13.0037462,10.4739356 L13.0037462,10.4739356 Z" id="Shape" fill="#F9B233"></path>
            </g>
            <g id="1481062943_present" transform="translate(0.000000, 14.772727)">
                <rect id="Rectangle-path" fill="#EE8543" x="1.63371212" y="14.3051136" width="25.1339015" height="20.8903409"></rect>
                <rect id="Rectangle-path" fill="#F9690E" x="0.118560606" y="11.2344697" width="28.1642045" height="6.14128788"></rect>
                <rect id="Rectangle-path" fill="#F9690E" x="2.64375" y="17.3757576" width="23.1138258" height="17.819697"></rect>
                <rect id="Rectangle-path" fill="#DD5D0C" x="1.63371212" y="17.3757576" width="25.1339015" height="1.27954545"></rect>
                <rect id="Rectangle-path" fill="#EE8543" x="11.6081439" y="11.0085227" width="5.56382576" height="24.1869318"></rect>
                <rect id="Rectangle-path" fill="#86E2D5" x="12.1763258" y="11.0085227" width="4.42746212" height="24.1869318"></rect>
                <ellipse id="Oval" fill="#86E2D5" cx="14.0316288" cy="9.89924242" rx="2.88693182" ry="2.88693182"></ellipse>
                <path d="M15.3742424,7.58541667 C15.3742424,7.58541667 18.7939394,-2.03087121 22.8410985,0.541856061 C26.8882576,3.11439394 26.6113636,8.97556818 15.7100379,11.7971591 C15.7098485,11.7969697 14.5986742,8.43768939 15.3742424,7.58541667 L15.3742424,7.58541667 Z" id="Shape" fill="#86E2D5"></path>
                <path d="M16.6094697,10.2541667 C16.6094697,10.2541667 18.9272727,4.98390152 23.7304924,6.39715909 C23.7304924,6.3969697 21.5020833,6.98484848 16.6094697,10.2541667 L16.6094697,10.2541667 Z" id="Shape" fill="#43BBAA"></path>
                <path d="M12.6426136,7.6157197 C12.6426136,7.6157197 7.76818182,-0.706060606 4.46609848,2.39734848 C1.16439394,5.50113636 2.45738636,10.8926136 13.0753788,11.5842803 C13.0753788,11.5842803 13.5132576,8.26969697 12.6426136,7.6157197 L12.6426136,7.6157197 Z" id="Shape" fill="#86E2D5"></path>
                <path d="M11.9674242,10.3109848 C11.9674242,10.3109848 8.88465909,5.82878788 4.67556818,7.98977273 C4.67575758,7.98996212 6.84810606,8.14128788 11.9674242,10.3109848 L11.9674242,10.3109848 Z" id="Shape" fill="#43BBAA"></path>
                <path d="M17.0767045,10.6876894 C17.0767045,10.6876894 20.9174242,11.1454545 22.8820076,13.4863636 C24.8467803,15.8268939 27.4846591,16.1464015 27.4846591,16.1464015 L25.7810606,18.1 C25.7810606,18.1 22.4098485,16.7284091 21.3793561,15.1965909 C20.3488636,13.6649621 17.2859848,11.3842803 16.1409091,11.3183712 L17.0767045,10.6876894 L17.0767045,10.6876894 Z" id="Shape" fill="#86E2D5"></path>
                <path d="M13.2691288,10.6876894 C13.2691288,10.6876894 9.42840909,11.1454545 7.46382576,13.4863636 C5.49905303,15.8268939 2.86117424,16.1464015 2.86117424,16.1464015 L4.56477273,18.1 C4.56477273,18.1 7.93598485,16.7284091 8.96647727,15.1965909 C9.9969697,13.6649621 13.0598485,11.3842803 14.2049242,11.3183712 L13.2691288,10.6876894 L13.2691288,10.6876894 Z" id="Shape" fill="#86E2D5"></path>
            </g>
            <g id="1481062943_present" transform="translate(19.886364, 22.159091)">
                <rect id="Rectangle-path" fill="#56C99A" x="1.73173485" y="15.2280242" width="26.6419356" height="22.2381048"></rect>
                <rect id="Rectangle-path" fill="#26C281" x="0.125674242" y="11.9592742" width="29.8540568" height="6.5375"></rect>
                <rect id="Rectangle-path" fill="#26C281" x="2.802375" y="18.4967742" width="24.5006553" height="18.9693548"></rect>
                <rect id="Rectangle-path" fill="#1AA66C" x="1.73173485" y="18.4967742" width="26.6419356" height="1.36209677"></rect>
                <rect id="Rectangle-path" fill="#56C99A" x="12.3046326" y="11.71875" width="5.8976553" height="25.747379"></rect>
                <rect id="Rectangle-path" fill="#CE4381" x="12.9069053" y="11.71875" width="4.69310985" height="25.747379"></rect>
                <ellipse id="Oval" fill="#CE4381" cx="14.8735265" cy="10.5379032" rx="3.06014773" ry="3.07318548"></ellipse>
                <path d="M16.296697,8.07479839 C16.296697,8.07479839 19.9215758,-2.16189516 24.2115644,0.576814516 C28.501553,3.31532258 28.2080455,9.5546371 16.6526402,12.5582661 C16.6524394,12.5580645 15.4745947,8.98205645 16.296697,8.07479839 L16.296697,8.07479839 Z" id="Shape" fill="#CE4381"></path>
                <path d="M17.6060379,10.9157258 C17.6060379,10.9157258 20.0629091,5.30544355 25.154322,6.80987903 C25.154322,6.80967742 22.7922083,7.43548387 17.6060379,10.9157258 L17.6060379,10.9157258 Z" id="Shape" fill="#AE2C8C"></path>
                <path d="M13.4011705,8.10705645 C13.4011705,8.10705645 8.23427273,-0.751612903 4.73406439,2.55201613 C1.23425758,5.85604839 2.60482955,11.5953629 13.8599015,12.3316532 C13.8599015,12.3316532 14.324053,8.80322581 13.4011705,8.10705645 L13.4011705,8.10705645 Z" id="Shape" fill="#CE4381"></path>
                <path d="M12.6854697,10.9762097 C12.6854697,10.9762097 9.41773864,6.20483871 4.95610227,8.50524194 C4.95630303,8.50544355 7.25899242,8.66653226 12.6854697,10.9762097 L12.6854697,10.9762097 Z" id="Shape" fill="#AE2C8C"></path>
                <path d="M18.1013068,11.3772177 C18.1013068,11.3772177 22.1724697,11.8645161 24.254928,14.3564516 C26.3375871,16.8479839 29.1337386,17.1881048 29.1337386,17.1881048 L27.3279242,19.2677419 C27.3279242,19.2677419 23.7544394,17.8076613 22.6621174,16.1770161 C21.5697955,14.5465726 18.3231439,12.11875 17.1093636,12.0485887 L18.1013068,11.3772177 L18.1013068,11.3772177 Z" id="Shape" fill="#CE4381"></path>
                <path d="M14.0652765,11.3772177 C14.0652765,11.3772177 9.99411364,11.8645161 7.9116553,14.3564516 C5.82899621,16.8479839 3.0328447,17.1881048 3.0328447,17.1881048 L4.83865909,19.2677419 C4.83865909,19.2677419 8.41214394,17.8076613 9.50446591,16.1770161 C10.5967879,14.5465726 13.8434394,12.11875 15.0572197,12.0485887 L14.0652765,11.3772177 L14.0652765,11.3772177 Z" id="Shape" fill="#CE4381"></path>
            </g>
        </g>
    </g>
</svg>